<?xml version="1.0" encoding="UTF-8"?>
<svg id="Layer_1" xmlns="http://www.w3.org/2000/svg" version="1.1" viewBox="0 0 259 170">
  <!-- Generator: Adobe Illustrator 30.4.0, SVG Export Plug-In . SVG Version: 2.1.4 Build 226)  -->
  <defs>
    <style>
      .st0 {
        fill: #79806c;
      }

      .st1 {
        fill: #707a63;
      }

      .st2 {
        fill: #6e7561;
      }

      .st3 {
        fill: #515944;
      }

      .st4 {
        fill: #aeb5a3;
      }

      .st5 {
        fill: #969e8a;
      }

      .st6 {
        fill: #4d543f;
      }

      .st7 {
        fill: #8b947e;
      }

      .st8 {
        fill: #828975;
      }

      .st9 {
        fill: #656d55;
      }

      .st10 {
        fill: #656c58;
      }

      .st11 {
        fill: #6d7861;
      }

      .st12 {
        fill: #69705c;
      }

      .st13 {
        fill: #8e9680;
      }

      .st14 {
        fill: #7e8871;
      }

      .st15 {
        fill: #a0ab95;
      }

      .st16 {
        fill: #616a54;
      }

      .st17 {
        fill: #6b725e;
      }

      .st18 {
        fill: #979f8c;
      }

      .st19 {
        fill: #b7bcb0;
      }

      .st20 {
        fill: #5b624e;
      }

      .st21 {
        fill: #616954;
      }

      .st22 {
        fill: #a6b19b;
      }

      .st23 {
        fill: #6e7761;
      }

      .st24 {
        fill: #858d77;
      }

      .st25 {
        fill: #616853;
      }

      .st26 {
        fill: #59644d;
      }

      .st27 {
        fill: #838b76;
      }

      .st28 {
        fill: #949c87;
      }

      .st29 {
        fill: #8d967f;
      }

      .st30 {
        fill: #a6b29b;
      }

      .st31 {
        fill: #666d59;
      }

      .st32 {
        fill: #a1ac95;
      }

      .st33 {
        fill: #a8b49e;
      }

      .st34 {
        fill: #a0a498;
      }

      .st35 {
        fill: #a5b099;
      }

      .st36 {
        fill: #555c4a;
      }

      .st37 {
        fill: #abb7a1;
      }

      .st38 {
        fill: #6c725e;
      }

      .st39 {
        fill: #a5b19b;
      }

      .st40 {
        fill: #828b75;
      }

      .st41 {
        fill: #767e6a;
      }

      .st42 {
        fill: #7e8571;
      }

      .st43 {
        fill: #b0b9a7;
      }

      .st44 {
        fill: #a8b49d;
      }

      .st45 {
        fill: #a7b39c;
      }

      .st46 {
        fill: #7a826c;
      }

      .st47 {
        fill: #626955;
      }

      .st48 {
        fill: #86917b;
      }

      .st49 {
        fill: #aab59f;
      }

      .st50 {
        fill: #b3bca7;
      }

      .st51 {
        fill: #7d8470;
      }

      .st52 {
        fill: #808873;
      }

      .st53 {
        fill: #949e88;
      }

      .st54 {
        fill: #737a67;
      }

      .st55 {
        fill: #646b5a;
      }

      .st56 {
        fill: #6c745e;
      }

      .st57 {
        fill: #7a826e;
      }

      .st58 {
        fill: #656d57;
      }

      .st59 {
        fill: #7a816f;
      }

      .st60 {
        fill: #becbb5;
      }

      .st61 {
        fill: #a8b39d;
      }

      .st62 {
        fill: #dddfda;
      }

      .st63 {
        fill: #626a57;
      }

      .st64 {
        fill: #59614c;
      }

      .st65 {
        fill: #78816c;
      }

      .st66 {
        fill: #737b68;
      }

      .st67 {
        fill: #6a725e;
      }

      .st68 {
        fill: #a2ad97;
      }

      .st69 {
        fill: #97a28c;
      }

      .st70 {
        fill: #d2d4cd;
      }

      .st71 {
        fill: #596149;
      }

      .st72 {
        fill: #767d6a;
      }

      .st73 {
        fill: #56604a;
      }

      .st74 {
        fill: #6a705c;
      }

      .st75 {
        fill: #979e89;
      }

      .st76 {
        fill: #7c846f;
      }

      .st77 {
        fill: #6d735f;
      }

      .st78 {
        fill: #9da893;
      }

      .st79 {
        fill: #3e4530;
      }

      .st80 {
        fill: #6f7761;
      }

      .st81 {
        fill: #fefefe;
      }

      .st82 {
        fill: #707762;
      }

      .st83 {
        fill: #a1a598;
      }

      .st84 {
        fill: #5a634d;
      }

      .st85 {
        fill: #919a86;
      }

      .st86 {
        fill: #828b76;
      }

      .st87 {
        fill: #646a58;
      }

      .st88 {
        fill: #757e68;
      }

      .st89 {
        fill: #7d8471;
      }

      .st90 {
        fill: #6d7663;
      }

      .st91 {
        fill: #69715d;
      }

      .st92 {
        fill: #abb6a0;
      }

      .st93 {
        fill: #8b937d;
      }

      .st94 {
        fill: #646c57;
      }

      .st95 {
        fill: #656d58;
      }

      .st96 {
        fill: #b2bca7;
      }

      .st97 {
        fill: #859079;
      }

      .st98 {
        fill: #a4af98;
      }

      .st99 {
        fill: #767c68;
      }

      .st100 {
        fill: #929987;
      }

      .st101 {
        fill: #b6c1ab;
      }

      .st102 {
        fill: #68705a;
      }

      .st103 {
        fill: #929b87;
      }

      .st104 {
        fill: #5d6450;
      }

      .st105 {
        fill: #777f6a;
      }

      .st106 {
        fill: #767c6b;
      }

      .st107 {
        fill: #636b55;
      }

      .st108 {
        fill: #757f6a;
      }

      .st109 {
        fill: #7b826d;
      }

      .st110 {
        fill: #d9dbd5;
      }

      .st111 {
        fill: #828a76;
      }

      .st112 {
        fill: #757d68;
      }

      .st113 {
        fill: #676f59;
      }

      .st114 {
        fill: #636a55;
      }

      .st115 {
        fill: #676f5a;
      }

      .st116 {
        fill: #949e87;
      }

      .st117 {
        fill: #78806b;
      }

      .st118 {
        fill: #636b57;
      }

      .st119 {
        fill: #7b826e;
      }

      .st120 {
        fill: #606954;
      }
    </style>
  </defs>
  <rect class="st81" width="259" height="170"/>
  <g>
    <path class="st77" d="M156.46,146.44c3.66-.16,7.33-.32,11.02-.47l1.08-.51c4.24.35,8.48-.52,12.92-.48l11.03.09c4.25.03,11.08,1.72,12.52-1.04.66-.91,1.24-1.1,1.76-.58.03,1,.26,2,.67,3.01,2.71,1.24,11.31.47,17.15,4.48.39.27.74,1.08.9,1.57-2.07.14-3.69-.96-5.61-1.24l-7.75-1.12c-3.85-.56-9.04-1.82-10.62-1.52-2.12.4-4.04-.54-6.04-.53l-17.91.05c-1.98,0-3.73.41-5.54.4-2.54-.01-4.9.3-7.08.93-2.15.31-4.96-.56-7.12.39-1.7.74-2.87,1.19-4.82,1.43-2.38.3-6.02,1.56-9.91,2.43l-5.53,1.24c-1.68-.1-2.78.57-4.17.72-5.11.56-10.15.44-15.28.09-1.14-.08-2.35-.93-3.66-.85-.31-.02-.59-.97-.36-1.34l16.75-.43,10.95-1.88c2.28-.39,4.72-.16,6.33-2.27-1.58.46-2.95-.07-4.27-.2l-7.8-.77c-3.3-.33-6.34-.46-9.59-.76l-7.45-.69-11.47-1.02-8.9-.28c-6.74-.95-13.33-.39-20.09.13-2.41.19-4.45.12-6.79.65s-5.15.29-7.69,1.16c-1.29.44-2.73.15-3.87.55l-15.79,5.55c-1.17.41-2.05.76-3.58.6.9-.29,1.21-1.56,1.65-1.94,3.18-1.77,6.32-3.14,9.53-4.21,2.12-.38,3.23-1.35,3.34-2.89l7.55-.35,1.1-.48c2.57-.1,6.51-1.46,9.99-1.62l14.43-.66c1.05-.05,2.54-.09,3.66-.03l18.07,1.04,10.01.87,14.4,1.64,6.56.83,8.46.69,6.91-.37Z"/>
    <path class="st34" d="M168.55,145.46c-.16.58-.73,1.08-1.53,1.07l-10.56-.09c.12-.26.45-.47,1.01-.47l6.99-.06c1.49-.01,2.77-.56,4.09-.45Z"/>
    <path class="st83" d="M172.02,148.54c-.99.65-3.7.45-7.08.93.19-.54.72-.99,1.54-.98l5.54.05Z"/>
    <g>
      <path class="st30" d="M36.05,125.05c.19,1.39-.65,1.36-1.82,1.28-.5-.17-1.26-.56-1.83-.67.11-.8,1.6-.21.98-.31-2.77-.45-6.22-1.98-8.44-3.69-1.63-1.26-6.88-7.58-6.91-9.47-.05-2.65,4.59-1.32,6.23-.65,5.19,2.11,9.75,6.49,10.97,12.05.78.19,1.03.59.82,1.47Z"/>
      <path class="st52" d="M97.87,45.59c.78-.23,1.53-.4,1.58.61-.49.26-1,1.1-1.94.68-1.11.15-2.83,1.09-1.06,1.13.8,1.24,2.53-.73,6.51-1.13,2.31-.29,4.48-.76,6.51-1.4l.56-.13c1.53.15,3.1.17,4.71.08.52.82.16,1.46-.63,1.98-3.76.56-7.54.9-11.32,1.03l.16.72c-1.63.47-3.26.79-4.92.96-.29.81-1.1.76-2.03.81-3.46.19-6.22,1.94-9.06,3.53s-5.75,3.26-8.43,5.06c-1.21.86-2.17-.17-1.48-1.46.63-1.58,2.14-2.5,3.89-3.19l2.04-1.84c3.6-1.72,7.06-3.33,10.2-5.87.66-.53.86-1.61,1.81-1.74.28-.8.6-1.55,1.43-.87.63.14,1.1.53,1.46,1.06Z"/>
      <path class="st0" d="M42.49,96.55c.39.98.14,2.29,1.53,3.03-.08-1.27.11-2.24,1.01-2.59,2.03-.68,2.97,1.53,2.27,2.93.5,1.09.27,2.43-.67,4.01l-1.78,8.53c-.26,2.57-.21,5.08.15,7.52,1.9.65.68,6.62-1.45,3.07-.25-1.19-.69-2.44-.81-3.73l-1.68-17.83c-.14-1.46.12-2.72-.5-3.94-1.04-2.72.48-2.96,1.93-1.02Z"/>
      <path class="st40" d="M101.57,60.39c-.41.63-3.51.87-3.56-.42-1.79.39-3.63.72-5.53,1,.45.22.89.42,1.31.6-.2,1.17-1.37,1.91-3.51,2.23-2.89.75-5.81,1.33-8.74,1.74,3.24.66,6.55,1.06,9.93,1.21l.84.82c1.43-.37,1.54.02.72,1.21-1.01.26-2.07.71-3.65.45l-6.21-1c-3.59-.58-6.67-.9-10.19.16l-4.96,1.5c-1,.16-1.22-.16-.67-.97-.37-.58,1.73-1.31,2.5-1.55.19-.06.41-.01.64.06.37-.64,1.22-1.08,2.56-1.35.45-.7,2.08-.95,2.89-1.06,1.59-.56,3.09-1.26,4.5-2.1,2.48-1.09,4.36-2.58,7.5-2.66,1.35-.04,2.97-1.18,4.43-.99,4.68.62,8.43-.54,9.19,1.12Z"/>
      <path class="st109" d="M61.64,72.56c-.18.05-.51.29-.62.45-1.18.41-1.97,1.25-2.35,2.52-2.48,2.94-3.96,6.39-5.77,9.89l-4.73,9.14c-.82.59-1.27,1.47-1.35,2.66-.99.43-1.58.36-1.78-.21l2.73-8.23c1.97-3.17,3.52-6.53,4.33-10.21-.15-.8-1.24-2.27-.71-3.05-.2-.81-.27-1.94.18-2.58.17-.46.92-.8.98-.62.19.58.62,2.95.73,3.7.02.15-.06.32-.17.49-.06.38-.22.84.05,1.49,2.94-2.48,4.01-5.21,7.55-8.19,2.24-1.6,3.64-.69,1.18,1.5.24.55.16.96-.24,1.24Z"/>
      <path class="st8" d="M39.57,126.52c1.38-.38,2.78,1.18,3.92,1.87.95-.31,1.76,1.33,1.58,2.15.56.49,1.11,1.15,1.66,1.98l.31-.56c-1.33-3.65,2.42-2.68,2.97.48.65,1.87,1.31,2.56,1.96,2.06,1.07,2.32,1.36,4.56,3.28,6.82.59.69.65,2.66,1.96,3.07,2.27.7,4.69-.25,6.78-.33-.46,1.79-4.3.28-8.5,1.74.12.97.1,1.43-.06,2.16-1.27-.41-2.38-.53-3.43-.18-.2-1.06,1.88-.31,3.05-2.03-.99-.99-2.36-2.28-2.95-3.76-1.58-3.99-4.61-6.24-7.7-8.93s-6.17-5.37-10.16-6.72c.41-.79,1.14-1.02,1.82-1.28l.53-.43c.93.7,1.92,1.33,2.99,1.9Z"/>
      <path class="st118" d="M39.57,126.52c-1.47.41-2.57-.77-3.52-1.47-.42-.3-1.69-.55-1.73-1.24-.11-1.6-.79-2.4-1.49-3.64-3.26-5.8-10.32-10.07-13.53-8.74-1.47.61,3.13,8.49,9.03,11.28,2.07.98,3.75,2.12,5.88,2.47-.67.92-1.45.31-1.81.49-9.27-1.68-10.94-6.34-14.88-12.71-.51-.82-1.26-1.64-.75-2.47.28-.47,1.54-1.17,2.14-.85,2,1.06,6.28.28,12,4.94,3.22,2.63,4.51,6.46,6.68,9.84.5.78,2,1.13,1.99,2.09Z"/>
      <path class="st45" d="M115.51,44.55c1.05.54.06.46.12.46,2.47-.04,5.25.05,7.7.37.11.01.19.3.26.66,2.54.76.41,2.1-1.37,2.76l-5.68,1.56c-.49-1.65-2.25-.79-3.35-.18-2.05.51-3.45.28-4.2-.71-1.76.43-5.28.53-6.2-1.05.4-.34,3.75-1.18,6.25-1.46l5.51-.62c-1.6-.91-4.01.38-4.51-1,1.7-.41,3.71-.77,5.47-.78Z"/>
      <path class="st21" d="M108.08,40.64c-.31.25-.48.21-.56-.19-1.35.46-1.85-.11-.99-1.3-1.19-1.2,2.03-3.97,3.62-3.72-.12-.92-.87-1.29-2.25-1.1l-.28-.71-.44.93c-3.76,2.76-6.95,5.99-9.57,9.68l-1.19.29c-.36.29-.99.81-1.43.87-.22-3.26,2.75-5.62,4.65-7.77,3.12-3.53,6.88-5.38,11.62-6.05.85-.12,1.59-.89,2.36.11s.09,1.48-.49,2.37c-1.64,2.48-2.95,4.79-5.04,6.58Z"/>
      <path class="st119" d="M47.44,122.04c.6-1.19,1.07-.97,1.41.66.91.02,1.77.47,2.57,1.34.19-.97.56-1.15,1.6-.95-.75-1.34,1.51-2.66,2.81-2.63.84-1.01.99-.8,1.08.47l-1.36,2.63c-.91,1.75-3.16,2.49-4.16,4.4-.35.66.03,2-.97,2.49-.64.69-1.41.48-2.31-.63-1.47.3-2.63-.85-3.48-3.45-.24-.08-.43-.38-.59-.89l-.5-2.41c.8.5,1.71.19,1.98-.87.18-.72.11-1.65-.53-2.21-.43-.14-.35-1.14,0-1.5.84.49.75,1.44.96,2.5l.99,4.83c1.02-1.47.23-2.65.48-3.79Z"/>
      <path class="st80" d="M41.96,87.38c-.56,2.43-1.54,2.46-1.22-.1l-.55-.36c.14-1.41-.07-2.55-.62-3.42.23-3.27-1.05-6.53-3.44-8.78-1.22,1.11-2.53.19-2.84-1.3l-.83.45c-.18,2.25-.59,4.39-1.21,6.42l-1.18.26c-.39-3.61.75-7.71,1.86-11.63,4.46,1.66,7.88,5.14,9.38,9.44.71,2.03,1.88,3.65.96,5.97-.38.96-.19,2.19-.3,3.04Z"/>
      <path class="st69" d="M38.58,83.97c.76.8.25,1.24-.67.6l-1.03.98c1.35,3.57.74,4.94-1.83,4.1-1.45-1.46-2.58-3.19-3.38-5.19l-.51.56c-.71-1.31-1.61-3.13-1.08-4.47l1.64-4.19c.38-.98.48-1.77.75-2.5.75.72,1.53,1.51,2.36,2.38.85,2.1,1.46,4.28,1.86,6.53.94.14,1.57.53,1.91,1.18Z"/>
      <path class="st46" d="M55.47,91.48c.68-.77,1.18-.81.82.13.71.2,1.2.46,1.48.76,2.87-.76,5.73-1.4,8.7-1.63.35-.03.54.43.56.91.6-.65,1.01-.98,1.1.03-1.83.91-3.77,1.22-5.83,1.75l-5.93,1.53c-3.06.79-5.95,2.66-7.34,5.09-2.03,1.82-2.4-.78-.46-1.99.4-2.69,4.08-3.46,5.89-6.65l1.02.08Z"/>
      <path class="st65" d="M75.07,39.47l.73,1.17c-.64,2.6-.62,5.15-.25,7.78.21,1.51.6,3.61,2.06,3.99.26-.44.43-.41.5.1-1.14,1.85-2.14,3.89-3.81,5.43.27,1.12-1.59,2.16-2.62,2.47-.12.97-.52.88-.61-.13-1.38.27-.96-.54-.16-1.34,1.22-3.6,4.38-4.58,3.33-6.86-1.35-2.94-1.56-10.12-.11-13.62.68-.34.99,0,.92,1.01Z"/>
      <path class="st24" d="M126.68,45.98c-2.01,4.3-9.3,5.43-14.68,5.02-2.17-.16-4.36.15-6.05-.9.81-.3,1.82-.51,3.03-.63.92,0,2.34.53,3.44-.03,1.37-.7,3.21-1.74,4.49-.43.16.16.2.83.37.86.48.07.54-.4.77-.79,1.18-2.04,6.73.09,5.54-3.04.38-.73,1.41-.75,3.09-.06Z"/>
      <path class="st88" d="M101.57,60.39c.76.02,2.69.71,2.15,1.67-2.28,4.05-6.74,5.72-10.69,6.72-.32-.5-.46-.84-.72-1.21l.7-1.27c2.52-.64,4.44-1.82,5.76-3.55-2,.18-3.66-.21-4.97-1.18h-1c-.18-.01-.38-.3-.31-.6,1.89-.23,3.73-.57,5.53-1,1.13-.02,2.48.4,3.56.42Z"/>
      <path class="st117" d="M37.91,84.57c.44.09.71.3.76.7.32,3.03.55,5.03,1.93,7.64-.11,2.73-1.32,2.36-2.26.15-3.25-1.66-5.63-4.72-7.18-8.03-.25-.54-.57-1.7-.02-3.11l2.67,5.2c.42.82.62,1.23,1.2,1.64.47.33,2.08.38,1.8-.4l-1.39-3.98c1.01-.24,1.78.13,2.5.19Z"/>
      <path class="st41" d="M71.08,60.29c.75.68-1.25,7.11-1.55,7.4-.6.58-2.9.79-3.11-.17-.81,1.96-3.98,3.24-4.04.9.74-.62,1.91-2.09,2.29-3.05.64-1.62,2.16-1.83,2.81-2.76,1.06-1.52,1.86-2.91,3.44-3.64l.16,1.34Z"/>
      <path class="st85" d="M40.73,87.28c.15.26.24,1.02.5,1.19.22.15.18-.59.73-1.09-.42,3.14-.66,6.16.53,9.18-.65.08-1.31.03-1.91-.67l-.02,1.69-2.23-4.52c.22.11.37.35.73,1.34.7-.46.57-1.38.44-2.1-.1-.56-.85-1.04-1.76-1.07.47-.8,1.08-1.26,1.28-1.75-.79-1.65-1.24-3.24-1.1-4.9l.67-.6c-.29-.48-.24-1.02.26-1.18,1.96-.64,1.19,6.15.94,7.42-.04.18-.3-3.77.95-2.93Z"/>
      <path class="st58" d="M57.95,108.98c1.04-.15,1.14.36.53,1.13.92,1.03.33,1.38-1.76,1.04l-1.21.44c-.01,1.09-.56,2.23-1.64,3.43l-2.41,5.79-1,.6c.46,1.69-.19,2.52-1.71,1.33-.83-.65-.45-3.52.33-4.19.17-4.56,4.61-7.45,8.88-9.57Z"/>
      <path class="st56" d="M47.53,55.01c.64.57,1.36,1.5.38,1.78-.54,4.55.22,8.63,2.3,12.23l-.28,1.2c.35-.14.64-.22.72-.13.23.26,1.17,2.54.92,2.84.28.42.47.88.51,1.35.05.6-.46.89-.69,1.23l-1.73-2.72c-1.28-2.08-2.71-3.99-3.18-6.22-.91-2.36-1.12-4.92-.63-7.68l1.02-4.31c.55-.82.93-.56.65.41Z"/>
      <path class="st69" d="M53.11,76.51c-1.31-1.41.19-3.05-1.54-3.58-1.25-.38-1.05-2.09-1.64-2.71-.41-1.48.59-1.95,1.61-.77l.23.25c-.07-2.34.01-4.6.23-6.76.47-.19.88-.71,1.22-1.57.23.75,1.07,1.16.84,2.69-.31,2.13.46,4.63-.42,6.77-1.99,4.86,1.67,5.47-.54,5.68Z"/>
      <path class="st47" d="M53.22,61.37c.44,2.86.51,5.82.02,8.68-.47-2.64.1-5.03-1.24-7.12-.67-1.57-1.34-3.22-2.02-4.93-1.14-.95-1.96-1.95-2.46-3-.21-.07-.42-.28-.65-.41.15-.63,1.08-2.03,1.83-1.34,2.44,2.23,3.67,5.3,4.52,8.12Z"/>
      <path class="st55" d="M80.08,40.43c.79,3.33-.86,4.52-.89.41l-1.1-.32c-.63-4.38-1.26-4.84-1.89-1.39l-1.14.34c-.38-.19-.63-.52-.92-1.01.96-2.32,1.79-5.96,2.62-5.94.5.01,1,.22,1.28.87,1.45,2.26,2.18,4.59,2.03,7.03Z"/>
      <path class="st13" d="M76.1,59.13l.24.69c-1.74,1.55-3.52,3.1-5.37,4.64-.12.36-.24.9-.49,1.19.71.47.71,1.06,0,1.78-.22,1.36-1.55.78-3.14,1.49l-.15.63c-1.75.34-3.28,1.04-4.61,2.09.04.28-.06.67-.33.74l-.63.17c-.24-.4-.66-1.22-.39-1.56.42-.52,1-.82,1.54-1.4-1.11-.83-1.51.07-2.08.21l1.67-1.41c.37.9,1.19.88,1.88.78.9-.14.06-2.04,3.63-4.2.09,1.02-.31,1.62-.73,2.5,1.83.35,2.33-.65,2.62-1.84l1.3-5.36.61.13c.72-.09.45.64.18,1.17-.13.26,2.07-4.49,4.23-2.47Z"/>
      <path class="st87" d="M50.42,130.45c-.1,1.53.91,2.69,1.54,4.06-.01.71.31,1.48-.13,2.55-1.34-2.2-2.76-4.16-3.66-6.91-1.17.58-.94,1.25-1.14,1.82-.94.36-1.46-.49-1.55-2.53-1.63.05-1.16-1.87-.85-3.06.85.22,1.06,1.5,1.87,2.19.98.83,3.22.96,3.91,1.89Z"/>
      <path class="st63" d="M107.52,40.45l.56.19c-1.05.9-1.8,1.92-3.31,2.72l-5.32,2.84c-.65.14-1.19-.48-1.58-.61-.14-.19-.26-.38-.31-.59-.09-.37,5.07-3.8,5.98-4.31.33-.19.81.3,1.04.73.74-.76,2.12-1.89,2.94-.97Z"/>
      <path class="st103" d="M49.07,118.55l-.15,3.95c1.02-.01,1.24-.72,1.53-1.1,1.62.1,2.47.66,2.57,1.68-.85.77-.58,2.88-2.39,3.31.46-1.53-.47-2.39-1.71-2.97-.4-.28-.72-1.51-1.48-1.4l.59-2.61c.08-.33.17-.7.32-.81.18-.13.53-.11.72-.07Z"/>
      <path class="st100" d="M48.16,94.55c-.6,1.16-.9,2.39-.69,3.8.56,0,.83-.14,1.09-.3.01.63-.23,1.22-.68,1.81.61.3.87.16,1.14.18l-2.38,3.91c.29-1.41.49-2.75-.24-4.32.48-.42.46-.75.62-.96.3-.4-.69-1.31-.92-.77-.36.82-.31,1.43-1.02,1.72l-.04-2.61c2.29-.04,1.24-2.78,3.13-2.44Z"/>
      <path class="st41" d="M78.51,59.5c-2.84,1.9-5.07,4.19-7.53,4.96.82-2.41,3.35-3.57,5.12-5.33-1.02,0-1.01-.46,0-.73l.93-.36,1.48,1.46Z"/>
      <path class="st82" d="M126.68,45.98l-3.09.06-7.05-.59c-.33-.03-1.33.12-1.46-.12-.12-.22.31-.62.42-.78l4-.03c2.67-.02,5.27.13,7.17,1.46Z"/>
      <path class="st107" d="M102.79,48.42c1.83.06,2.78,1.02,6.2,1.05-.76.9-2.01.64-3.03.63h-7.92c-.76-.3-.17-.99.38-.61,1.8.13,3.23-.11,4.38-1.07Z"/>
      <path class="st120" d="M58.93,116.71l-2.02,4.21c-.31-.05-.65-.18-1.08-.47-1.38-.41,1.2-5.86,1.64-6.32l1.19-.23c.73.28.82,1.21.26,2.8Z"/>
      <path class="st111" d="M60.06,112.1c.05,1.67-.42,3.13-1.13,4.61.09-1.01-.29-1.89-.26-2.8-.95-.16-1.09-.57-.96-1.4-1.06.03-1.8-.28-2.2-.92.51-1.15,2.48-.14,2.97-1.48.88-.76,1.41-.1,1.59,1.99Z"/>
      <path class="st54" d="M67.36,68.92c.44.19.69.53.67.97-1.82.55-3.52,1.49-5.43,1.75-.19-1.47,2.23-2.28,4.76-2.72Z"/>
      <path class="st62" d="M74.31,57.95c.42.7,1.24.67,1.8.45-.03.19-.06.49,0,.73-1.9.02-3.34,1.33-4.4,2.92-.27-.7-.07-1.21-.02-1.62.61-1.14,1.79-1.71,2.62-2.47Z"/>
      <path class="st9" d="M97.52,46.87c-.19.52-.58.92-1.06,1.13-.68.3-1.2,1.12-1.89,1.5-.37.2-.99-.13-1.06-.32-.13-.34.11-.73.62-1.12l1.98-1.55c.31-.24.81-.21,1.09-.16.21.04.46.23.33.53Z"/>
      <path class="st110" d="M44.64,126.37c.15.99.31,2.18.85,3.06.87,1.3.67,2.94-.42,1.11-.66-.63-1.21-1.32-1.58-2.15.97-.71.76-1.94.56-2.91.3.18.53.51.59.89Z"/>
      <path class="st20" d="M45,118.5v1.5c.11.58-.53.56-.51.12.07-2.84-.15-5.22.36-7.64l.14,6.02Z"/>
      <path class="st32" d="M46.48,66.58c-1.41-.58-1.3-4.87-.63-7.68.21,2.61-.16,5.21.63,7.68Z"/>
      <path class="st19" d="M80.45,62.92c-.79,1.77-2.8,1.87-4.5,2.1.99-1.6,3.11-1.49,4.5-2.1Z"/>
      <path class="st43" d="M73.06,66.09c-.64,1-1.41,1.4-2.56,1.35-.46-.18-.55-.64-.41-1.11.08-.25.2-.43.41-.67.73.52,1.62.57,2.57.43Z"/>
      <path class="st45" d="M109.48,45.47c-.02,1.35-2.43.99-6.51,1.4.77-1.72,3.51-.21,6.51-1.4Z"/>
      <path class="st13" d="M61.02,73c-.29,1.13-1.75,1.81-2.35,2.52-.16-.78-.08-1.56.22-2.07.51-.86,1.37-.86,2.14-.45Z"/>
      <path class="st104" d="M60.06,112.1c-.5-.69-.65-1.63-1.59-1.99-.36-.14-.55-.73-.53-1.13.44-.22,1.41-.11,1.99,0,.43,1.23.1,2.2.13,3.13Z"/>
      <path class="st92" d="M107.61,33.63c.51.61,1.34.95,2.48,1.02l.06.78-3.62,3.72c.11.82-.54,1.58-1.95,2.27-.85-.07-1.2.91-1.82,1.28l-4.89,2.89c-.51.09-1.27.73-1.88.19.53-.4.45-.89.41-1.25.91-2.74,3.46-4.86,5.7-6.89l3.7-3.36c.54-.49,1.12-.86,1.79-.65Z"/>
      <path class="st44" d="M92.31,67.57c-3.6,1.05-7.08-1.14-9.36-.77-.69.11-1.67.04-2.08-.39-.31-.32-.46-1.02-.7-1.73l4.04-.46c1.97-.8,3.79-.72,5.77-1.38l3.81-1.28c1.51-.51,3.06.31,4.63.16.97-.1,1.82-1.09,3.3.17-1.85-.24-2.11,1.99-3.08,2.69-1.89,1.36-4.14,2.33-6.33,2.98Z"/>
      <path class="st71" d="M98.01,59.97c-.13.61-.64,1.08-1.48,1.07l-4.04-.07c.13-.52.87-.91,1.59-.92l3.93-.08Z"/>
      <path class="st4" d="M47.03,131.97l1.19,1.23c.39.4.21.84-.16,1.1-.2.15-.44.14-.56-.05-.99-1.52-2.79-1.87-2.44-3.71.25.2.75-.04.73-.29-.02-.27-.25-.64-.31-.82l1.55,2.53Z"/>
      <path class="st97" d="M110.15,35.43c-.59-.39-1.29-.35-2.2-.42-.58-.05-.57-1.07-.33-1.38,1.05.34,2.74-.3,3.68-.32.67,1.21-.74,1.71-1.14,2.12Z"/>
      <path class="st86" d="M107.52,40.45c-.94.34-1.92,1.05-2.94.97-.07-1.19,1.22-1.52,1.95-2.27l.99,1.3Z"/>
      <path class="st39" d="M58.67,113.91l-2.83,6.55c-.56,1.35-1.87,1.78-2.81,2.63l-2.57-.7c-.19-.36-.1-.74,0-.99-.19-1.34.97-2.66,1.42-4.05.72-2.23,1.66-4.45,3.64-5.76.61-.39,2.04-.23,3.24-.02l-.08,2.34Z"/>
      <path class="st98" d="M40.73,87.28c-.5.73-.37,1.54-.95,2.93-1.34-3.49.85-7.82-1.2-6.24-.78.14-1.84.09-2.49-.27-.74-.41-.77-4.49-2.45-7.54-.95.89-.46,1.81-.76,2.46l-.43-.37v-4.37c.23-.62-.55-2.43,1.04-2.25.46.78.78,2.54,1.78,2.87l.45-1.46c3.15,2.52,5.07,6.14,4.83,10.47-.07,1.16.84,2.8.17,3.78Z"/>
      <path class="st29" d="M60.98,89.18c.45.48.92.95,1.42,1.4,1.44-.27,2.75-.79,3.94-1.57l1.12.57c.48-.26.96-.48,1.61-.33-.75.4-1.69,1.51-2.03,2.4-2.22-.59-4.13-.08-6.33,1.04-1.01.51-2.79.15-3.91,1.42-1.14.03-1.31-1.31.24-1.34l-1.55-1.28c1.29-1.13,1.47-2.86,3.05-2.89-.46.9-.9,1.75-2.06,2.65,1.82,1.04,2.21-1.49,4.52-2.06Z"/>
      <g>
        <path class="st23" d="M76.02,80.46c.36.24.4.51.01.71-1.24.38-2.07,1.09-2.47,2.13-4.24.53-8.19,1.66-11.86,3.4-1.06,1.14-2.12,1.76-3.18,1.88-1.36.92-1.94,1.91-1.75,2.97l-1.3-.08c-.27,1.31-.73,1.22-1.02-.08,1.58-2.79,3.56-6.04,6.49-7.84,2.32-1.43,4.91-3.17,7.53-3.15l7.54.05Z"/>
        <path class="st61" d="M76.03,81.17c0,.54-.98.97-1.26,1.54-1.43,2.85-3.11,5.13-5.7,6.53-.67.37-1.21.48-1.61.33-.83-.24-1.65-.74-2.46-1.49l-1.62.4c0,1.29-1.66,1.8-2.4.7l-1.05.73c.46,2.09-3.57,3.31-3.93,1.42-.03-.18,2.08-2.42,2.52-2.74,1.37-2.7,4.39-3.64,7.34-4.84l7.15-1.09c.5-1.52,1.72-1.87,3.03-1.49Z"/>
        <rect class="st79" x="66.5" y="82" width="5.25" height=".5"/>
      </g>
      <path class="st32" d="M49.99,58.01c-.35.16-.73.39-.74.74-.02,1.28.11,6.77,2.06,6.4.86.97.72,3.09.23,4.31-.51.12-1.01.33-1.61.77-2.62-2.73-2.87-6.91-2.64-10.82l.24-4.39c1.19.37,2.41,1.64,2.46,3Z"/>
      <path class="st96" d="M52,62.94l.23,3.02c.14,1.89-.32,3.5-.28,5.63-.79-.63-.45-1.47-.41-2.14.09-1.48-.14-2.85-.23-4.31-.87-.03-1.16-.7-.85-2.02-.74-1.42-2.03-4.26-.48-5.12,1.68.72,1.89,3.19,2.02,4.93Z"/>
      <g>
        <path class="st112" d="M68.13,91.67l-1.1-.03c-1.41-.91.85-2.03,2.03-2.4.27-1.21,1.11-2.33,2.52-3.36,1.14-2.28,2.62-3.85,4.44-4.71v-.71c2.23.01-1.96,8.24-7.9,11.22Z"/>
        <path class="st1" d="M67.46,89.58c-1.55.85-3.3,1.17-5.06,1-.3-.86.55-1.52,2.56-1.98-.57.41-1.35.66-1.58-.12,1.01-.63,2.07-1.19,3.49-.97l.59,2.07Z"/>
        <path class="st3" d="M63.38,88.48c.63-.11,1.34-.46,2.18.25l-3.15,1.85c-.67-.06-1.43.39-2.49-.05.15-.84.85-.88,1.08-1.35.74-.18,1.76-.3,2.4-.7Z"/>
        <path class="st48" d="M70.51,84.75c-.5.78-1.89,1.64-2.41,1.16-.79-.73.02-1.51.65-1.54.74-.04,1.34-.14,1.76.38Z"/>
      </g>
      <path class="st69" d="M49.99,58.01c-.1,1.44.33,2.86,1.2,4.28.6.98.08,2.08.13,2.86-.37.67-.95.76-1.41.6-.69-.23-.97-.89-1.03-1.7l-.5-7.37,1.61,1.33Z"/>
      <g>
        <path class="st90" d="M78.12,52.52c-.27-.12-.41-.13-.5-.1-1.25-.23-1.25-1.42.01-3.56l.52-7.38,1.05-.63c.15.62.24,1.27.54,2.2.47-.83.25-1.73.35-2.61,1.62,4.03.21,8.55-1.97,12.1Z"/>
        <path class="st37" d="M79.2,40.84l-.55,7.88c-.08,1.31-1.36,2.45-1.03,3.7-.88.27-1.09,1.11-2.55,1.82.86-1.78.3-2.6-.15-4.15-.97-3.39-.76-7.4.16-10.62.45-1.57.87-3.06,1.87-4.86,1.73,2.04,1.77,4.21,2.26,6.23Z"/>
        <path class="st26" d="M77.5,47.51c-2.34-.74-1.85-4.36-1.09-8.25,1.02,2.76.7,4.97,1.09,8.25Z"/>
      </g>
    </g>
    <g>
      <path class="st99" d="M184.77,123.99c1.31.25-.23-1.26,1.45-3.53,2.6,4.32,4.87,8.9,6.2,14.09l.23,2.29c.73,1.43,1.09,2.73.3,4.23-1.87-.61-2.31-2.36-2.94-4.05l-2.26-6.05c-.54-2.76-1.92-4.77-2.98-6.99Z"/>
      <g>
        <path class="st38" d="M186.22,120.46c.33,1.48.5,5.22-1.45,3.53-.82-1.71-2.11-2.86-3.34-4.38-3.45-4.25-7.84-6.24-13.15-7.09-6.83-1.1-11.98,1.31-18.09,4.76-.44,1.92.81,3.43,1.35,5.08,1.8,5.55,2.25,11.26,2.03,17.04-.04,1.04-1.32,2.02-2.03,1.5l-.85-7.83c-1.04-9.59-3.95-17.53-11.67-23.17-3.36-2.46-7.54-4.02-12.16-3.2-12.72,2.25-19.74,15.6-21.44,28.2-.13.98-.57,1.39-.95,1.83-.24.28-1.58.28-1.58-.14,0-7.88,2.77-14.84,6.95-21.66l-5.55-1.68c-5.31-1.6-16.66,2.5-21.08,7.34-2.48,2.72-3.91,5.94-4.91,9.26l-2.35,7.77c-.37,1.22-1.71,1.16-2.69.47-1.07-.76-.28-1.72-.03-2.78,1.31-5.58,3.57-10.21,6.56-14.95,3.39-5.36,9.17-7.72,15.72-9.21-4.4-2.3-8.12-5.04-8.59-9.04-.74-1.95-.72-3.65.07-5.1-.02-6.39,5.33-10.86,11.94-10.77,4.01.06,7.66,2.69,9.62,5.65,3.68,5.57,2.92,14.13-3.76,18.36,1.78.8,3.6,1.63,5.67,1.72,3.71-1.19,4.21-4.57,9.32-6.16l6.43-2c-.47-1.58-1.47-.99-2.29-1.04-2.46-.15-4.25-2.01-5.96-3.81-3.16-3.34-3.95-8.08-2.75-12.87.89-3.54,3.87-7.82,8.1-9.2,8.13-2.65,16.74,2.35,18.13,11.27,1.14,7.29-3.95,13.56-10.71,15.7,7.73,1.46,13.95,5.23,17.6,11.85,3.69-2.67,7.94-4.45,11.86-5.5-6.7-1.5-9.1-7.16-8.31-13.71.83-6.89,6.67-11.33,13.73-10.66,5.36.51,9.54,5,10.68,9.71,1.39,5.79-.89,10.4-5.76,14.44,6.8.87,12.7,5.5,15.69,10.48Z"/>
        <path class="st70" d="M86.99,96.99l-.07,5.1c-1.56-2.16-1.27-5.56.07-5.1Z"/>
        <circle class="st81" cx="128.01" cy="90.03" r="10.67"/>
        <circle class="st81" cx="164.07" cy="98.73" r="9.85"/>
        <path class="st81" d="M103.27,107.51c-2.34,1.57-4,1.55-6.49.86-3.98-1.1-6.81-4.38-7.33-8.17-.61-4.5,1.44-8.46,5.43-10.28,2.59-1.18,4.55-.96,6.91.19,3.7,1.79,5.92,4.66,5.96,8.89.03,3.59-1.43,6.47-4.48,8.51Z"/>
      </g>
    </g>
    <g>
      <path class="st42" d="M190.06,65.4c.88.38,1.88.81.98,1.6l-.41.21c2.4-.35,4.03.26,4.89,1.82.24-1.74,1.49-.92,2.47-.06,1.45-.03,2.13,1.8,3.17,2.84,1.3,1.32,2.76,2.28,3.5,4.07.29.71.9,1.09,1.51,1.12.68,0,.89-.45.62-1.34,2.49-2.72,2.19,1.02,1.71,3.16l.61.63c.08,2.96,1.59,5.67,2.12,8.74l1.76,10.24c-.81,1.07-1.14,2.48-.98,4.23.79,6.38,1.32,12.8,1.59,19.24.07,2.14-.55,3.21-1.85,3.22.49-4.31.64-8.47-.57-12.76-1.27-4.5-2.06-9.26-5.01-12.99l-2.88-3.63c-1.29-1.63-2.97-2.88-4.92-2.84-.24-.96.43-1.58,2.01-1.87,1.53,1.06,3.06,1.99,4.58,2.8,2.78,2.13,3.3,5.95,4.95,5.49.3-.49.05-1.79.05-2.3.59-.76.99-3.34.02-2.4-.77-.56-.7-1.62-.88-2.61-1.53-8.34-5.79-15.64-12.72-20.38-2.21-1.51-4.19-3.4-6.84-3.14-.86-.21-1.35-.4-.52-.98-.7-.15-1.36-.32-1.99-.51-.63-.16-.78-.65-.43-1.49l2.93-.51c.59-.76.88-.53.55.41Z"/>
      <path class="st22" d="M194.86,83.53c.27-.2.49-.34.54-.3,1.8,1.61,3.47,3.38,5.01,5.25,1.06.39,1.33,1.02.4,1.72l.57.05c.87.97,1.62,1.39,2.27,1.26.79.59.85,1.69,1.3,2.31-1,1.73-1.51-.07-4.07-1.96l-2.52,1.04-5.86-.46c-.8-.06-1.09-.62-1.45-.74-.04-.78,4.02.12,3.82.07-5.01-1.08-6.03-1.52-9.67-5.5-.64-.71-2.45-2.93-2.86-3.74-.56-1.11-.54-1.14.67-1.69,3.4-1.55,7.62.92,10.24,2.88.72.29.97.17,1.62-.2Z"/>
      <path class="st15" d="M159.9,59.55l.71.95c2.13.21,4.27.37,6.4.48-.08-.77,1.25-.69,1.54-.03.42.2.39.39-.06.55-.34.42-.89.51-1.64.28,1.96.36,3.83.45,5.6.28l.49-.51,7.42,3.2.12.64c.51.35.87.67.57,1.18-.08.13-1.33,1.09-1.52.96-.06.26-.13.46-.22.48-2.86.44-6.17.43-8.89-.39-.32.83-1.21,1.05-2.65.66-1.8-.96-3.57-1.57-5.3-1.84l-5.67-5c.61-1.21,2.06-1.86,3.11-1.89Z"/>
      <path class="st68" d="M212.36,70.04c-1.43,3.12-3.46,2.11-3.27,9.42-.34.1-.67.21-1.04.43s-.95-.19-1.08-.81c1.09-.57,1.48-1.42,1.35-2.81.43-1.01-1.13-1.06-.77.01.2.6.2.98.2,1.43,0,.28-.73.62-1.1.06l-.51-.76-.15-1.98c.04-.74.29-1.47.75-2.19-1.25-.09-2.11-2.26-.82-2.81-.05-.61.33-3.94.53-3.94.24,0,.48.2.71.45l.56.36c-.66,3.79-.65,3.54.03-.77h-.64c-.57-.25-.81-.95-.71-2.1l-.4-1.17c-.56-2.68.52-5.55,3.16-6.62.5-1.39,1.22-2.24,2.18-2.57,2.8,4.36,2.1,10.32.88,15.3l.14,1.05Z"/>
      <path class="st27" d="M185.47,56.42c-1.39.77-.04,2.17.65,1.6.92.56,1.59,1.63,2.35,2.29l-.1.83c.58.15,5.43,4.36,5.29,4.81-.28.92-3.02.34-3.6-.56l-.55-.41c-.68.61-.99.39-.58-.45-3.62-2.76-7.08-5.57-11.39-7.56l-2.61-1.9c-.7-.56-.99-.87,0-1.02l1.32-.35c1.7,1.7,2.99,1.65,3.88-.15l.9-.96c-.27-1.45,1.38-1.56,1.88-.22.33-1.11.89-1.58,1.68-1.41-.09,1.89.16,3.68.88,5.45Z"/>
      <path class="st33" d="M182.95,36.96c-.47.46-.36,1.02.34,1.69.72,1.59.64,2.58-.25,2.96-.59,1.04-1.46-.97-1.39-1.06.33-.46,1.15,4.65,1.17,5.23,1.25.74,1.81,3.09.23,3.72,1.28-.04.79,2.27-.15,2.88l-1.88.22c-1.08-.1-1.9-2.91-2.14-4.25-.64-3.54.58-.75-.29,1.17-1.12-3.02-1.25-6.64-.74-10.57.16-1.18-.03-2.22,1.11-2.61.85-1.4,1.65-1.73,2.39-.97l.58-.35c.62.54.67,1.31,1.01,1.95Z"/>
      <path class="st49" d="M148.99,45.55l.57-.32c2.62.93,5.46,1.28,8.51,1.05l.35.64c.74.65,1.26.68,1.56.12.74-1.27,3.46-.25,1.46.86.2.31.48.61.84.89-2.68,1.01-7.28.34-10.32-.35-.82.88-2.09,1.08-3.81.61-2.13-.74-4.23-.98-6.29-.71-.98-.12-2-.61-2.84-1.17-.26-1.26-.12-2.07.43-2.42.97-.51,8.24.13,9.53.81Z"/>
      <path class="st51" d="M212.47,132.13c.83-.13,1.32.19,1.48.96.38.03.39.19.09.45l-5.07,9.02c-.73,1.29-2.01,2.29-1.52,3.9l-1.06-.11c-.6-.06.21-1.9-.15-2.2-.2-.17-.94-.06-1.23-.12,1.86-3.56,4.12-7.06,5.31-11.21.35-1.22.18-2.62,1.01-3.38l-.34,4.09c.82-.19.44-.82.6-1,.17-.18.53-.36.88-.4Z"/>
      <path class="st12" d="M190.03,80.44c.38.12.66.39.85.81,1.33.1,1.85.5,1.56,1.19,1.44-.09,2.25.28,2.42,1.09.06,2.81-3.58-.64-6.27-2.07-1.41-.75-4-.39-5.39-.29-1,1.01.61,1.92.98,2.53,2.1,3.44,4.77,5.6,8.36,7.27,1.69.79,3.42.38,5.52.74-2.32.59-4.7.37-7.03,0-2.74-.88-5.07-3.29-6.96-5.76l-3.45-4.52c3.14-1.75,6.4-1.56,9.41-.98Z"/>
      <path class="st57" d="M149.34,35.06c1.77,1.13,3.92,3.05,3.36,5.31.08.36,4.89,4.27,5.76,4.19.24-2.44,4.07.19,2.44,1.41-.27.47-.72.85-1.33,1.14-.36.62-.92.49-1.13-.21-3.52.34-8.3.44-9.44-1.36-.7-.52-.32-.77.45-.89,1.85.16,3.75,1.46,6.05.27-2.91-1.63-5.41-2.85-6.55-5.44.3-1.6-.19-2.55-1.21-3.75-1.58-3.82,3.35-3.18,1.6-.69Z"/>
      <path class="st115" d="M233.12,116.94c-1.46,5.18-5.28,9.15-10.39,11.35l-6.97,3c-.8.35-.91,2.02-1.72,2.24l-.09-.45c-1.26-.24-.92-3.11.08-3.6,1.67.28,2.66.04,3.85-1.53,1.02-1.88,1.77-2.12,2.27-.72,1.09-1.02,2.19-2.11,3.31-3.27,3.79.21,5.87-3.76,7.35-6.75l1.2-.23c.34-1.38.63-1.43,1.1-.06Z"/>
      <path class="st57" d="M212.48,55.17c-.44-.21-.82-.7-1.14-1.48-1.23,4.73-2.77,3.62-3.58,4.33-1.59,1.38-.09,4.45-1.76,4.86l-.52,1.1c.09.94-.08,1.62-.5,2.03l-.58.37c1.38.31,1.18,3.53-.02,2.62-1.45-1.55-.73-3.87-.29-5.77.88-3.81,2.58-6.63,5.42-9.31.69-.65.79-2.11,2.74-1.29l.24,2.53Z"/>
      <path class="st53" d="M226.56,94.04l-.65-.43c.43-3.59.56-3.87.15-.13-.05.45-.46.46-.97.15-.82-.41-1.04-1.39-.66-2.92l-.85-.25c-.45.77-1.28,1.54-2.11,1.08-.88.66-.92.56-1.06-.52-.38-.31-.73-.82-.5-1.19.81-1.3,2.68-3.98,4.05-4.23l.7-2.54c.65.34,1.31.12,1.99-.64,1.13,3.7,1.08,7.91-.1,11.63Z"/>
      <path class="st67" d="M158.7,39.11c1.36,2.19-2.05,2.15-2.12-.07l-.69.06-1.17.22c-1.7-1.54-3.5-2.96-5.38-4.26-.09-.36-.46-.96-.82-1.42-.53.33-.73,1.74-.33,2.03.92.66,1.44,1.07,1.51,2.07.04.61.02,1.39-.75,1.75l-2.69-6.11c1.86-1.53,4.59-.9,6.3.55l6.13,5.18Z"/>
      <path class="st76" d="M233.12,116.94c-.38-.23-.77-.07-1.1.06-2.44-.21-4.84.53-7.21,2.21l-.84-.82c-.67-.21-.61-.76-.05-1.04,1.1-.55.29,1.19-.37-.42.66-.42,1.19-1.25,2.34-1.68l5.4-1.99c1.07-.39,1.74-1.61,3.24-1.13.19,1.78-1.01,3.38-1.42,4.81Z"/>
      <path class="st89" d="M219.42,94.51c.89-.02.48,1.37-.31,1.34-.16.87-.33.89-.6.04-.66,1.32-.86,3.57-.49,5.08,1.23.33,1.31,1.41.24,3.22l.26.79c.09-.95.52-.93.61.07-1.14,2.09-2.14,4.4-2.74,6.96-.23.96,0,2.04-.88,2.52-.11-1.29.19-2.55.66-3.96-1.14.01-1.56.48-2.1.82-.29-1.14,1.01-1.7,1.19-2.37,1.07.34,1.64-1.94,1.02-2.61l.79-8.88c-.22-1.76-.27-3.46.89-4.48,1.06-.56,1.55-.08,1.48,1.46Z"/>
      <path class="st114" d="M149.45,44.67c.05.28-.07.69-.45.89-3.11-.13-6.59-.4-9.72.09,1.15.84,1.85.91,2.3,1.92l-2.55-.4c-1.21-.81-3.25-.7-3.78-2.92,2.83-.7,5.65-.33,8.44-.08l5.75.51Z"/>
      <path class="st7" d="M158.7,39.11c.59.5,1.74,1.35,1.67,2.3.77,1.45,1.72,2.79,2.87,4.04l-.58.55c-.3,1.41-1.3,1.27-1.76-.02-.09-.59-.4-1.18-.82-1.33-.48-.17-1.26-.05-1.63-.09-1.98.31-5.29-4.61-2.57-5.46.09-.44.22-.88.43-1.06.19-.16.7-.01.78.21l.31.86c.12.33.52.69.81.74.21.04.5-.36.48-.74Z"/>
      <path class="st113" d="M223.96,85.59c-.84,2.59-2.67,3.44-3.55,5.42.52.88.14,3.22-.99,3.49-.58-.39-1.05-.89-1.48-1.46-.06-3.91,2.98-6.78,6.05-9.53.59.45.38,1.45-.03,2.07Z"/>
      <path class="st36" d="M212.48,55.17c1.57,1.17,1.43,2.94,1.5,4.81.15,3.71-.18,6.93-1.62,10.06-.35,0-.85-.06-.92-.31.07.26,1.19-4.21.97-10.73-.06-1.81-1.18-3.49-1.07-5.31,1.16-.18.94,1.09,1.14,1.48Z"/>
      <path class="st91" d="M226.56,94.04c-.08,5.72-6.23,8.79-7.43,11.01-.27-.08-.47-.11-.61-.07-.77-1.5.29-3.39,1.92-3.57.36-1.2.93-1.63,1.7-1.29.8-2,1.44-4.05,1.92-6.13l1.03-.36c.94-.68.83-1.8,1.03-3.23.74,1.16.46,2.46.44,3.64Z"/>
      <path class="st66" d="M188.47,60.32l4.65,4.07c1.72,1.5,3.89,2.59,4.86,4.59l-2.47.06c-.8-1.38-2.29-2.06-4.48-2.04l-.98-1.6c.96-.13,1.64.57,3.05.5l-5.03-4.56c-.37-.34-.65-.53-.34-.84.18-.18.46-.17.72-.18Z"/>
      <path class="st105" d="M183.11,64.66c1.33.33,2.61.71,3.86,1.14-1.32,1.03-5.77,1.28-6.49-.41l-6.25-2.15c-.74-.25-1.17-.95-1.78-1.17-.84.72-3.07.06-3.96-.57l.06-.55.16-.42c1.43.45,2.76.44,4-.04,3.2,1.99,6.42,3.84,10.39,4.16Z"/>
      <path class="st17" d="M151.97,48.43c3.43.68,6.94,1.04,10.53,1.06-.08-1.12,1.49-.92,1.52.1,0,.31-.02.58-.17.71-.45.37-6.75-.06-7.84-.29-6.58.53-10.01-1.16-14.13-1.68,1.54-1.28,3.31-.69,5.24-.05,1.61.53,3.41.04,4.86.15Z"/>
      <path class="st31" d="M160.9,45.98l1.76.02.71-.36c1.55.89,3.11,1.83,4.66,2.81l2.4,1.94c.43,1.53-.75,1.87-3.55,1.03l-.93-.4c-1.43-.18-1.28-.66.02-1.04l-.39-.74c-1.61-.13-2.99-.59-4.13-1.36-.01-.32-.03-.7-.27-.78-.33-.11-.96-.12-1.2-.07,0,.45-.14.47-.42.09.01-.33.11-.72.39-.95.24-.19.63-.19.94-.19Z"/>
      <path class="st76" d="M173.54,51.44c.97.7,1.18,1.44,1.39,2.62v1.02s-8.04-3.65-8.04-3.65c.06-.42.58-.56.86-.47l1.95.63c-.18-1.53-1.08-2.19-1.66-3.13,2.04.45,3.68,2,5.5,2.99Z"/>
      <path class="st28" d="M179.51,51.88c.93-.26,1.73,1.47.62,1.68-.28.84-.46,1.81-.12,3.02-2.21-.08-3.42-1.71-5.09-2.51-.76-.37-2.13-.29-2.43-1.48,1.25-.43,1.83-.15,1.3-.59-.12-.11-.26-.25-.26-.55,1.89,1.03,4.08,1.5,5.87,3.17l.1-2.73Z"/>
      <path class="st2" d="M201.95,89.54c.43,1.35-.1,1.61-1.14.66.11-.16.34-.72.24-.9s-.86-.06-1.04-.25l-5.15-5.53c-.81-.13-1.91-.22-2.42-1.09.06-.69.61-.92,1.64-.7,3.32,1.76,5.77,4.63,7.86,7.8Z"/>
      <path class="st94" d="M170.42,67.61l.91.34c2.14-.15,3.04.24,2.7,1.2l-5.05-.08c-2.6,0-4.76-1.09-6.52-2.63-.67-1.32,2.36-.85,4.4.69,1.09.83,2.52.5,3.55.49Z"/>
      <path class="st5" d="M188.93,64.55l.58.45c.3,1.89-1.74-.02-2.28.99-.18.33-.24.68-.21,1.01-1.65.3-4.37.49-6.18.29-.05,0,.81-.02.73.4-.58.31-1.13.65-2.03.77-.77-.29-.77-.68,0-.92l.94-2.14c1.93.66,4.06.82,6.06.4-1.32-.64-2.48-.25-3.46.1l.03-1.23c1.9.15,4.1.91,5.82-.11Z"/>
      <path class="st72" d="M204.98,66.01c.54-.89.76-.41.97.5.23,1.04.22,2.22-.02,3.53.12.55-.05,1.45.35,2.03.49-.66,1.52-.64,1.68-.27.07.15-.46,3.38-1.96,3.24-.13-1.98-1.85-3.47-1.62-6.03,1.75-.81-1.19-2.23-.21-3.32.16-.17.63.09.81.33Z"/>
      <path class="st95" d="M181.03,52.6c.2.28.28.6.39.79.24.42-.28.81-.62.65-.22-.1-.44-.3-.68-.48.25-.75-.37-1.19-.62-1.68-.29-.59-.86-1.72-.91-2.36-.23-4.13-.79-7.71.16-12.57l.49,11.32,1.79,4.33Z"/>
      <path class="st64" d="M223.97,118.38c.88,1.67-3.36,5.09-4.84,5.94-.12.07-.38-.08-.66-.3-.85,1.03-1.19.69-.75-.55,1.28-2.08,4.1-5.45,5.83-6.55.58.07,1.08-.13,1.59.48-1.06.14-.96.77-1.17.99Z"/>
      <path class="st57" d="M168.04,48.45c-1.93-.5-3.72-1.5-5.38-2.45-.04-1.01-1.03-1.54-1.72-2.43l-.78-1.01c-.24-.32.07-.83.21-1.15l5.51,5.17c.82.78,1.64,1.03,2.15,1.87Z"/>
      <path class="st59" d="M182.95,36.96c1.49,2.85,1.61,5.95,1.76,9.06-.55,1.61-.98,1.33-1.81.05-.33-.5-1.01-4.73.15-4.47.29-1.43.62-2.58-1.02-3.78-.17-.12-.05-.75.23-.82.19-.05.46-.05.7-.05Z"/>
      <path class="st115" d="M218.47,124.03c1.2-.11.75.84.02,1.48,2.18.72-2.87,5.65-3.96,3.48-.75-.4-.34-.87.42-1.01l2.77-4.51.75.55Z"/>
      <path class="st105" d="M179.54,67.53c.18.27.16.61,0,.92l-5.49.69c-.96-1.31-2.9-.09-3.61-1.53l9.11-.08Z"/>
      <path class="st102" d="M226.66,82.41l.2,5.33c-2-1.09-1.39-2.62-2.07-4.31-.32.81.02,1.73-.83,2.16.19-.59.02-1.41.03-2.07l1.23-1.9c.25-.39,1.3.36,1.43.8Z"/>
      <path class="st28" d="M165.98,49.98l-.02,1.04-7.99-.52c-.79-.05-1.65.16-1.96-.49,2.67-.22,5.43.5,8.02-.42.27-1.12,1.97-.6,1.96.39Z"/>
      <path class="st84" d="M171,60.51l1.72-.02c-1.09,1.52-2.98.43-4.17.46l-1.54.03c-1.8-.22-3.64-.3-5.51-.23l-.03-.71,9.12-.06.41.53Z"/>
      <path class="st59" d="M181.94,35.01c.29.84-.11,1.42-.73,1.97-.09-.64-.37-.98-.57-1.11-.25-.17-.93.18-1.02.79-.3.51-.72.19-.66-.32.24-.69.22-1.98,1.21-2.83.71.33,1.23,1.03,1.77,1.5Z"/>
      <path class="st108" d="M183.04,41.61c-.25,1.24-.06,2.86.11,4.28.28.27,1.18.22,1.55.14.05,1.07.48,2.25-.17,3.5-.05,1.43-1.17,1.35-1.48-.02.08-1.61-.23-2.67-.73-4.23s-.1-3.26-1.5-4.78c-.15-.45.46-1.23,1.18-.74.3.37.34,1.5,1.03,1.85Z"/>
      <path class="st106" d="M209.94,97.02l.02-2.4-.55-4.38c2.04,2.2,2.1,6.95.53,6.78Z"/>
      <path class="st105" d="M161.47,60.05c2.38,1.09,4.16-.19,5.54.94-2.32-.1-4.94.37-7.37.51-.44-.63-.02-1.56.27-1.94h.51c.57,0,.92.17,1.05.5Z"/>
      <path class="st15" d="M171,60.51c-3.1-.79-6.3-.48-9.53-.47l-1.05-.51,9.62-.07c.41,0,.8.13.93.31.11.15.09.55.02.74Z"/>
      <path class="st18" d="M194.08,81.74c-.54.57-1.08.72-1.64.7-.17-.29-.83-.46-1.32-.5-.98-.07-1.24-.81-1.08-1.5,1.54.29,2.77.62,4.05,1.3Z"/>
      <path class="st25" d="M185.47,56.42l.65,1.6c.09.42-.1.83-.42.88-.75.12-.95-.07-1.39-.75-.31-.48-.74-1.13-.18-1.64.32-.29.71-.64,1.33-.1Z"/>
      <path class="st74" d="M203.65,91.52c.01.26.03.51-.18.73-.22.24-.51-.12-.82-.4-.79-.35-2.28-.92-1.84-1.64l1.14-.66c.42.63,1.11,1.53,1.7,1.97Z"/>
      <path class="st105" d="M187.01,66.99c.69,0,1.56-.19,1.99.51-.52.66-1.53.66-3.01.01-1.42,0-3.08-.25-4.44.17-.4-.03-.94-.02-1.08-.66l6.54-.03Z"/>
      <path class="st10" d="M215.24,109.02c.22-.8.89-1.89,1.02-2.61.84-.11,1.06.45.94.85l-.44,1.49-.34.94c-.06.18-.42.51-.64.47-.28-.04-.49-.85-.53-1.13Z"/>
      <path class="st73" d="M184.54,49.52c-.17.33.06,1.08.05,1.45-.4.73-.81,1.31-1.68,1.41l.15-2.88,1.48.02Z"/>
      <path class="st5" d="M189,67.5l.52.98c-1.21.12-2.61-.13-3.53-.97h3.01Z"/>
      <path class="st5" d="M191.03,67c1.13-.23,2.41-.31,3.71.24.84.35,1.05,1.13.77,1.8-1.61-1.07-3.24-1.79-5.55-1.51.16-.68.72-.63,1.08-.53Z"/>
      <path class="st101" d="M168.49,61.5c1.4-.12,2.66.1,3.96.57-.04.44,0,.93-.16,1.28-2.85-.91-5.34-1.37-8.35-1.5,1.52-.74,3.07-.22,4.55-.35Z"/>
      <path class="st60" d="M207.12,66.15c.45.03.45.17.05.4-1.35-.06,0,2.43-1.24,3.49-.9-1.03-.02-2.35.02-3.53-.82-.86-.74-2.74.06-3.63,1.17.71.96,2.14,1.11,3.27Z"/>
      <path class="st11" d="M207.17,66.55l-.05-.4c-.04-.58.74-1.36,1.25-1.04.28,1.83-.74,3.47-1.14,5.04-.47-1.46.08-2.58-.06-3.6Z"/>
      <g>
        <path class="st10" d="M212.97,98.44l-.71,4.09c1.4,5.96.48,9.68,1.79,8.86.39-1.17,1.23-1.56,2.52-1.16l-1.07,4.3c.15,1.73-.16,3.37-.62,5.2-.7,2.74.07,5.83-1.04,8.21.23.16.4.31.38.42-.03.18-.97,3.21-1.11,3.52-.06.14-.32.2-.64.24.07,1.21-.06,2.38-1.55,1.98-.7-.19.1-3.79.41-4.67.1-1.25-.13-3.2.39-4.31.62-1.32.93-2.34.85-4.15l-.35-7.88c-.08-1.85-.43-3.3-.46-5.16l-.17-11.11c.67.94.88,1.4,1.38,1.61Z"/>
        <path class="st75" d="M214.95,127.98l-.42,1.01c.66.7.39.96-.49.49l-.08,3.6c-.35.06-.71.06-1.16-.11-.29-.11-.53-.47-.32-.85-.23-1.69.81-2.99,1.37-4.19l1.11.04Z"/>
        <rect class="st93" x="213" y="116" width="1" height="6.5"/>
      </g>
      <path class="st50" d="M165.98,49.98c-.57-.17-1.4-.59-1.96-.39l-1.52-.1c-.88-.15-1.04-.3-.21-.71-.4-.14-.68-.25-1.08-.35-.34-.09-.25-.57.24-.55,3.61.19,6.07,1.14,4.52,2.1Z"/>
      <path class="st28" d="M162.29,48.78l.21.71c-2.08.04-4.19-.12-6.42-.11-1.51,0-3.04.29-4.11-.95l4.31.32c1.97.15,4.09.79,6.01.03Z"/>
      <path class="st28" d="M159.57,47.12l.42-.09c.1.29.02.68.65,1.24-.32.37-1.16.37-1.64.03-.34-.24-.6-.76-.57-1.39.35-.03.74-.38,1.13.21Z"/>
      <path class="st78" d="M155.89,39.1c-.36,2.04.93,4.23,2.57,5.46-.05.24-.22.58-.44.7-.28.14-.56-.14-.87-.37l-6.15-4.53c2.44-1.6-.89-2.16-1.66-5.3,2.78.14,4.7,2.07,6.55,4.04Z"/>
      <path class="st98" d="M232.02,116.99c-1.29,2.89-3.1,6.22-6.27,7.74-.83.4-2.24-.45-3.09,1.06-.39.69-1.72,1.53-2.5,1.44-1.67-.59-.66-2.25.85-1.81.65-.88.16-1.06-1.47-.53.26,1.42.04,1.55-1.05.6l-.02-1.48,2.41-2.14c1.2-1.07,2.05-2.46,3.09-3.51,1.67-.31,2.91-1.54,4.61-2.3.56-.25,1.88.12,2.49-.21.36-.2-.28-1.31,1.34-1.53l-.4,2.65Z"/>
      <path class="st10" d="M221,125.43c-.71.35-.96,1.09-.85,1.81-2.38-.28-1.98,2.84-5.13,3.41-.44-.17-.83-.93-1-1.17l.49-.49c1.97.18,3.99-1.57,3.96-3.48.34-.16.82-.3,1.05-.6,1.14-.75,1.71-1.04,1.47.53Z"/>
      <path class="st6" d="M206,62.88l-.06,3.63-.97-.5c-.17-1.32-.35-2.79,1.03-3.13Z"/>
      <path class="st35" d="M225.09,93.63l-1.13,3.72c-.45,1.5-1.08,1.98-1.82,2.77l-.78-.36c-.03-2.72.66-5.44,2.07-8.18-1.05-.14-.73-.71.15-1.12l1.29-1.69c.78,1.98.42,3.35.22,4.87Z"/>
      <path class="st92" d="M221.47,91.54c.81.53.38,2.55-.59,2.5.62.54.72,1.3.3,2.28.58,8.24-4.07,6.01-2.07-.47l.31-1.34c.27-1.18.5-2.38.99-3.49.43-.05.88.1,1.06.52Z"/>
      <path class="st14" d="M223.58,90.45c-.06.32-.12.79-.15,1.12l-.96,3.27c-.97.97-1.86.53-1.59-.81.37-.63.08-1.91.59-2.5.56-.64,1.28-1.01,2.11-1.08Z"/>
      <path class="st116" d="M222.14,100.12c-.79.84-1.33,2.15-2.65,2.88-.78.43-1.12,1.26-.97,1.98-.19.05-.58-.04-.57-.48l.07-3.54c-.35-1.52-.17-3.77.49-5.08l.6-.04c-.39,1.7-.02,3.58.7,5.46,1.43-1.72-.65-4.35,1.07-7.28,1.74,1.49.95-1.57,2.55-2.46l-.33,3.26c-.18,1.85-1.63,3.32-.97,5.29Z"/>
      <path class="st16" d="M218.51,95.88c.25,1.36-.46,3.61-.49,5.08-.35-.02-.55-.39-.53-.93l.19-5.55c.27.61.77,1.08.83,1.4Z"/>
      <path class="st115" d="M221,125.43c-.38-.36-.89-.46-1.47-.53.87-1.17,2.3-2.02,3.88-2.58-.48,1.53-1.36,2.59-2.41,3.11Z"/>
    </g>
  </g>
</svg>