<?xml version="1.0" encoding="UTF-8"?>
<svg id="Layer_1" xmlns="http://www.w3.org/2000/svg" version="1.1" viewBox="0 0 238 186">
  <!-- Generator: Adobe Illustrator 30.4.0, SVG Export Plug-In . SVG Version: 2.1.4 Build 226)  -->
  <defs>
    <style>
      .st0 {
        fill: #9da192;
      }

      .st1 {
        fill: #a3a79b;
      }

      .st2 {
        fill: #a8ab9f;
      }

      .st3 {
        fill: #bfc2b9;
      }

      .st4 {
        fill: #7e8374;
      }

      .st5 {
        fill: #757c68;
      }

      .st6 {
        fill: #85897b;
      }

      .st7 {
        fill: #e1e3de;
      }

      .st8 {
        fill: #dbdcd7;
      }

      .st9 {
        fill: #dee0dc;
      }

      .st10 {
        fill: #dedfdb;
      }

      .st11 {
        fill: #8d9182;
      }

      .st12 {
        fill: #bbbeb5;
      }

      .st13 {
        fill: #8e9384;
      }

      .st14 {
        fill: #878b7c;
      }

      .st15 {
        fill: #adb1a7;
      }

      .st16 {
        fill: #777d6b;
      }

      .st17 {
        fill: #909485;
      }

      .st18 {
        fill: #d1d3cd;
      }

      .st19 {
        fill: #828678;
      }

      .st20 {
        fill: #757a67;
      }

      .st21 {
        fill: #dbddd8;
      }

      .st22 {
        fill: #757b68;
      }

      .st23 {
        fill: #b4b7ac;
      }

      .st24 {
        fill: #8a907e;
      }

      .st25 {
        fill: #797d6d;
      }

      .st26 {
        fill: #979c8f;
      }

      .st27 {
        fill: #6b715e;
      }

      .st28 {
        fill: #a7aba0;
      }

      .st29 {
        fill: #b3b5ac;
      }

      .st30 {
        fill: #d6d8d2;
      }

      .st31 {
        fill: #b6bab0;
      }

      .st32 {
        fill: #e6e7e3;
      }

      .st33 {
        fill: #808474;
      }

      .st34 {
        fill: #b8bbb2;
      }

      .st35 {
        fill: #e9eae7;
      }

      .st36 {
        fill: #6c725f;
      }

      .st37 {
        fill: #a6aa9c;
      }

      .st38 {
        fill: #e4e5e2;
      }

      .st39 {
        fill: #d0d2cc;
      }

      .st40 {
        fill: #afb2a7;
      }

      .st41 {
        fill: #e7e8e4;
      }

      .st42 {
        fill: #737966;
      }

      .st43 {
        fill: #9da195;
      }

      .st44 {
        fill: #b7bbb0;
      }

      .st45 {
        fill: #c5c7bf;
      }

      .st46 {
        fill: #bec1b9;
      }

      .st47 {
        fill: #d8dad3;
      }

      .st48 {
        fill: #d3d5cf;
      }

      .st49 {
        fill: #7b806e;
      }

      .st50 {
        fill: #fefefe;
      }

      .st51 {
        fill: #7e8472;
      }

      .st52 {
        fill: #757c69;
      }

      .st53 {
        fill: #969a8d;
      }

      .st54 {
        fill: #767c69;
      }

      .st55 {
        fill: #fbfbfb;
      }

      .st56 {
        fill: #fcfcfc;
      }

      .st57 {
        fill: #757a69;
      }

      .st58 {
        fill: #dcded9;
      }

      .st59 {
        fill: #d7d9d4;
      }

      .st60 {
        fill: #b4b7ad;
      }

      .st61 {
        fill: #c7c8c1;
      }

      .st62 {
        fill: #c6c9c1;
      }

      .st63 {
        fill: #959a8c;
      }

      .st64 {
        fill: #828777;
      }

      .st65 {
        fill: #afb3a8;
      }

      .st66 {
        fill: #adb1a5;
      }

      .st67 {
        fill: #7a7e6d;
      }

      .st68 {
        fill: #717665;
      }

      .st69 {
        fill: #797e6c;
      }

      .st70 {
        fill: #a0a499;
      }

      .st71 {
        fill: #fdfdfd;
      }

      .st72 {
        fill: #999e92;
      }
    </style>
  </defs>
  <rect class="st50" width="238" height="186"/>
  <g>
    <path class="st5" d="M181.74,147.4c-3.32,1.04-6.62,1.64-9.41.42l-6.47-2.84c2.01-3.08,5.08.11,12.52.92.61.07,1.78-.73,2.48-.08.4.37,1.07,1.05.88,1.59Z"/>
    <path class="st51" d="M157.42,150.14l1.28-.07c.25-.01.33.78.2,1.13-.2.56-6.1.78-10.3-.49-1.46-.44-2.92-1.07-4.53-.63-.39-1.44.43-1.49,1.07-2.07.86-.78,1.52.29,2.42.33,3.38.17,6.85.14,9.86,1.8Z"/>
    <path class="st57" d="M126.82,148.46c2.39,1.55-.95,2.72-3.04,2.45l-5.37-.27c-.34-.69-.85-1.56-1.54-2.1l9.95-.09Z"/>
    <path class="st69" d="M207.63,149.73c-2.63.31-4.84.04-6.69-1.73,2.07-1.8,7.06-.16,7.04-.18.38.41.18,1.85-.35,1.91Z"/>
    <path class="st68" d="M44.28,137.55c-2.5.44-4.42.67-6.76.45.28-2.08,5.58-2.65,6.76-.45Z"/>
    <path class="st31" d="M123.77,150.91c.8-.45,1.68-.41,2.75-.26l.29-2.19c.5,0,1.43-.26,1.67.32s-.07,1.14-.65,1.57c-1.2.9-2.59.63-4.07.56Z"/>
    <g>
      <path class="st52" d="M141.05,53.73c-3.25-1.43-9.18-.47-11.64,1.23-.96.66-2.09,1.17-3.33.95.27-.83.2-1.37-.04-1.73-.05-.08-6.94-3.17-10.69-3.15,1.98-2.96,8.34-1.91,11.38.75.65.57,4.5-.38,6.88-1.26,1.63-.6,3.22.61,4.64,1.17,1.19.46,2.33.36,2.8,2.05Z"/>
      <path class="st54" d="M149.38,28.75l-5.43,1.79c-.9.3-2.63,1.97-3.7,1.21-1.58-1.13-2.93-1.97-4.79-2.79l-5.81-2.59c3.41-1.14,6.14,0,8.9,1.05,1.49.57,2.48.21,4.01.17l5.46-.15c.55-.01,1.02.37,1.35,1.31Z"/>
      <g>
        <path class="st22" d="M87.99,53.59c1.82.6,3.44,1.38,4.86,2.36l-.36.64-7.02.07c-3.58.04-7.08-1.73-9.78-3.75-4.76-3.56-6.3-8.64-5.18-14.47.8-4.17,3.59-7.4,6.55-10.35,1.49-1.49,2.45-1.32,4.48-1.68l8.39-4.26c.24.92.42,1.54.31,1.86-.04.12-14.96,9.04-7.71,23.93,1.21,2.48,3.32,4.07,5.46,5.64Z"/>
        <path class="st0" d="M92.49,56.59c-1.05-1.58-3.02-1.91-4.5-3l6.16,1.68c-.32,1.07-1.09,1.31-1.66,1.31Z"/>
        <path class="st71" d="M83.82,53.14c-2.15,1.8-8.67-2.42-9.91-6.6-.4-1.35-1.61-3.11-1.58-4.58.14-6.82,5.94-13.77,7.87-12.89,1.79.82-5.35,8.71.23,20.09.68,1.38,1.43,2.44,3.39,3.97Z"/>
      </g>
      <g>
        <path class="st27" d="M45.44,69.68c-.32-4.63-2-7.84-6.19-9.48-2.2-.86-4.71-1.05-7.1-1.27-.15-.5-.19-.84-.07-1.42l5.89-.13,2.1-1.28c1.65-1,3.43-1.73,3.93-3.65l1.58-6.03,2.47,8.19c1.41,2.2,5.39,2.28,7.44,3.19.21,1.03-.2,1.24-1.01,1.27-6.47.39-6.85,4.6-9.04,10.62Z"/>
        <path class="st35" d="M47.55,57.44c1.26,1.7.88,3.24-1.08,1.55l-2.08,1.77c-1.13-.9-1.9-1.89-2.49-3.04,1.76-.36,2.45-1.35,2.95-2.94,1.58.52,2,1.81,2.7,2.66Z"/>
        <path class="st1" d="M46.47,58.98c.26-.22,1.06.27,1.46.57.15-1.02-.28-1.44-.37-2.11.33.34.75.57.89.92.24.62.14,1.53-.3,1.64-1.08.26-1.49-.5-1.67-1.01Z"/>
      </g>
      <g>
        <path class="st42" d="M174.05,44.14c-.22,1.53-.92,2.25-1.59.69-.29-3.56-2.03-6.71-5.58-7.7-1.61-.45-3.23-.34-4.92-1.32.2-.01.59-1.04.86-1.08,2.06-.17,5.48-1.09,6.86-2.91,1.66-2.19,2.52-4.04,1.82-6.91,3.03.74,1.64,6.07,5.96,7.68l5.88,2.19c-2.52,2.9-7.42.04-8.7,6.42l-.58,2.92Z"/>
        <path class="st53" d="M172.47,44.83c.71.18,1.25-.31,1.59-.69-.14.7.33,1.58-.16,2.34-.16.25-1.21.01-1.33-.26-.13-.29-.06-.9-.1-1.38Z"/>
        <path class="st7" d="M171.46,36.83c-.79-1.4-.93-2.52-.4-3.35l1.8-1.49c1.05,1.28,1.63,2.41,2.11,3.88l-2.21,2.01c-.47-.22-.72-.7-1.29-1.05Z"/>
        <path class="st24" d="M171.46,36.83l-1.74-1.06c-.55-.33-.25-1.26.13-1.57.29-.24.76-.35,1.2-.72.25,1.22,1.56,1.66,2.51,2.26-.55.55-1.16.42-1.53.49-.25.05-.53.32-.58.61Z"/>
      </g>
      <g>
        <path class="st16" d="M54.34,92.32c-1.29.71-2.27-1.88-3.01-2.56-1.92-1.76-3.8-3.22-5.46-5.23,3.81-.9,6.16,1.86,7.89,4.77.42.71,2.25,2.11.59,3.02Z"/>
        <path class="st67" d="M94.05,85.49c-.54.83-1.09,3.24-2.56,2.88-1.25-.3.24-1.71.56-2.36,1.22-2.46,2.21-6.64,3.71-6.52,2.27.18.1,3.19-1.71,5.99Z"/>
        <path class="st25" d="M43.61,117.16c-1.65,1.17-3.71,1.63-5.64,1.01-.63-1.68,1.98-1.78,5.64-1.01Z"/>
        <path class="st6" d="M220.13,107.4l-.02-.86,1.09-1.01c.31.02.87,1.16.6,1.49-.33.4-1.17.47-1.67.38Z"/>
        <g>
          <path class="st33" d="M81.7,120.38c2.6.79,3.34,1.49,2.21,2.12-1.46.2-2.45-.14-3.65-.69-.96-.44-2.15-.19-3.3-.29-.47-.04-.57-.98-.4-1.26.25-.43,3.07-.59,5.14.12Z"/>
          <path class="st4" d="M60.6,115.65c.79-.29,1.46-.66,2.04-.61.47.04,1.4.81,1.2,1.25-.51,1.16-1.95,1.47-3.01,1.23-.85-.19-2.05-1.24-2.32-2.22.88-.53,1.66.39,2.08.35Z"/>
          <path class="st21" d="M83.91,122.5c.17-1.55-1.64-.95-2.21-2.12,1.37.47,4.11.25,3.8,1.84-.13.68-1.07.21-1.59.28Z"/>
          <g>
            <path class="st50" d="M99.93,91.58c.55.7,1.43.87,2.63.5.55-.56,2.36-1.15,2.92-.61.77.74-.37,2.08-.67,3.06,6.86-.24,6.89-7.29,11.77-5.49-.66,1.42-2.09,2.21-3.73,2.82-.96,1.22-2.09,2.29-3.43,3.06-4.89,2.81-8.48,6.72-12.11,10.88-1.69,1.94-4.39,3.12-6.48,4.47-.96.62-2.4.07-3.31.25-4.74.95-13.88.44-18.09-.75l-9-2.55,2.14-7.1c1.63-3.29,4.37-5.88,7.82-6.27l3.1-.84c7.65-.56,15.02,3.87,17.47,11.54.38,1.2.18,3.07,1.69,3.48,1.75-2.25.5-4.56.16-6.51-.81-4.71-10.28-10.94-14.33-10.91l-9.24.08c-.6,0-1.35.99-1.73.66-1.48-1.29-.51-3.12-2.21-6.69-.62-1.3-.04-3.04-.45-4.13,1.1.14,2.03.54,3.08,1.1-.62,2.95-.64,5.54,1.47,6.35.57.22,1.47-.27,2.14-.22,2.34.16,4.45.48,7.09.12-.5-1.96-2.52-3.16-4.46-2.71-1.71-2.42,2.1-3.26.94-6.38l2.37-1.73,1.03.35c-.18,5.69,2.14-1.86-1.07-.93-.81-1.19-1.68-2.16-2.99-2.87-.44-.54-.1-1.36.32-1.4.81-.08,1.37.15,1.7.8.55,1.06,1.92-.08,2.51.11,2.18.69,3.99,3.92,3.37,6.19s-1.23,3.93-1.45,6.24l-1.96,2.4,12.51,7c.19-.72.47-2.17,1.11-2.3,3.6-.71,4.15-2.87,6.35-2.3.41.11.71.93,1.01,1.22Z"/>
            <path class="st64" d="M77.48,77.05l-.04-.57c-.08-.74,1.34-1.28,2.19-.84.88,2.01.65,5.06-1.74,6.72l-.42-5.31Z"/>
            <path class="st19" d="M102.56,92.08c-1.46,1.48-3.48,3.11-6.14,2.73.15-1.26,1.57-2.38,2.96-2.01.35-.47.45-.82.54-1.21.88-.05,1.88-.08,2.63.5Z"/>
            <path class="st59" d="M73.5,93c-.46,1.21-1.93,1.21-3.1.84.51-1.19,1.95-.97,3.1-.84Z"/>
            <path class="st50" d="M96.65,103.48c-1.24.37-4.42-3.29-2.39-6.23.24-.35,1.13-.38,1.42-.2.26.16.35.84.63,1.13,2.03,2.09,3.34-2.48,8.27-3.77-1.26,1.11-1.6,2.6-2.56,3.66-1.33,1.47-3.23,2.25-4.06,4.44-.17.45-.96.86-1.32.97Z"/>
          </g>
          <g>
            <path class="st36" d="M193.07,73.08c1.09,1.53,1.76,3.08,1.92,4.96,1.19,1.36-1.18,1.38-.94,2.58,1.01,1.12,1.14,1.87.39,2.24,1.17,1.1,1.46,2.16.86,3.18,1.14,2.61,3.6,6.8,5.5,7.27.49.12-.04,1.7-.77,1.93-.49.15-.76-.61-2.2-.87,1.15,1.43.19,2.4-.14,3.25,1.93,2.41,4.84,5.68,4.89,6.17.07.61-.28.79-.58,1.23l-.96.59c-3.73-1.71-.58,2.86.36,4.21.12.17.14.39.14.64-.24.09-.55.53-.68.75.67.4.86.88.25,1.31,1.13,1.1,1.77,2.23,1.92,3.39l-.44,1.49-.61.39c-1.61-.86-3.83-2.04-2.71.74l2.14,1.48c1.15,1.36,1.97,2.27,3.74,2.77l-3.78.71c-.28.05-.5-.72-.37-.99-.87-1.02-1.17,0-.87,3.04l.08,3.99c1.26-.49,1.98-.15,2.72-.09,1.06.62,4.46,1.27,4.32-.2,2.25-.26,3.47-2.67,4.2-4.64l.62-.18c.12-1.67-.83-1.2-1.26.12,1.29,2.39-5.01,7.28-3.21,2.34.39-.2.59-1.04.47-1.41.5-.97.65-1.83.66-2.94l2.8-7.87,1.12-4.83c.58-2.49.91-4.93,1.54-7.47.68-2.72.29-5.67,2.31-8.23l2.51,6.33c1.26,3.19,2.42,4.79.4,4.27-.02.69.66,1.27.68,1.82.97.16.96.56.02.86.03,1.23.82,2.3,1.53,3.61-.5.61-.94,1.07-1.09,1.76l2.41,2.25.47,1.04c-.47.51-.62,1.33-.46,2.48l2.32,3.07c.15.19-.25.89-.39.94.08.7-.55,1.13-1.87,1.29l-.55.98,3.03,5.24c1.87,2.86-3.59,1.89-3.63-.2-.33-1.49-.85-2.14-1.56-1.97.36.57.87,2.04.61,2.58-1.93.83-1.22,1.33,2.11,1.48,1.68-.58,2.81-.37,3.39.63,4.65.55,9.08,3.34,6.9,3.82s-4.77-1.27-6.89-1.1c-2.95.24-5.5.18-8.51-.12l-8.52-.85c-2.47-.25-5.01-.68-7.44-.71l-20.68-.29-24.75.2c-1.51,1.33-4.41,2.89-6.04,3.19l-4.92.88c-5.15,1.79-10.18,2.71-15.31,4.31l-10.97,3.43-15.48,5.2,21.24,5.72c-.3,1.09-.94,1.36-1.51,1.64-.59.29-1.69-.65-2.3-.63-3.68.12-10.65-1.61-15-2.97-2.07-.65-4.83-.75-5.68-3.45-.81-2.55,9.86-5.19,14.89-6.89,9.91-3.35,19.76-6.11,29.91-8.47,1.51-.35,2.81-.96,3.88-1.96l-9.91.13c-3.03.04-5.49-.23-8.26,1.48-3.33,2.06-7.56,2.25-11.21,3.3l-8.5,2.45c-2.04.59-4.27.67-6.45,1.19l-9.95,2.38-14.02,3.02-3.98.83c-2.16.45-4.25.09-6.37.96-1.31.54-2.59.8-4.19.84.97,1.47,2.51,1.56,4.08,1.35.59,1.55,1.92,2.4,4,2.53.23,1.56-2.17,1.26-5.25-.25-5.04-2.48-10.38-.17-14.21-2.75,1.97-1.32,3.99-1.39,5.99-1.84l16.45-3.69,7.98-1.42,7.44-1.58,6.7-1.7c4.13-1.05,8.08-1.59,12.13-2.92,3.07-1.01,6.34-1.19,9.4-2.8.51-.22,1.94.37,2.4-.37-2.46-1.21-5.01-.43-7.53-.68-1.87-.18-3.59-.78-5.52-.61-3.95.36-7.62-.37-11.5-.71-3.29-.28-6.47.22-9.73-.45l-9.65-.57c-1.72-.1-3.24-.82-5.13-.69-4.4.32-8.6-.47-12.97-.44l-15.52.1-9,.56-4.5.88c-1.58.31-3.28.49-4.87.72-5.21.74-9.79,2.84-15.42,2.9,2.51-2.29,5.57-3.11,8.69-3.88l12.15-3,6.97-.73,11.26-.47c4.87-.2,9.35-.51,14.72-.56,2.98-.02,5.66.43,8.56.64l8.44.62,14.07.63c1.77.08,3.4-.38,4.6-.54l-.59-19.61-4.84,2.88c-3.19,1.9-7.04,1.51-10.49,2.2-6.78,1.36-15.31-.66-22.15-2.89-2.77-.9-5.22-2.02-7.97-3.05l-18.11-6.74-8.99-1.67-9.56-.25v-.69c6.9-2.56,17.57-.97,25,1.52l8.58,2.88c1.49.5,2.81.53,4.1-.95l2.98-3.43,4.75-6.79c.2-.29,1.07-.69,1.02-1.07.03.22-1.68-2.87-2.54-6.04l-2.05-7.59c-.27-.98-1.17-1.79-.42-3.14,2.43,1.5,3.49,3.95,4.46,6.51,1.06.43,1.46,1.48,1.19,3.17l1.87,6.51c8.06-1.64,14.65-.7,21.27,4.62,2.93,2.35,6.98,8.76,5.03,12.47-.91,1.74-2.47,1.85-3.58.15-1.25-8.01-8.02-13.61-16.13-13.48l-1.01-.96c-.98.38-2.01.66-3.1.84-.19.87-.87,1.4-2.04,1.59-3.02.59-6.94,8.45-6.59,10.79.15.97,11.37,3.3,13.11,3.47,4.27.42,8.63.52,12.86-.2,3.12.07,5.9-1.22,8.33-3.86,4.07-4.68,8.29-9.24,13.89-12.09,1.91-2.2,4.12-3.71,6.61-4.52,3.74-1.71,5.94-5.6,9.48-8.03,2.63-1.5,6.95-.16,9.83-.03l5.3.25c2.07-4.6-1.88-7.84,1.74-9.39s7.67-1.51,11.26-.16c.76,3.53-.45,7.17,1.05,10.1,4.64,2.08,10.83,1.34,13.62,2.84,4.16,2.24,7.19,5.85,9.99,9.51.84,1.1,1.81,1.83,2.44,3.17.68,1.45,2.76,2.28,3.03,3.69,1.31,1.99,4.07,3.45,3.26.49-.95-1.05-1.25-3.12-1.46-4.65l-1.82-2.97-1.57-5.14c-.1-.33-.19-.86-.43-.91-.2-.04-.73.14-1.06-.34.31-.67,1.11-1.11,1.85-1.58-.45-1.27-1.75-.58-2.34-.51-.94-.95.48-2.01,1.11-2.63.76-.75-.64-2.18-1.79-2.63,1.9-1.87,3.6-5.85,2.86-7.57,1.27-2.94,2.67-5.16,2.61-8.58-.03-1.32,1.07-2.89.34-4.6,1.39.3,2.34.97,2.71,1.98l3.34,9.26c.3.84,1.25,1.58,1.16,2.46Z"/>
            <g>
              <path class="st39" d="M74.51,154c-.84.03-1.86.18-2.83-.18s-1.3-1.49-1.17-2.35c.64-.08.91,1.19,1.61,1.4.86.26,2.23.06,2.39,1.13Z"/>
              <g>
                <path class="st38" d="M212.1,124.42c-.59,3.69-3.5,6.71-7.54,5.88-.64-.13-1.46.21-1.61-.87l4.34.36c-.69-1.2-.67-2.39.34-2.92l-.1,1.72c1.66-1.04,2.53-2.45,3.31-4.05.65-2.02,2.46-2.39,1.26-.12Z"/>
                <path class="st48" d="M202.01,105.02c-.47.69-1.27,1.28-1.36,1.88-.28,1.86,2.36,2.99.9,3.56-2.3-.71-4-3.75-2.59-6.07.57-.93,2.38.22,3.05.64Z"/>
                <path class="st58" d="M225.55,130.07c1.15.17,1.11,1.48.91,2.53-1.09-.13-2.43.1-3.39-.63-2.64.01-3.74-.52-3.32-1.6,1.83,1.03,1.27-1.3.6-2.46-.11-.4-.66-.89-.08-1.42,1.9,1.27,1.71,3.56,3.5,4.51.99.52,2.2-.04,1.78-.93Z"/>
                <path class="st17" d="M195.31,86.03c-.25-.57-.93-1.25-1.22-2.2-.33-.4-1.99-.3-2.07-1.44-.03-.46,1.32-.9,2.16-.22.31-.63-.03-1.07-.13-1.55,2.01,1.71,3.8,4.03,2.71,5.43-.37-.44-.79-.94-1.02-.98s-.49.66-.43.96Z"/>
                <path class="st30" d="M225.55,130.07c-1.44-.61-2.53-1.49-2.92-3.29l-1.52-2.72c1.98-.09,2.66-1.2,3.82-1.5.31.18.85.87.51,1.49-.81,0-1.82-.33-2.51.21,1.66,1.83,2.95,3.63,2.61,5.81Z"/>
                <path class="st9" d="M203.04,115.91c-1.25-.74-2.39-1.9-2.87-3.4.06-.46.54-1.01.7-1.3.54.01,1.68-.2,2.26.33.33.3-.04,1.23.2,1.8.46,1.08-.06,1.75-.3,2.57Z"/>
                <path class="st63" d="M187.56,101.49c.3.32,1.22.21.98,1.29-.1.46-.68.69-1.3,1l.24,1c.07.29-.52.53-.71.27l-.53-.71c-1.32-1-1.84-1.95-1.95-3.33,2.21.48,3.43,2.71,3.26.49Z"/>
                <path class="st8" d="M222.99,115.03c.42.39,1.21,1.1.89,1.88-.25.61-.86,1.08-.88,1.65-.9-1.2-2.18-2.21-2.61-4.06,1.97.2,2.73,2.85,2.6.54Z"/>
                <path class="st18" d="M202.6,117.39c-.14.47-.76.93-1.32.85-.32-.04-.86-.46-1.36-.75-.86-.47-1.39.39-.64,1.03l-1.78-1.36c.87-.61,2.39-1.47,3.26-.9.56.37.91,1.51,1.84,1.13Z"/>
                <path class="st61" d="M195,78.04c-.38-.17-1.26-.62-1.22-.98l.16-1.43c-.48-.98-.95-1.65-.86-2.54,2,1.58,2.94,3.02,1.92,4.96Z"/>
                <path class="st72" d="M201.03,122.5c-.24,0-.48-.1-1.13.13,1.08,1.07.24,2.02.25,2.92l-.57-3.29c-.07-.53.9-.9,1.15-.76.27.16.43.7.29,1Z"/>
                <path class="st2" d="M208.1,125.46c-.39-1.22.37-2.12.66-2.94l.61,1.75c.12.45-.79.99-1.27,1.19Z"/>
                <path class="st43" d="M223.07,131.97c-2.76.32-5.2-.39-7.82-2.02-.41-.25.32-.93.74-1.18.3-.18.85.47,1.33.47,1.36.01,2.35.13,3.16,1.51.29-1.33.09-2.08-.12-2.85.77.53,1.2,2.56,1.05,2.76-.28.36-1.13.23-1.51.79,1.5-.04,2.32-.15,3.19.51Z"/>
                <path class="st37" d="M193.93,92.52c1.55.05,2.68,3.49,1.99,5.48-.99-1.72-1.89-3.29-1.99-5.48Z"/>
                <path class="st14" d="M189.39,126.94c-.59.33-1.27-1.63-.73-2.65.89-.29,2.34,1.75.73,2.65Z"/>
                <path class="st15" d="M195.83,112.09c-1.54-.82-2.69-1.47-2.88-3.19,1.71.22,2.66,1.71,2.88,3.19Z"/>
                <path class="st46" d="M189.83,116.76c-1.45.28-1.8-2.48-1.11-3.14.84.76,1.8,2.75,1.11,3.14Z"/>
                <path class="st70" d="M212.1,124.42c.04-.26-.06-.49-.09-.69-.09-.54-.69-.4-.73,0-.03.27-.03.53-.44.81.36-.74.49-2.08,1.75-2.51.36-.02.58,1.13.36,1.57-.16.31-.39.63-.85.82Z"/>
                <path class="st12" d="M191.66,126.53c-.25-1.41-.48-2.49.29-3.91,1.16,1.44.44,2.8-.29,3.91Z"/>
                <path class="st47" d="M195.76,129.34c-.45-1.04-.35-1.98-.13-3.41.89.7,1.26,1.32.13,3.41Z"/>
                <rect class="st28" x="189" y="101" width="1" height="2.5"/>
                <g>
                  <path class="st71" d="M142.99,90.58c.98-.12,1.88.54,2.69,1.98,1.21.68,1.91,1.55,2.1,2.61,1.12-1.13,4.65,1.35,4.17,2.83,1.28.78,2.12.71,2.53-.19,1.87.3,3.73.8,5.58,1.49,2.68,2.18,4.65,1.01,5.41,2.16.67.36,1.55.37,2.62.04-1.15-1.74-.63-3.19,1.4-2.13l4.51,4.19c1,.69,1.69.76,2.05.21,1.88-.4,3.39-.05,4.52,1.06,1.08.28,2.28.36,2.95,1.44-.53.6-.86.98-1.3,1.12-.33.11-1.02-.49-1.4-.65-4.64,1.44-10.87-.05-15.3-.13l-6.09-.11c-3.08-.05-7.12.17-9.75-1.71l-7.92-8.52c-1.65-1.78-3.38-3.25-5.04-5.03l-4.8-5.16c-.45-.49-.63-1.07-.23-1.62.27-.38.82-.3,1.5-.27l8.22.29c.6.02,1.17.95,1.01,1.3-.3.66-2.81-.26-3.08,1.48-.19,1.22,1.61,1.63,3.63,3.34Z"/>
                  <path class="st50" d="M173.47,118.05c-.44-1.04-.93-2.39-.93-3.54-.88-.28-.75-2.03-.09-2.59,1.81-1.05,3.39-.23,5.63.09,1.39.2,3.86-.41,4.66,1.2-.38.79-.92,2.05-.82,3.27.35,4.48-.63,12.61-1.16,12.98-.44.3-1.47.78-2.24.58-3.12-.82-5.92-.07-9.03-.08l-8.34-.05c-.47-3.55-.06-6.73.24-9.9.1-2.6-.12-5.1-.64-7.5,2.45-1.92,6.9-2.17,7.55,1.47-.32,1.45-1.05,8.41-.15,9.23,2.14,1.97,5.02,2.54,6.11-.87.39-1.22-.24-3.66-.79-4.28Z"/>
                  <path class="st71" d="M173.47,118.05c.35.06,1.12.1,1.18.45l.34,1.76c.35,1.85.35,2.85-1.19,4.15-.51.43-.66,1.55-1.64,1.45-1.82-.19-2.17-1.71-4.59-1.95-1.7-3.57,1.53-10.23-1.63-12.18-1.16-.72-4.54,1.33-4.61,1.56-.12.39.3,1.26,1.1,1.65-1.05,1.71-.87,3.35-1.04,5.07-1.24-2.3.33-5.71-1.07-7.83-.4-.6-1.72-.16-2.1.27-.4.45-.77,1.09-.76,2.04l.15,11.03.77,4.48c-3.32.8-6.41.28-10.24.44l-.04-21.42c.74.35.77.83.92,1.25.11.29.82-.25,1.16-.8,4.43,1.1,9.22.89,13.74,1.24,2.49.19,4.39.83,7.4.55-3.76,2.65-3.15,10.35-2.44,11.3s1.89,1.64,2.83,1.46,1.77-1.24,1.77-2.47v-3.49Z"/>
                  <path class="st56" d="M121,129.47c-.76.75-2.27.75-3.02,0l-.12-12.47,7-.2-.17,6.38c-.05,1.95-.29,3.73.52,6.03-1.54.48-2.85.27-4.22.27Z"/>
                  <path class="st55" d="M150.65,82.04c.68,2.5-2.36,3.24-3.78,1.52-1.34-.42-1.23-2.1-1.75-3.28-.74-1.68-2.17-4.48-.18-5.78,1.07-.71,4.1-.67,5.25-.11,2.18,1.05-.47,5.52.46,7.66Z"/>
                  <path class="st48" d="M169.48,92.45c1.46,2.11,3.54,3.82,5.82,5.52s3.57,4.76,5.26,6.86c-3.54-.92-3.86,1.25-6.57-1.27l1.91.34c-.79-2.32-2.12-2.89-.45-4.16-1.8-.86-2.9-2.34-4.29-3.62-1.72-.36-4.77-3.09-2.57-4.13.38-1.01.86-.54.89.47Z"/>
                  <path class="st49" d="M146.87,87.5c.47,1.7,1.69,3.01,3.65,3.93l-.12,1.12c.36-.23.76-.36,1.03-.13,2.27,1.93,6.31,8.1.51,5.59l-4.17-2.83c-1.14-1.15-1.45-2.19.45-2.17-1.09-.64-2.36-1.88-2.71-3.05-.82-.13-1.08-1.45-.44-2.01.42.07,1.01-.35.92-.7-.2-.83-1.66-1.04-1.31-1.95.14-.35.82-.51,1.35-.14.56.39,1.07,1.75.82,2.34Z"/>
                  <path class="st60" d="M169.49,99.37c-2.93.54.67,1.62,1.52,4.01-1.03.36-1.85-.84-2.4-.9-1.51.1-2.5-.07-3.14-1.01.22.24,1.17.47,1.43-.08-.06-.95-1.72-1.78-1.99-2.53-1.42-3.9-4.1-3.37-4.4-5.89l7.04,4.98c.88.62,1.32.87,1.93,1.43Z"/>
                  <path class="st32" d="M151.89,91.74l4.28,3.6c-2.82,2.82.87,1.52,3.88,3.97-1.18.41-2.44-.3-3.4-.77-.31.19-.94.76-1.15.6-1.06-.81-1.4.34-3.56-1.13.5.05,1.01.12,1.4.37.56.36,1.15-.86.84-1.11-1.59-1.33-2.43-3.46-3.79-4.72-1.56-1.8.24-2.1,1.49-.81Z"/>
                  <path class="st45" d="M166.95,91.44c.66,1.42,1.53,2.76,2.62,4l-.18.6,1.16,1.55c-.94.88-1.57-.41-2.1-.9-2.2-2-3.54-3.81-4.6-6.22-.4-.81-.22-1.1.59-.64.8.61,1.51,1.42,2.52,1.61Z"/>
                  <path class="st13" d="M145.08,87.95c.35.6.57,1.32.44,2.01.39.94,1.41,2.19,2.71,3.05-.16.59-.83,1.3-.45,2.17-1.67-1.14-3.62-2.94-4.79-4.6.46-.06,1.02-.18,1.28-.55.28-.4-.56-1.43-.43-2.24.03-.2.46-.39.76-.26.19.08.31.17.49.42Z"/>
                  <path class="st65" d="M151.89,91.74c-.36-.18-.69-.23-1.08-.17s-.51.47-.41.98l-3.29-3.06c-.78-.73-.49-1.38-.24-1.98,2.91,3.91,5.14,2.73,5.02,4.24Z"/>
                  <path class="st11" d="M168.47,90.64c.83-.12.88,1.08.12,1.34-.4,1.91,1.33,2.99,2.57,4.13l-1.77-.08-2.17-2.23c-.84-.86-.63-1.6-.27-2.36.11-.25-.03-.75.4-.87s.82-.05,1.12.07Z"/>
                  <path class="st31" d="M169.48,92.45c-.15-.2-.64-.33-.89-.47.07-.35,0-.99-.12-1.34-.41-1.27-2.28-1.14-2.46-2.37-.07-.47.21-.78.67-.7.52.09,3.58,2.21,2.8,4.88Z"/>
                  <path class="st34" d="M164.43,89.83l-.59.64c-.55-1.26-2.1-2.12-3.27-3.1-.14-.25.36-.81.8-.67,1.86.63,1.85,2.21,3.05,3.12Z"/>
                  <path class="st41" d="M185.78,128.99c-1.14-1.87-1.21-4.11.07-6.06.22,2.04.32,3.6-.07,6.06Z"/>
                  <path class="st3" d="M185.43,116.07c-.3-1.55-.52-2.77-.1-4.35,1.55,1.22,1.34,3.1.1,4.35Z"/>
                  <path class="st10" d="M185.83,122.54c-.75-1.7-1.59-3.83-.07-5.69.42,1.9.34,3.61.07,5.69Z"/>
                  <path class="st62" d="M146.87,83.56c.91.25,1.96.63,2.97.26.72-.27.79-1.31.81-1.78.33.76.57,1.31.12,1.98-.49.73-2.23,1.24-3.24.77-.34-.16-.47-.83-.66-1.22Z"/>
                  <path class="st66" d="M162.39,91.48c-1.9-.48-3.01-1.45-3.49-3.18,1.84.47,2.69,1.84,3.49,3.18Z"/>
                  <path class="st40" d="M161.3,97.66c-.68.74-2.56-.81-2.06-1.36.69-.77,2.59.79,2.06,1.36Z"/>
                  <path class="st26" d="M121,129.47c-.2.81-.89,1.14-1.74,1.07-.5-.04-1.27-.42-1.28-1.08h3.02Z"/>
                  <path class="st23" d="M172.44,111.91l.09,2.59c-1.01.16-1.11-.45-1.12-1.24,0-1.08.38-.98,1.03-1.35Z"/>
                  <path class="st44" d="M148.23,93.01c-.89.47-2.57-1.24-3.12-2.38-.1-.21.17-.52.4-.67,1.17.37,2.19,1.9,2.71,3.05Z"/>
                  <g>
                    <path class="st50" d="M129.57,113.53h-12.11c-1.68.02-3.05,1.08-2.92,2.96.2,3.05-.26,5.94-.42,9.02-.08,1.54.55,2.94-.21,4.58-2.62-.65-5.18-.65-8.05-.5-1.02-1.62-1.29-3.57-1.3-5.56l-.09-18.15,8.71-8.15c1.43-1.34,2.81-2.48,4.36-3.7l5.61-4.41c1.36-1.07,2.13-2.34,4.02-3.2,1.01,2.1,3.02,3.26,4.57,4.87l8.35,8.67c5.1,5.3,5.91,7.19,5.03,14.1-.7,5.5-.08,10.73-.3,16.33-5.96-2.16-9.93.73-11.53-.98-.59-.62.52-2.51-.51-2.83s-.11,1.93-.66,3.26c-.28.68-1.96,1.02-2,.03l-.48-11.56c-.06-1.52-.99-2.66-.04-4.76Z"/>
                    <path class="st20" d="M122.7,102.09c.11.76.6,1.61,0,1.95-1.83,1.05-2.54-2.46-4.32-2.91-.93-.24-1.75-.61-1.82-1.43-.18-2.25,3.39-2.49,7.44-1.56.87.2,3.29.03,2.38,2.09-1.08-.29-4-.19-3.69,1.85Z"/>
                    <path class="st29" d="M139.68,128.49c-.25-1.15-.22-2.19-.71-3.31.44-.39.62-.56.97-.69.06,1.3.32,2.23-.26,4Z"/>
                  </g>
                </g>
              </g>
            </g>
          </g>
        </g>
      </g>
    </g>
  </g>
</svg>