<?xml version="1.0" encoding="UTF-8"?>
<svg id="Layer_1" xmlns="http://www.w3.org/2000/svg" version="1.1" viewBox="0 0 226 140">
  <!-- Generator: Adobe Illustrator 30.4.0, SVG Export Plug-In . SVG Version: 2.1.4 Build 226)  -->
  <defs>
    <style>
      .st0 {
        fill: #747967;
      }

      .st1 {
        fill: #6d725f;
      }

      .st2 {
        fill: #6e745f;
      }

      .st3 {
        fill: #dee0db;
      }

      .st4 {
        fill: #6f7361;
      }

      .st5 {
        fill: #fefefe;
      }

      .st6 {
        fill: #6e7461;
      }

      .st7 {
        fill: #a9aba2;
      }
    </style>
  </defs>
  <rect class="st5" width="226" height="140"/>
  <path class="st2" d="M155,49.07c-.23.4-.07.83.48,1.31,7.21,1.19,14.65,8.53,12.6,9.87-.75.49-6.4-6.14-14.21-6.91-3.87-.38-14.45.83-18.4,2.24-5.59,1.98-10.1,6.09-14.49,9.87-2.42,2.09-5.1,3.45-7.19,6.09,5,1.24,9.66-.2,13.45-3.34,3.25-2.69,7.37-4.78,11.52-4.52,6.61.41,11.65,3.53,15.83,8.25,2.24,2.53,4.16,4.82,4.68,8.35.18,1.22,1.19,2.29,2.38,2.63l-.26,3.56c-2.93,3.27-5.67,6.58-9.33,9.08-14.6,10-32.07,4.36-36.05,16.67,1.96,1.5,3.3.95,5.1.66l8.42-1.38,7.69-.76c5.31-.52,11.04.56,16.33,1.04l5.61.51c4.2.38,8.52.55,12.7.09l7.81-.86c8.23-.91,16.48,2.25,23.16,7.14,1.97,1.44,4.05,2.69,4.17,5.51l-13.81-7.3c-4.11-2.17-13.05-2.3-18.62-1.69-4.7.51-9.68,1.22-14.62-.05l-6.87-.28c-6.27-1.54-13.25-1.87-19.61-.89l-5.49.85c-2.9.45-5.56.06-8.42,1.31-2.12.93-5.54-.04-5.87-2.69-.61-5.02,3.03-9.02,7.38-10.86,3.23-1.37,6.49-2.02,9.95-2.79l10.48-2.34c8.19-1.83,16.57-9.3,14.3-17.61-1.88-6.91-7.21-9.78-13.2-12.43-4.4-1.94-8.78-.74-12.41,2.34-5,4.24-11.98,6.12-18.67,4.78-1.63-.33-3.19.66-4.64.62-9.39-.25-15.62-7.98-21.29-8.63s-10.96,1.36-14.57,5.5c-2.54,2.91-4.39,5.87-4.62,9.96-.1,1.89.25,4.48,1.59,6.09,1.76,2.12,3.56,4.5,5.9,6,8.32,5.35,21.17,4.65,28.21,8.34,3.15,1.65,5.4,4.53,7.08,7.48,1.27,2.24.46,5.83-1.88,6.23s-4.7-.67-6.79-.96l-5.63-.78c-1.59-.22-3.33-.71-4.93-.71h-13.95c-2.33,0-4.64.4-6.91.71l-5.63.77c-2.92.4-5.91.93-9,.39-4.28-.74-8.2-.33-12.46-.18-9.52.33-18.08,3.19-26.19,9.09,1.48-5.86,12.33-11,18.16-11.65l5.57-.62c8.61-.96,18.82.83,23.08,0,1.53-.3,3.38-.67,4.96-.81l8.42-.71h12.43s5.56.58,5.56.58l10.2,2.02c.76.15,1.51.45,1.98-.35.97-1.67-2.32-6.71-7.46-8.67-5.98-2.29-10.02-1.9-15.17-3.19-8.34-2.09-18.91-6.93-21.44-14.96-.59-1.87.08-3.08,1.25-4.01-1.35-4.67,2.68-9.19,6.17-12.98,2.27-2.46,4.69-3.36,7.81-4.44,4.63-1.6,10.19-2,14.54,1.08,3.26,2.31,6.37,4.58,10.41,5.62,2.32.6,4.87,1.42,7.01-.15-.85-1.67-2.59-1.87-3.66-2.8-3.92-3.43-7.89-6.42-12.15-9.38-6.82-4.74-12.53-4.88-19.99-5.63-5.15-.52-9.48.71-13.37,4.37-1.32,1.24-2.64,2.88-5.1,3.23,2.99-5.02,8.05-10.44,14.57-10.59-1.72-1.84-4.25-1.94-6.29-3.23l-2.46-1.55c1.9-1.05,3.96-.51,5.72.25,3.52,1.52,7.13,1.79,10.67,2.94l11.41,3.7c1.97.64,7.48,4.26,9.73,6.12,3.89,3.23,7.5,6.44,11.89,9.13.72.44,2.64.51,3.31-.16,3.98-3.92,8.3-6.94,12.65-10.35,3.67-2.88,7.77-4.54,12.25-5.85l11.58-3.4,10.84-4.05c.42-.16.9-1.04,1.27-.96,2.33.54-1.9,5.02-7.18,6.09Z"/>
  <path class="st1" d="M214.22,88.89c-8.11,1.4-15.48-2.27-21.42-7.17s-7.73-7.73-11.83-12.68l-3.85-4.66-6.85-8.14-.37-1c-.19-.53.11-1.11.84-.86,1.35.45,7.21,7.11,10.1,10.34l6.83,7.62c3.76,4.2,7.57,8.09,12.45,10.97,4.35,2.56,9.12,3.29,14.09,5.58Z"/>
  <path class="st2" d="M33.58,78.06c-5.77,6.8-17.88,13.56-24.11,11.18-.21-.08-.84.19-1.02.05-.44-.35-.44-.59-.09-1.14.29-.45.39-.46,1.08-.32,10.42-.6,18.13-7.35,24.98-14.91l11.16-12.31c5.24-5.78,7.75-3.93,5.68-2.86-2.66,1.38-5.42,5.83-7.84,8.69l-9.85,11.61Z"/>
  <path class="st4" d="M113.01,17.98c1.23,4.68.86,20.72-1.21,22.02-.21.13-1.03-.68-1.03-.93v-18.96c-.01-.9.71-1.88.88-2.65.7-1.25,1.22-.89,1.37.52Z"/>
  <path class="st6" d="M91.52,27.78c2.58,4.45,5.6,8.75,6.17,14.12-4.93-4.15-6.62-10.12-8.75-15.65,1.17-.22,2.06.64,2.58,1.53Z"/>
  <path class="st0" d="M128.19,40.22l-.24.96c-.06.24-.86.24-1.14.16-1.65-.47,3.5-11.01,6.2-15.27.4-.31,1.02-.04,1.1.18.72,2.18-3.42,9.98-5.91,13.96Z"/>
  <path class="st3" d="M155,49.07c.29.41.43.87.48,1.31h-3.05c.61-1.02,1.64-1.12,2.57-1.31Z"/>
  <path class="st7" d="M113.01,17.98c-.45-.25-.97-.4-1.37-.52.18-.8.24-1.55.85-2.25,1.05,1,.33,2.04.52,2.77Z"/>
</svg>