<?xml version="1.0" encoding="UTF-8"?>
<svg id="Layer_1" xmlns="http://www.w3.org/2000/svg" version="1.1" viewBox="0 0 595.28 841.89">
  <!-- Generator: Adobe Illustrator 29.8.7, SVG Export Plug-In . SVG Version: 2.1.1 Build 1)  -->
  <defs>
    <style>
      .st0 {
        fill: #f8ecda;
      }

      .st1 {
        fill: #f2b34a;
      }

      .st2 {
        fill: #f7ecdc;
      }

      .st3 {
        fill: #f0b14a;
      }

      .st4 {
        fill: #f0b147;
      }

      .st5 {
        fill: #f9eddd;
      }

      .st6 {
        fill: #f1b248;
      }

      .st7 {
        fill: #f8ecdc;
      }

      .st8 {
        fill: #f8ebd9;
      }

      .st9 {
        fill: #f0b146;
      }

      .st10 {
        fill: #f1b249;
      }

      .st11 {
        fill: #f0b14c;
      }

      .st12 {
        fill: #efb049;
      }

      .st13 {
        fill: #f8eddd;
      }
    </style>
  </defs>
  <path class="st12" d="M478.43,349.4c14.71.56,32.77,3.93,43.99,14.11,13.95,12.65,7.04,44.85,22.92,53.2,3.25,1.71,6.8,1.89,10.19,2.88.31.09.88.1.41.57-.34.35-6.74,1.6-8.02,2.07-19.42,7.12-10.96,42.51-25.66,55.85-11.16,10.12-27.51,11.63-41.76,13.08-2.69.27-2.69,1.96-4.26,3.69-10.78,11.8-30.43,15.53-45.74,16.48-26.02,1.61-51.96-3.25-77.88-4.56-14.29-.72-41.81-2.24-52.14,9.52-1.24,1.41-.67,2.19-3.29,1.86-1.18-.15-1.13-1.06-1.83-1.86-9.5-10.74-34.87-10.32-48.16-9.8-31,1.21-62.43,8.3-93.47,3.94-14.03-1.97-28.82-7.37-37.6-18.94-14.67-.52-39.15-4.94-47.32-18.6-8.42-14.08-3.66-44.14-21.47-50.68-1.26-.46-7.14-1.6-7.46-2.2-.29-.55.47-.4.67-.46,12.71-3.45,15.91-4.81,19.71-18.08,5.14-17.94,2.43-32.65,20.64-43.27,11.35-6.63,21.23-7.19,33.86-8.47,2.53-.26,2.11-1.2,3.55-2.7,8.34-8.72,19.74-12.65,31.45-14.58,35.09-5.79,70.34,4.77,105.38,6.22,11.16.46,31.29-.37,39.67-8.66,1.52-1.51.99-2.8,3.84-2.44,1.24.16.9.83,1.54,1.58,5.59,6.52,18.11,8.55,26.29,8.94,41.51,1.98,82.3-14.59,123.76-4.69,10.3,2.46,21.83,7.25,28.19,15.99Z"/>
  <path class="st2" d="M297.77,335c5.92,5.18,14.19,7.49,21.92,8.46,40.26,5.05,80.3-11.64,120.7-5.6,10.69,1.6,23.22,5.14,30.58,13.46,1.08,1.22,1.66,3.18,3.41,3.69,3.13.92,8.13.33,11.52.99,11.45,1.35,30.01,5.86,34.87,17.69,5.26,12.8,3.74,32.19,13.44,43.08.55.62,3.64,3.18,3.55,3.54-.04.17-2.02,1.47-2.42,1.85-10.88,10.31-9.22,32.28-14.86,45.35s-26.2,15.98-38.27,17.41c-2.48.29-6.13.03-8.38,1-1.2.52-2.45,3.1-3.42,4.25-12.27,14.64-42.73,15.88-60.38,14.91-28.91-1.58-58.75-8.02-87.78-4.22-8.41,1.1-18.26,3.6-24.48,9.61-7.09-7.11-18.71-9.31-28.42-10.21-29.55-2.74-59.23,4.25-88.65,5.12-16.98.5-44.64-1.28-56.28-15.34-.87-1.05-1.4-2.4-2.12-3.27-1.39-1.69-6.24-1.31-8.38-1.56-14.19-1.68-35.69-4.87-40.13-20.95-3.17-11.48-4.47-30.96-11.9-40.07-1.31-1.61-3.05-2.57-4.37-4.12,4.63-3.48,7.33-8.07,9.3-13.44,2.84-7.74,3.91-16.52,5.83-24.56,1.17-4.87,1.74-8.9,5.05-12.85,8.28-9.88,25.18-12.65,37.36-13.78,2.19-.2,4.04.39,6.19-.63,1.59-.76,2.21-2.69,3.34-4.05,10.96-13.24,42.4-15.07,58.39-14.06,30.33,1.92,62.11,11.11,92.61,7.06,7.72-1.02,16.26-3.59,22.2-8.75Z"/>
  <path class="st10" d="M415.77,381.89c.91-.2,1.91-.1,2.07.95.36,2.26-4.49,8.54-4.27,10.75.08.75,2.75,4.61,3.33,5.79,6.18,12.58,6.53,29.15.98,41.99s-17.44,19.65-29.46,10.03c-.64.15-3.02,8.83-4.6,9.32-1.31.41-2.66-.2-2.53-1.66l4.7-10.07c-3.38-5.16-6-10.76-7.29-16.83-2.84-13.35-.22-36.29,12.91-43.74,6.79-3.85,13.39-2.53,19.25,2.21,1.66-1.61,2.8-8.28,4.91-8.74Z"/>
  <path class="st4" d="M330.73,454.81c-.62-.19-.58-1.59-.03-2.02.96-.74,4.01-.17,5.29-1.81,1.48-1.9.36-8,1.14-10.5.17-16.3-.72-32.49-.64-48.79-.48-2.13-3.93-1.37-5.45-2.22-1.02-.58-1.17-1.96.24-1.97,8.19.42,17.7-1.48,25.67.5,15.54,3.86,17.13,24.72,3.15,31.99-.48.25-4.15,1.57-3.94,1.88,9.44,4.02,8.63,15.42,11.1,23.7.89,3,2.27,6.35,6.03,5.77,1.17-.18,4.38-2.3,4.5.21.16,3.16-5.35,4.57-7.84,4.4-14.46-.98-8.38-28.32-18.05-32.79-2.05-.95-6.44-1.92-7.79.45-.57.99-.96,5.29-1.03,6.64-.28,5.2-.11,13.61.6,18.73.27,1.92,1.3,2.68,3.09,3.16,1.09.29,3.43.23,4.15.68.84.52,1.05,2.01-.02,2.01h-20.18Z"/>
  <path class="st9" d="M217.63,454.81c-.15-.04-.61-.57-.67-.77-.7-2.45,5.67-1.42,6.2-4.2.11-7.1-.12-14.21,0-21.3.16-9.67.65-19.25.28-28.94-.08-2.16.56-7.55-.97-8.97-1.41-1.3-6.99-.42-4.98-3.25h33.81c.93.42,1.29,3.21,1.42,4.26.54,4.12.5,8.34.57,12.49.01.78.71,2.38-.75,2.65-1.86.35-2.15-4.87-2.51-6.2-1.42-5.25-3.95-9.32-9.57-10.6-2.38-.54-5.53-.62-7.83.33-3.33,1.36-1.5,4.79-2.37,7.57l.14,19.19c.58,1.9,4.89,1.5,6.47,1.04,2.05-.59,2.98-1.79,3.64-3.74.54-1.58.63-4.96,1.18-5.92.88-1.54,2.36-.78,2.52,1.07.45,5.3.49,15.76,0,21.04-.15,1.67-1.57,3.05-2.59,1.42-1.36-2.19-.56-8.02-3.7-9.93-1.14-.69-6.66-1.21-7.23-.45-.74.98-.36,6.76-.41,8.39-.17,5.37-.5,11.98-.02,17.32.55,6.19,10.13,5.35,14.18,3.36,3.37-1.66,5.13-4.87,6.15-8.34.5-1.68.92-5.69,1.61-6.91.95-1.67,2.79-.54,2.79,1.36,0,5.35-1.41,11.32-1.45,16.74.04.5-.48,1.29-.97,1.29h-34.95Z"/>
  <path class="st1" d="M286.68,454.81c-.62-.17-.96-1.27-.45-1.87.58-.71,4.04-.96,5.13-1.69,1.04-.69.91-1.72,1.14-2.83-1.03-17.9,1.38-37.37.02-55.09-.37-4.82-2.54-2.49-5.49-3.89-.94-.45-1.54-1.38-.49-2.06l34.04-.08c1.5,2.55,1,5.78,1.2,8.6.15,2.18.5,4.64.58,6.81.03.84.13,2.4-.01,3.14-.23,1.24-1.94.8-2.4-.16-.65-1.37-.86-4.8-1.38-6.58-1.82-6.32-6.64-10.1-13.41-9.59s-5.55,4.8-5.82,10.09c-.29,5.71-.64,11.49.41,17.17,1.05,2.7,6.21,1.85,8.09.4.83-.64,1.4-1.83,1.73-2.81.58-1.7.54-4.64,1.05-5.77.68-1.49,2.57-.93,2.65.63l-.16,22.58c-3.15,3.14-3.17-4.07-3.82-6.11-.72-2.25-1.87-4.11-4.41-4.39-.81-.09-3.77-.13-4.4.15-.91.4-1.03,2.19-1.14,3.12-.61,5.47-.33,11.56,0,17.04.24,4.09-.63,9.64,4.72,10.34,7.96,1.04,13.39-1.49,15.67-9.29.54-1.86.81-5.93,1.56-7.25.58-1.02,2.07-1.47,2.64-.19.14,2.42.02,5.06-.14,7.52-.18,2.79-.5,8.21-1.2,10.73-.09.34-.69,1.34-.93,1.34h-34.95Z"/>
  <path class="st10" d="M195.54,385.6c4.02-.39,10.3.7,13.27,3.62l.73,8.36c-.08,1.42.08,2.87,0,4.28-.03.56-.34,3.66-.43,3.82-.54.91-2,.66-2.54-.31-1.05-1.9-1.85-5.94-2.79-8.28-1.41-3.53-2.95-7.46-7.25-8.09-7.31-1.07-11.1,5.22-9.89,11.87,1.41,7.75,15.23,16.06,20.33,22.57,12.49,15.96,1.78,35.75-18.54,32.15-1.76-.31-7.25-2.03-8.01-3.63-1.19-2.49-.65-8.02-.71-10.93-.03-1.35-1.08-6.14.47-6.61.83-.25,1.59-.09,2.04.69,1.25,2.17,1.84,6.77,3.02,9.47,5.26,12.04,19.54,10.69,20.61-2.68,1.65-20.59-29.53-23.97-25.46-43.9,1.53-7.5,7.82-11.68,15.15-12.4Z"/>
  <path class="st6" d="M260.82,387.23h17.9c.86,0,1.59.84,1.14,1.71-.65,1.27-5.25.65-5.77,3.04-.37,1.72-.56,5.43-.64,7.31-.63,14.28.96,28.62.88,42.9-.05,8.63-.13,27.22-9.28,31.62-4.34,2.08-12.27,1.52-12.06-4.66.12-3.42,3.82-6.23,6.27-3.4,1.4,1.61,2.44,7.92,5.4,4.55s1.72-10.61,1.69-14.76c-.17-21.11.15-42.23.02-63.34,0-3.07-4.63-1.83-5.83-2.98-.67-.63-.47-1.52.28-1.99Z"/>
  <path class="st3" d="M482.55,415.12c4.26-.87,8.2,1.51,8.34,6.03.27,9.22-13.51,8.56-13.1,0,.13-2.74,1.96-5.46,4.77-6.03Z"/>
  <path class="st11" d="M108.85,415.12c7.62-1.56,11.4,7.64,5.46,11.7-5.48,3.75-12.63-2.06-9.52-8.38.58-1.19,2.77-3.06,4.06-3.33Z"/>
  <path class="st5" d="M411.01,399.15c1.35,4.96,2.41,10.06,2.84,15.2.86,10.29.47,41-16.21,38.35-3.15-.5-6.9-3.43-7.04-6.76l19.81-46.38.59-.4Z"/>
  <path class="st7" d="M388.28,442.32c-2.31-8.15-3.23-16.65-2.86-25.14.32-7.19,1.74-20.54,7.55-25.4,5.34-4.46,13.63-3.33,15.65,3.69l-18.88,44.48-1.47,2.36Z"/>
  <path class="st13" d="M347,390.14c18.03-3.03,21.06,25.62,6.34,29.05-2.89.67-8.83.91-9.61-2.92-.24-1.17-.31-4.19-.36-5.6-.17-4.27-.25-9.7,0-13.94.16-2.71.36-6.04,3.63-6.59Z"/>
  <path class="st0" d="M483.7,419.1c3.43-.88,4.54,4.5.74,4.75-2.89.19-3.48-4.05-.74-4.75Z"/>
  <path class="st8" d="M109.69,419.09c2.47-.74,4.57,1.94,2.77,3.9s-5.08.08-4.24-2.24c.14-.4,1.05-1.53,1.47-1.66Z"/>
</svg>