<?xml version="1.0" encoding="UTF-8"?>
<svg id="Layer_1" xmlns="http://www.w3.org/2000/svg" version="1.1" viewBox="0 0 174 168">
  <!-- Generator: Adobe Illustrator 30.4.0, SVG Export Plug-In . SVG Version: 2.1.4 Build 226)  -->
  <defs>
    <style>
      .st0 {
        fill: #6b705c;
      }

      .st1 {
        fill: #6b705d;
      }

      .st2 {
        fill: #727765;
      }

      .st3 {
        fill: #a2a49a;
      }

      .st4 {
        fill: #727664;
      }

      .st5 {
        fill: #6a6f5b;
      }

      .st6 {
        fill: #fefefe;
      }

      .st7 {
        fill: #c9cbc4;
      }
    </style>
  </defs>
  <rect class="st6" width="174" height="168"/>
  <path class="st0" d="M127.37,115.07c-.4.5-.86.47-1.08.46s-.69-.75-.47-1.16l4.3-7.75c12.25-14.29,5.85-21.26,4.28-18.79l-5.68,8.93c-4.28,5.28-9.94,8.87-15.95,11.91-8.71,4.41-9.95,12.92-12.24,21.38l-4.25,15.63c-.16.57-.64.86-.98.8-1.57-.3.36-8.26,1.5-13.04,3.37-14.12,4-22.5,18.03-29.55,6.66-3.34,13.35-9.86,16.2-16.39.67-1.54,2.22-2.96,3.95-2.9,2.08.07,4.74,1.43,4.9,3.43l.51,6.39,4.67-8.87,2.54-10.12c.49-1.94,2.78-3.77,4.55-4.67,1.87-.95,4.72-.36,5.94,1.06s.09,3.32.19,4.66c.16,2.08.03,3.61-.06,5.65l-.36,8.33c-.13,2.87-2.22,5.05-3.26,7.62l-6.19,15.34c-2.77,6.86-15.47,10.03-20.47,19.95l-3.15,10.36c-.18.59-.64.74-.99.7-2.24-.26-1.42-13.48,8.6-21.05,8.29-6.26,11.7-6.02,15.28-15.68l3.38-9.13,3.53-7.39c.91-1.9,1.43-12.65.76-17.1-.13-.88-2.5-.65-3.11-.19-.68.51-1.53,1.28-1.85,2.5l-2.7,10.22c-.95,3.59-2.62,6.31-4.89,9.12l-6.95,8.59-8.47,10.73Z"/>
  <path class="st5" d="M20.6,73.48c-.83-.72-1-2.4-.07-3.02,2.05.25,4.59.16,6.63.88,3.02,1.07,4.83,3.67,5.47,6.52l2.02,9.08c.73,3.28,2.44,5.98,4.41,8.84-.32-5.11-.93-9.68,2.93-11.09,1.6-.58,3.58.16,4.61,1.73,3.25,4.97,6.59,9.9,11.19,13.76,5.88,4.95,18.63,6.75,21.78,19.75l3.53,14.58c.69,2.85,1.47,5.96,1.7,8.89.08,1.01,1.16,3.38-.63,3.3-1.58-.4-.92-3.47-1.39-4.55-.72-1.64-1.19-3.27-1.65-4.88l-5.57-19.29c-2.59-8.99-13.76-10.66-18.75-14.79-4.65-3.84-8.63-8.26-11.36-13.65-.57-1.14-2.59-3.06-3.54-1.72-1.38,5.84,1.34,11.78,4.62,16.56l5.93,8.64c.61.89.51,2.02-.07,2.86-1.6-.56-2.03-2.09-2.99-3.31-2.47-3.13-5.11-6.39-7.62-9.38l-6.39-7.6c-2.18-2.6-3.31-6.21-3.91-9.61l-.58-3.28c-.85-4.78-2.43-9.6-6.88-9-1.32.82.13,3.22.16,4.36l.27,10.91c.07,2.91,4.51,9.26,6.64,18.88.54,2.43,1.28,5.07,3.24,6.88,7,6.47,20.35,9.69,21.69,25.09.06.64.58,1.54.25,2.12-.24.42-1.11,1.4-1.77,1.06-1.49-2.08-1.46-4.88-2.34-7.24-1.65-4.43-4.59-8.34-8.48-10.91l-5.72-3.77c-3.55-2.34-7.59-4.67-8.74-8.83l-2.36-8.59c-1.6-5.82-5.52-10.6-5.53-17.71-.01-4.9.4-9.54-.73-12.5Z"/>
  <path class="st0" d="M120.49,74.04c-1.58,13.32-10.49,21.34-21.16,28.31l-7.25,4.74c-1.56,1.02-3.14,1.42-4.52-.21-7.46-3.89-14.17-8.88-19.85-15.08-6.84-7.46-11.11-15.96-6.27-25.6,2.22-4.42,10.82-8.21,16.69-5.85,5.36,2.15,9.2,3.98,12.2,9.29l3.92-5.43c3.05-2.75,7.47-4.81,11.73-4.65s7.71,2.65,10.56,5.42c2.43,2.36,2.85,5.44,3.97,9.07Z"/>
  <path class="st2" d="M90.43,49.02c-1.05-.27-1.67-1.45-1.75-2.73-.33-5.41-.42-10.76-.03-16.23.12-1.67.06-3.52,1.56-5.02,1.81,4.99,1.28,9.92,1.33,14.95.03,3.05.3,5.83-1.11,9.03Z"/>
  <path class="st1" d="M101.68,50.91c-1.74-1.87-.1-4.13.75-5.97,1.59-3.46,2.86-6.85,5.18-9.73.28-.35,1.11.08,1.08.47-.03.32.29.71-.24,1.23-1.61,4.75-3.32,9.5-6.76,14Z"/>
  <path class="st4" d="M75.02,46.46c.85,1.13,1.33,3.57-.59,2.52l-4.97-8.97c-.74-1.33-1.42-3.16-1.11-4.87,3.53,3.21,5.62,7.24,6.66,11.32Z"/>
  <path class="st7" d="M20.53,70.46c.03.94-.25,2.17.07,3.02-.95-.19-1.09-.91-1.16-1.72s.08-1.42,1.09-1.29Z"/>
  <path class="st3" d="M74.43,48.98c.31-.03.53.11,1.18-.11-.54-.84-.4-1.68-.59-2.41.9.36,1.2,1.36.98,2.6-.09.52-.79.6-1.19.43-.19-.08-.27-.3-.38-.51Z"/>
  <path class="st6" d="M114.97,82.32c-1.58,4.47-5.13,7.92-8.64,11.09l-11.92,8.48c-1.59,1.13-3.36,1.71-4.88,3.27-1.76-1.8-3.39-2.64-5.4-3.84-8.27-4.94-15.78-11.43-20.16-20.05-2.8-5.51-1.98-12.8,3.04-16.2,5.54-3.76,15.44-1.64,18.87,3.55l3.9,5.91,6.7-8.52c1.94-2.47,5.58-2.48,8.49-2.72,6.14-.51,10.5,3.28,11.86,9.12.38,1.62.75,2.61.09,4.47l-1.93,5.45Z"/>
</svg>