<?xml version="1.0" encoding="UTF-8"?>
<svg id="Layer_1" xmlns="http://www.w3.org/2000/svg" version="1.1" viewBox="0 0 231 145">
  <!-- Generator: Adobe Illustrator 30.4.0, SVG Export Plug-In . SVG Version: 2.1.4 Build 226)  -->
  <defs>
    <style>
      .st0 {
        fill: #737867;
      }

      .st1 {
        fill: #969a8c;
      }

      .st2 {
        fill: #9fa396;
      }

      .st3 {
        fill: #e5e6e3;
      }

      .st4 {
        fill: #f8f8f7;
      }

      .st5 {
        fill: #f0f1ef;
      }

      .st6 {
        fill: #d2d4ce;
      }

      .st7 {
        fill: #e7e8e5;
      }

      .st8 {
        fill: #dcdeda;
      }

      .st9 {
        fill: #535a4a;
      }

      .st10 {
        fill: #c8cac3;
      }

      .st11 {
        fill: #cbccc6;
      }

      .st12 {
        fill: #727867;
      }

      .st13 {
        fill: #95998d;
      }

      .st14 {
        fill: #5d6552;
      }

      .st15 {
        fill: #92978a;
      }

      .st16 {
        fill: #aeb2a8;
      }

      .st17 {
        fill: #e5e7e3;
      }

      .st18 {
        fill: #e4e5e1;
      }

      .st19 {
        fill: #919c86;
      }

      .st20 {
        fill: #8c9383;
      }

      .st21 {
        fill: #7c8271;
      }

      .st22 {
        fill: #e4e6e2;
      }

      .st23 {
        fill: #ecedeb;
      }

      .st24 {
        fill: #8f9485;
      }

      .st25 {
        fill: #f7f7f6;
      }

      .st26 {
        fill: #9fa397;
      }

      .st27 {
        fill: #696f5c;
      }

      .st28 {
        fill: #757c6b;
      }

      .st29 {
        fill: #949a8c;
      }

      .st30 {
        fill: #d0d2cc;
      }

      .st31 {
        fill: #fafafa;
      }

      .st32 {
        fill: #6d7460;
      }

      .st33 {
        fill: #8f9487;
      }

      .st34 {
        fill: #e7e8e4;
      }

      .st35 {
        fill: #787e6c;
      }

      .st36 {
        fill: #c1c4bc;
      }

      .st37 {
        fill: #686f5b;
      }

      .st38 {
        fill: #808875;
      }

      .st39 {
        fill: #a1a59a;
      }

      .st40 {
        fill: #fefefe;
      }

      .st41 {
        fill: #969a8b;
      }

      .st42 {
        fill: #d9dbd6;
      }

      .st43 {
        fill: #e8e9e6;
      }

      .st44 {
        fill: #d8dad5;
      }

      .st45 {
        fill: #fbfbfb;
      }

      .st46 {
        fill: #fcfcfc;
      }

      .st47 {
        fill: #c1c5bd;
      }

      .st48 {
        fill: #727c67;
      }

      .st49 {
        fill: #f7f8f7;
      }

      .st50 {
        fill: #94988c;
      }

      .st51 {
        fill: #c6c8c1;
      }

      .st52 {
        fill: #9a9f8f;
      }

      .st53 {
        fill: #d7d8d3;
      }

      .st54 {
        fill: #fdfdfd;
      }
    </style>
  </defs>
  <rect class="st40" width="231" height="145"/>
  <g>
    <path class="st40" d="M195.03,53.54c1.24.83,2.04,2.05,3.39,3.28l-2.51,2.54c-4.92-1.52-8.38,2.32-11.31-.52-.55-.53-1.53-.37-2.08.15-.93.86-2.38.42-2.85-.59-1.1-2.36-2.73-2.41-5.32-2.49-1.49-.04-4.65-.5-5.25,1.46-1.09,3.53-2.35,6.86-5.83,8.5-1.91.91-3.94,3.48-6.27,3.31-1.77-.13-3.25-.66-4.78.45-.58.35-2.11-.21-2.63.16-.77.54-.89,1.46-1.54,2.3l-.99,1.26c-1.08,1.39,1.52,1.37,3.95,2.51,2.84-1.82,4.59-.82,5.22-4.06.88-.65,2.58-.1,3.64.16,1.21-1.75,2.96-2.23,5-2.06l6.69-1.46c4.01.25,7.42.09,11.44-.11,2.42-.12,5.53,2.4,8.06,1.92.49,1.65,1.92,1.55,3.12,2.1,11.7,5.34,21,18.78,19.11,31.47-.4,2.72-5.48-.52-7.96,1.36,1.43.55,1.86,1.31,1.7,2.54-.13,1.07-.79,1.42-2.18,1.83-.6.87.95,1.33,1.38,1.64.68.48,0,1.69-.48,1.84l-1.85.59c1.09.95,1.15,1.86,1.1,3.05-.05,1.09-1.2,1.67-1.74,2.66-1.48,2.76-3.64,5.4-5.77,7.57.73,1.4,1.73,3.06-.12,4.74,2.21-.11,2.93-.31,4.19.15l-1.08,1.05c-1.56.32-8.7,1.07-9.82.74-.5-.15-.84-.63-1.12-1.07-8.53,1.61-17.58,1.64-26.14-.02-.84,1.11-2.15,1.48-3.94,1.12-19.01-2.6-37.92-3.91-56.99-3.14-9.99.97-20.06,1.98-30.23,3.03l-.72-.97c-1.33.59-13.51,1.38-14.01.88-.72-.72.59-1.22,1.44-1.33,4.02.63,7.71-1.53,11.54-2.98,11.48-4.36,13.24-8.57,19.27-17.32,2.7-3.92,4.35-8.34,3.6-13.39s-2.69-9.7-5.59-13.67l-5.76-5.75c-1.68-1.67-3.92-2.58-5.29-4.62.11-1.1.08-2.29,1.04-3.66l27.53,22.98,13.17,10.85c1.48-.2,2.63.49,1.85,2.07-.56.92-1.19,2.77-1.58,4.09-1,3.35,2.01,5.91,4.73,6.83,2.11.72,3.44.36,5.51,0,3.15-.56,6.32-1.23,9.52-1.84l8.36-1.58c1.51.34,2.06,2.81,2.72,3.73l2.79,3.85c3.38,4.66,8.51,7.35,13.61,9.31,2.32,1.31,6.9,1.33,9.83,1.34,1.08,0,2.16-.07,3.24-.2l6.59-1.77c7.32-1.97,13.32-7.16,16.67-14.05,2.08-4.29,2.54-8.79,3.08-13.34l.31-1c5.73,2.23,7.08-1.37,4.83-6.47-.96-3.87-2.81-7.39-5.14-10.93-1.9-2.88-4.91-4.64-7.45-6.96-2.75-2.5-6.03-3.94-9.59-4.94l-4.67-1.31c-3.44-.97-7.54-1.03-11.14-.33l-5.53,1.07c-3.35.65-6.32,2.28-9.4,3.49-2.15.84-4.09,1.6-5.62,3.44-2.75-1.65-6.84-1.24-7.55-3.94-.45-1.72.99-3.25,1.45-4.62.72-2.09,2.23-3.65,4.6-3.29,1.87.28,3.81-.45,5.51-.5,2.84-.09,4.39-1.01,6.44-2.78,1.09-.94,2.1-1.36,2.75-2.7l.23-1.48c-.41-1.33-1.43-5.2.58-4.71,1.12-.63,2.48-.9,4.07-.82.52-1.8,5.12-1.98,6.94-1.81l13.42,3.41c1.54-1.23,3.08-1.97,4.62-2.24Z"/>
    <path class="st27" d="M163.42,132.49c8.6,1.65,17.56,1.61,26.14.02,4.04.36,8.02-.62,12.02-.72l6.9-.18c3.81-.1,7.29.32,11.02.87,1.73.25,3.53-.11,4.72,1.65l-17.72-.07c-3.6-.02-6.94.52-10.48.83l-6.56.59c-7.42.66-14.74.68-22.21.12l-9.3-.69-10.48-.92c-2.11-.19-4.24-.97-6.48-.57s-4.08-.61-6.11-.65l-20.33-.44c-1.87-.04-3.25.02-5.14.05l-10.42.16c-1.4.02-2.36.64-3.62.69l-9.37.37c-3.08.12-5.83.52-8.93.75-1.4.1-2.91,1.11-4.58.72-2.12-.49-4.11.63-6.08.65l-11.43.11-13.93-1.06-7.07-.76c-3.96-.43-7.67-.55-11.44-.56l-4.8-.44-.23-.48c-.1-.37-.07-1.51.41-1.5l10.52.13c5.15.06,11.91,1.84,16.53,1.36.81.46,2.15.79,4.01.98l.38-.44c2.84.34,5.62.31,8.34-.11.14.26.28.47.41.47,3.75,0,7.66-.04,11.43-.21.77-.03,1.35-.26,2-.67l6.46-.3c4.14-.71,8.11-1.24,12.41-1.51,1.6-.1,3.29-1.03,5.08-.69,2.42.46,4.64-.56,6.99-.56l26.53.06,10.96.81,7.04.77c5.61.61,10.98,1.97,16.41,1.38Z"/>
    <path class="st23" d="M58.97,132.08c-.19.21-.64.3-1.04.91l10.54-.07c1.13,0,2.1-.35,3.07-.39-.25.67-1.08,1.16-2.02,1.05-3.25-.39-6.26.07-9.37.18l-5.65.21c-1.99.07-3.74-.5-5.52-.47-1.33,0-2.16-.31-2.52-.93l3.41.06c1.75.05,3.33.75,4.86.08-1-.32-1.48-.37-1.82-.82l6.05.2Z"/>
    <path class="st11" d="M22.54,133.43l-4.9-.02c-.36-.24-.07-.73-.12-.9l5.02.92Z"/>
    <path class="st13" d="M46.48,132.56l2.52.93-3.03.05c-.4,0-.81-.16-.93-.31s-.12-.51-.06-.72c.39-.04,1.14-.07,1.5.05Z"/>
    <path class="st7" d="M189.57,132.51c-1.68,1.78-4.51.37-7.59,1.51h-10.95c-3.06-1.14-5.88.26-7.6-1.53,2.6-.28,8.23,1.06,11.07.92l11.9-.56c1.19-.06,2.18-.43,3.18-.34Z"/>
    <g>
      <path class="st21" d="M107.99,27.56c1.07-1.98,4.19.31,1.33.93-1.34-.6-5.4,2.01-9.88-.93,1.4.04,2.61.91,3.23.56.27-.16.4-.76.28-1.11l.11-.66c1.63.41,3.28.82,4.93,1.21Z"/>
      <g>
        <path class="st37" d="M136.9,54.94c.42.02,1-.16,1.68.26-1.02,1.1-2.48.83-4.1.77.26.74.77.77.96.99.22.24-.05.95-.3,1.09-.61.34-2.42-.92-2.65-2.19,1.2-1,2.89-1.07,4.41-.93Z"/>
        <g>
          <path class="st32" d="M195.03,53.54c-.14,1.07-1.44,1.24-2.1,1.82-1.14,1-1.85,1.71-3.5,1.29l-5.92-1.49c-1.74-.44-2.81-.56-4.36-1.24-2.92-1.28-6.2-.14-9.09.25-1.62-.06-2.98.21-4.07.82-1.17.97,1.05,2.34-.81,6.19.06-.6.12-1.81-.49-2.11-.48-.23-1.33-.07-1.8-.11-.27-.58-.19-1.33.23-2.24-.68-1.48-1.54-2.86-2.59-4.14-1.39.46-1.79-.74-2.69-1.38-4.68-3.35-7.61-7.89-9.15-13.45-.45-1.64-1.31-3.08-1.24-4.71.53-1.49.86-3.03,1-4.63.64-1.18,2.15-1.61,2.85-2.52l3.38-.78c.78-1.27,4.25-2.27,5.36-1.28l5.72,10c3.82,4.75,8.73,8.82,14.21,11.53l9.54,3.09,5.46,1.5.08,3.61Z"/>
          <g>
            <path class="st50" d="M147.45,33.03c.07-1.62.22-3.18,1-4.63.12,1.64.36,3.52-1,4.63Z"/>
            <path class="st30" d="M154.68,25.11c-.56.92-1.82,1.25-3.38.78.8-1.04,1.71-1.17,3.38-.78Z"/>
            <path class="st52" d="M170.06,54.17c-1.35.19-2.65.88-4.07.82,0-.15-.02-.52.1-.67.15-.19.45-.36.87-.35l3.11.21Z"/>
            <path class="st54" d="M164.77,46.01c1.21.87,1.99-.31,1.46-1.52l-1.75-5.2c4.66,2.03,7.02,6.22,9.8,7.11,1,.32,2.22,1.96,3.61,1.5.2.41.21,1.15.08,1.31-.19.24-1,.23-1.21.44-1.37,1.31-2.7,1.05-4.25,1.42-10.02,2.41-16.7-2.37-20.44-11.69-1.29-3.22-2.35-6.45-.91-9.76.4-.92,2.25-1.07,2.97-1.48,1.91-1.07,3.88-.74,5.27.98l2.21,2.75c.88,1.09,1.16,2.27,2.5,3.05.32.19.52.99.37,1.32-.6,1.36-2.34-1.69-4.06-1.24-.63.17-2.1.86-1.64,1.74,1.41,2.66-2.01,2.97,5.99,9.28Z"/>
            <path class="st42" d="M189.54,52.51c.82-.64,1.53,0,1.43.98-.22.53-1.18.94-1.93.65l-7.78-3.03c3.26-1.69,6.03,1.17,8.28,1.4Z"/>
            <path class="st9" d="M190.97,53.49c-.59-.13-1.08-.47-1.43-.98.08-.59.53-.8,1.26-.79l2.79.04c-.25,1.03-.16,1.45,0,2.33l-2.62-.6Z"/>
            <path class="st33" d="M164.77,46.01c.5.35,1.21.32,1.37-.23.09-.31-.04-.85.09-1.29.64.38,2,1.56,1.16,2.27-.79.67-2.01-.28-2.61-.75Z"/>
          </g>
        </g>
        <path class="st14" d="M145.48,57.97c1.82.04,3.34.38,4.57,1.02.76.47.27,1.37-.37,1.49-.88.16-1.29-.39-1.73-1.03-1.13-.81-2.74-.44-3.92-.47-.18-.54-.2-1.04-.15-1.55.58.07,1.13.24,1.6.54Z"/>
        <g>
          <path class="st37" d="M113.5,24.47c-1.06.66-2.25,1.16-3.58,1.49l-.56.03c-.01,1.53-6.24.2-5.36-1.53-.59.16-1.18.14-1.79-.06-4.81-2.25-7.63-2.02-12.39-.47-2.58.84-6.35,2.31-8.69,4.8-1.59,1.69-3.81,4.59-3.21,6.87,1.83.94,3.25.86,4.15-1.05-.61-.86-.46-1.89.46-3.09,1.88-5.7,2.68-6.03,8.18-7.74,4.91-1.52,5.99-1.25,10.83.43.39.14.48.5.41.94.92.17,1.85,1.42,1,1.93,2.62,2.19-1.88,1.51-3.51.56-2.33-.06-3.31-1.93-8.11-.29-2.23.76-3.8,1.55-4.76,3.85l-2.26,5.4c4,3.01-.23,8.2-.89,14.64,2.53,2.01,4.26,4.68,5.87,7.35,3.29,1.91,5.12,5.01,7.62,7.57,1.62,1.66,2.93,3.36,4.5,5.03l8.92,9.56c2.78,2.98,5.3,5.92,8.22,8.8,3.21,3.16,6.06,6.62,9.99,9.45l6.36-13.54c1.99-4.24,4.05-9.19,5.97-12.54l2.44-4.23c.53-.93,1.81-3.27-.02-3.81-1.18-.35-2.73.43-3.86-.24.23-.96-.44-1.34-1.99-1.14l-.4-.49c-2.01.69-7.17-1.77-7.48-3.23-.25-1.13.12-1.88.86-2.68,1.36-.7,2.02-.71,2.38.93,1.41.67,2.3,1.52,2.66,2.55.73-.94,1.93-1.04,3.59-.29,2.96.53,5.89.64,8.79.35,1.34,1.94,2.21,1.85,4.54,1.56,1.64-.2,5.97-1.66,3.78-3.23-2.38.89-4.9.6-6.69-1.1-2.31.12-4.14-.34-5.49-1.37-1.16,2.01-4.5.26-3.85-1.93l18.65-.28c1.83-.56,3.26-.18,2.23,1.75.61.4.76,1.2.43,2.41l.46.57c.31-1.38.43-1.3,1,.02,2.52-2.04,2.99-.31,2.29,2.22.14.26.26.52.32.8.64,2.9-10.53,6.88-13.37,6.21-3.97-.93-5.67,2.06-6.67,5.51-.73,2.53,5.92,4.24,6.3,4.07,16.32-10.69,36.41-11.54,51.14,2.64,2.91,2.8,7.84,9.54,8.2,13.44.06.6-.26,1.16-.58,1.65,2.05,4.99,1.26,8.08-4.59,6.89,1.73-12.01-11.91-23.7-22.82-25.55-.37-.06-.53-.42-.56-.83-1.84-.72-3.86-1.03-6.08-.93l-.12.67c13.95.76,23.55,8.08,29.02,21.43.61,1.5,1.07,2.8.38,4.41.98.73.82.96-.36,1.38.82.78,1.26,1.39.19,1.83.7,1.95.41,3.52-.86,4.7.34,1.1.36,2.14.05,3.12-.94.51-1.2,1.3-.79,2.37-3.43,9.53-14.41,17.48-24.46,17.64-.15,0-.3-.21-.46-.48-4.06.44-8.22-.02-12.26-.47-.43-.05-.7-.21-.81-.67-.42.3-.9.54-1.43.51-.97-.06-4.69-2.16-5.8-2.84-5.68-3.51-8.74-8.21-12.02-13.6l-19.87,3.83c-5.24.22-9.75-2.75-9.09-8.45.14-1.17,1.09-4.13,2.55-3.82-1.07-1.24.93-2.85,2.31-2.58-.42-1.15.18-2.12,1.81-2.92-2.96-1.75-5.61-4-7.94-6.75l-27.25-28.96-6.26-7.99c-.63,3.5-1.68,6.81-3.13,9.93.76,1.63,2.26,3.01,4.52,4.13,11.67,9.54,23.28,19.27,34.85,29.21,1.04.91,1.94,1.75.77,2.85,1.75,1.02.03,2.54-1.51,1l-1.09.4-39.34-32.6-.39,1.77c8.48,6.58,15.35,13.19,16.78,24.72.97,7.82-5.85,18.03-11.11,23.53-4.01,4.19-18.3,11.95-23.98,10.22-.16-.05-.27-.24-.38-.48-.59.09-.98.38-1.18.86-1.68.11-3.31-.24-4.87-1.06-5.06-.17-9.26-2.74-13.3-6.06-5.39-4.44-9.44-10.16-11.23-17.18-.88-3.47-.6-7.77-.02-11.22.68-4.01,2.49-7.28,4.27-10.69,3.25-6.24,13.11-12.81,20.11-14.08l4.28-.78c5.39-.98,10.48-.92,15.47,1.9,1.29-.52,1.39-2.57,1.73-3.52.46-1.3,1.11-1.98.16-3.43-1.91,1.49-3.7.63-5.71.58l-13.23-.37c-1.6-.05-3.65-.32-4.99-1.08-4.62-2.62-5.42-2.74-6.33-7.94l-2.09-11.93c-.31-1.8,1.9-1.48,2.77-1.71,2.12-.55,3.57-.95,5.6-.95,5.81,0,5.88-6.14,9.68-7.64,7.64-3.02,12.7,1.44,14.15-3.05,1.33-4.12,3.99-7.47,7.87-9.6,2.19-1.2,4.55-2.69,6.97-3.38,1.59-.46,2.69-.75,4.14-1.51,2.43-1.26,5.57.3,7.91.92l5.98,1.59,7.63-.47c1.13-.07,2.36,1.06,3.52.77.16.37.15.96.12,1.15-.07.42-.76.34-1.15.52l-3.75,1.74Z"/>
          <g>
            <path class="st40" d="M122.63,104.01c-.86.97-2.19.67-2.64-.49-.2-1.22-1.44-2.13-2.52-2.98-2.87-2.24-5.17-4.77-7.93-7.03l-11.84-9.67-13.94-11.6c-2.53-2.1-6.42-3.25-4.31-6.28,1.06-1.52,2.19-7.55,3.02-11.35,3.83,6.66,8.78,11.43,13.75,16.69l14.55,15.41,4.35,4.69c3.15,3.4,6.26,6.74,10.12,9.36-.39,1.89-2.2,2.39-2.61,3.25Z"/>
            <path class="st34" d="M122.63,104.01c-.5,1.04-1.8,1.75-2.31,2.58l-1.85-2.07c.32.04.78.03,1.12-.14.24-.12.34-.62.39-.86.76-.29,1.68.1,2.64.49Z"/>
            <g>
              <path class="st48" d="M162.9,58.95c-.3-.02-.7-.1-1-.02-.67-.22-.8-1.07-.4-2.56l-.49-.42c-.39-1.06-1.21-1.56-2.49-1.54l-17.74.25c.54,2.14,2.15,1.41,3.2,1.74,1.26.48,1.24.69-.1,1.01,1.01.37,1.02.92.15,1.55-.09.43-.36.98-.71.94-3.28-1.38-5.9-1.19-7.86.59-1.09.01-2.46-1.27-3.41-2.06-.25-.21-.07-1.33-.34-1.46-.29-.15-.95,0-1.29.04.56-.61,1.51-.69,2.07-1.16.95.3,1.42.23,1.42-.21,3.76-.41,4.85-.48,3.28-.21l-.3-.5c.3-.26.76-.64,1.37-.67,6.79-.37,13.38-.25,20.21-.26,1.09,0,1.89-.58,2.05-1.43,1.3-.43,3.56,2.59,3.59,4.17.01.84-.52,1.59-1.22,2.2Z"/>
              <path class="st38" d="M139.43,64.56c-.78-.46-2.47-.16-2.39-1.62,1.53-.52,3.51-.51,5.04.56-1.17.64-2.02.49-2.65,1.07Z"/>
              <path class="st40" d="M201.53,107.61c-.51.96-.81,2-.9,3.13-1.31,2.52-2.03,5.29-3.95,7.49-1.39,1.6-3.02,3.44-4.78,4.52-6.57,4-13.77,6.96-21.05,5.13-2.13-.53-4.17-.82-6.21-2.02-1.3-.77-2.85-1.23-4.24-1.68.13-1.39,1.03-2.21,1.94-2.78,1.38-.86,1.99-1.94,3.03-3.05l6.31-6.65c1.48-1.56,2.7-2.86,4.86-3.5-.27-.81-.01-1.43.28-1.56.39-.17,1.03-.13,1.17.15.09.19.27.98.13,1.24-1.14,2.2-.42,4.57-.21,6.98.31,3.55-.22,7.58,1.19,11,2.78-.23.81-5.44.66-8.62l-.28-5.93c-.07-1.51-.49-3.25,1.01-4.31,2.69,3.66,5.55,6.36,8.59,9.26,1.27,1.21,1.88,3.02,4.33,3.27-.58-1.28-1.09-2.9-2.13-3.97l-11.02-11.29c1.65-.94,3.39-.91,5.23-.93l13.92-.12c.5,0,1.93-.91,1.97.29l.14,3.94Z"/>
              <path class="st54" d="M146.72,99.34c-.69-.19.25-1.56.64-1.9,2.93-2.58,4.8-5.56,6.91-8.66l2.83-2.46,3.99,3.59c3.47,3.12,7.16,5.73,10.11,9.49l-24.48-.06Z"/>
              <path class="st4" d="M176.47,75.05c2.21-.09,4.23.22,6.08.93l2.33.13c3.96,1.1,7.29,3.18,10.62,5.4,4.05,2.69,7.17,5.77,9.37,10.18,1.63,3.27,3.26,7.71,1.06,10,1.88.57,3.18.45,4.85.05.52-2.25.23-4.29-.26-6.28,1.21.27,1.57,5.45,1.23,5.99-.37.57-1.11,1.49-2.24,1.49h-4.13c.48-4.1-2.04-7.28-2.32-7.94-2.75-6.5-6.99-11.56-13.29-14.85-1.4-.73-2.58-1.85-4.37-2.15l-10.8-1.81c-1.15-.19-2.87.44-4.02.81l-10.36,3.3c-1.35.43-2.46,1.93-3.72,1.99-.38-.26-.85-.86-.96-1.08-.02-.04,3.17-1.98,6.78-3.32l4.35-1.61,3.96-.92,5.84-.29Z"/>
              <path class="st54" d="M137.15,98.57c-1.48-.11-3.31-.92-4.48-.07-.4-.16-.66-1-.49-1.16l.87-.83,6.41-13.64,3.05-5.77c2.15,2.22,4.18,3.5,7.16,4.02-2.63,3.09-5.69,5.38-7.42,9.1-1.28,2.75-2.96,5.85-5.09,8.35Z"/>
              <path class="st54" d="M159.38,122.83c-3.59-2.78-6.05-6.01-8.09-9.75,3.23-1.2,6.17-.31,9.25-.76,2.73-.4,5.46-1.47,8.41-.41l-8.61,8.92c-.57.59-.8,1.26-.96,2.01Z"/>
              <path class="st19" d="M135.46,60.5c-.02-.24-.13-1.35.42-1.67,3.12-1.86,6.03.1,8.15.15.07-.26.17-.51.34-.67.2-.19,4.58.74,5.13,1.38l.55-.71c-1.13-.71-2.66-1.05-4.57-1.02-.55.78-1.43.41-1.6-.54l.1-1.01c2.15.69,4.19.87,6.5,1.34,1.97.4,3.8,1.34,5.82-.28.69,1.05,1.44,1.41,2.43,1.93-2.37,3.24-5.49,4.02-9.36,3.75-.96-.07-2.48,1.79-3.71.11,1.1,0,2.66-.81,2.46-1.49-.79-.83-2.13.14-2.7.08l-6.27-.64c-1.43-.15-2.4-.74-3.7-.73Z"/>
              <path class="st25" d="M147.45,107.49c3.51-.54,7.1-.82,10.78-.83,1.56.04,2.8-.54,4.29-.52l9.51.12c.13,0,1.36,1.06.68,1.18l-1.02.18c-1.94,1.65-4.24,2.28-6.64,1.5-4.83,1.24-9.49,1.75-14.6,1.26-1.19-.11-2.93-1.83-3.02-2.89Z"/>
              <path class="st45" d="M132.01,112.48c-2.21,1.14-6.89,2.81-8.9.93-2.83-2.66,2.59-9.55,5.63-9.36.88.05,2.49.75,2.61,1.98l.66,6.45Z"/>
              <path class="st49" d="M162.02,103.45c-6.38.79-12.83,1.11-19.34.97-2.23-2.74-.85-2.84,1.96-2.99,8.01.46,15.98.32,23.92-.42,2.41.17,6.23.99,5.8,1.75-4.3.8-8.33.96-12.35.7Z"/>
              <path class="st25" d="M140.54,99.31c.07-.76.66-1.78.65-2.19.49.26.7.49.81.65.26.38.54.07.52-.1-.31-2.55,4.42-8.1,7.57-11.07l1.88-2.61c.52-.71,1.46-.74,2.06-.3s.69,1.59-.06,2.3c-2.12,2.03-7.5,9-8.28,10.73-.87,1.95-3.12,3.31-5.15,2.58Z"/>
              <path class="st31" d="M145,109.03c.18.65.47,1.24,1.16,2.12-2.41,1.27-4.78,1.24-7.47,1.56-.92.11-1.77.68-2.83.36-.75-.23-1.08-.75-1.5-1.6-.05-.85.05-1.15.31-.89-1-1.34-.36-2.06,1.92-2.16l.42.07c2.53-.38,5.01-.42,7.43-.09l.56.64Z"/>
              <path class="st41" d="M168.57,101.01l-.21,1.17c-1.52-1.2-2.92-.33-4.47-.32l-16.36.06c-1.9,0-3.59-.67-5.64.29l1.79,1.78,14.29-.09c1.46,0,2.77-.54,4.06-.46-1.93,1-4.14,1.06-6.54,1.07l-12.69.06c-.41.05-1.18,1.04-1.56,1.12-.57.13-.96-.45-1.35-.59.53-.77.61-1.52.22-2.24l.83-.98c2.79-1.19,5.48-.57,8.65-.56l10.91.04c2.86,0,5.4-.55,8.08-.35Z"/>
              <path class="st49" d="M140.93,101.89c.06.89.54,1.61.65,2.72.05.51-1.3.65-1.7.5-.49-.16-1.55.33-2.08-.18-.36-.34-.48-1.05-.39-1.88l-.84.38c-1.4,1.07-3.21-.75-1.03-1.61l5.4.07Z"/>
              <path class="st5" d="M135.53,101.82c-.07.49-.1.94.01,1.41.11.44.58.4,1.02.2.01.52-.45.79-.8.69l-1.49-.42c-.77-.22-1.71-.23-2.13-.61-.68-.61-1.04-1.49-.79-2.79,1.12-.08,2.47-.25,3.49.14-.05.44-.11.96-.03,1.15s.49.3.71.23Z"/>
              <path class="st24" d="M158.23,106.66c-.9.72-2.21.18-3.21.32-2.78.38-5.09.77-7.57.51-.04-.55,1.03-1.06,1.53-1.05l9.25.22Z"/>
              <path class="st7" d="M179.06,132.11c-3.33.9-6.83.31-10.56-.19l-1.74.12c-.42.03-1-.27-.77-1.07,2.38.91,9.12,1.13,13.07,1.14Z"/>
              <path class="st6" d="M145,109.03c-2.55-.92-5.36-.12-7.99-.54.74-1.03,2.97.02,5.62-.92.58-.21,1.37-.18,1.77.22.27.27.46.76.6,1.25Z"/>
              <path class="st20" d="M161.9,58.93c-.66.19-1.82.36-2.24-.35-.23-.38-.08-1.04.09-1.07s.56.13,1.05.37c.31-.63.21-1.34.21-1.93.11-.18.61-.43.89-.31.3,1.07.2,2.29,0,3.29Z"/>
              <path class="st3" d="M136.58,108.42c-.37.43-1.09.63-1.9,1.05.19.44.63.72.73,1,.18.47-.43,1.05-1.06,1-.5-.99-1.01-2.15-.34-3.48.96.4,1.79.3,2.56.43Z"/>
              <path class="st2" d="M182.56,75.99l-6.08-.93,4.54-.07c.83-.01,1.35.44,1.54,1Z"/>
              <path class="st47" d="M200.63,110.73c-.31-1.32-.32-2.76.9-3.13.06,1.62-.39,2.15-.9,3.13Z"/>
              <g>
                <path class="st40" d="M177.98,78.45c1.55.57,3.28.83,5.2.76,3.75,1.63,8.13,3.24,11.04,6.44,3.25,3.56,5.8,7.31,6.52,11.74l.32,2.9c-1.57.06-3.1.3-4.58.71l-13.49-.02c-1.09,0-2.25-.69-3.41-.17-.41-.03-.78-1.02-.7-1.38-.79-.42-1.62-.75-2.48-.99l-4.66-4.22c-2.99-2.71-5.37-5.97-8.79-7.86-1.44-.8.25-2.46.21-2.32-.1.34-.71.84-1.09.93-.9-.17-2.01-.83-2.23-1.73,1.37-1.54,3-1.77,4.49-2.43,4.52-2.02,8.97-2.67,13.64-2.35Z"/>
                <g>
                  <path class="st22" d="M196.49,101.01c.14-.59.66-.92,1.49-.96l2.66-.13.11-2.52c.17,1.05,1.21,2.06.64,3.71l-4.89-.1Z"/>
                  <path class="st17" d="M183.19,79.21l-3.7.31c-.84.03-1.35-.44-1.5-1.07,1.92.13,3.41-.02,5.2.76Z"/>
                  <path class="st1" d="M162.96,86.36c-.42-.23-.9-.21-.87-1.4.04-.55.28-1.01.64-1.51s1.59-.1,1.64.36c-.33.57-1.07.92-1.55,1.21-.32.2-.11.92.14,1.34Z"/>
                  <path class="st16" d="M178.89,99.43c-1.1.17-1.75-.33-2.48-.99.83,0,1.53-.15,2.53-.5.14.7.03,1.16-.05,1.49Z"/>
                  <path class="st0" d="M186.51,95.83c-.6.8-1.76,1.17-2.03,2.12s-.89,1.11-1.32,1.42c-.64.48-2.12.02-1.68-.81.96-1.81,2.42-3.34,3.72-4.86l4.12-4.83c.78-.92,1.26-1.71,3.02-1.25-.15,1.4-1.34,2.2-2.27,3.45l-3.56,4.77Z"/>
                </g>
              </g>
              <path class="st48" d="M150.05,58.98c-1.77-.96-3.68.09-4.57-1.02l3.57-.02c.42,0,.73.17.87.35.11.15.13.52.13.69Z"/>
            </g>
            <g>
              <path class="st18" d="M109.36,25.99c.37.36,1.77.68,1.94,1.52.23,1.16-1.31,1.29-1.98.98.2-.31.49-.43.71-.96-.93.11-1.42.09-2.04.03l-1.37-.45c-2.65.05-3.86-.66-3.62-2.12-.19-.53.15-.71,1-.54l1.57,1.31,3.79.22Z"/>
              <path class="st18" d="M113.5,24.47c-.57,1.34-2.2,1.41-3.58,1.49.76-1.1,2.42-.95,3.58-1.49Z"/>
              <path class="st40" d="M59.95,105.18c.74,1.26.98,1.87.59,3.37.05,1.79.04,14.09-.48,14.6-.15.15-.35.25-.57.33.44.35.92.22,1.44-.41-.47.04-.72-.09-.7-.47.24-5.07.51-10.16.79-15.26.49-1.09,1.51-.77,2,.13.24-.07.5.09.53.34l1.33-.08,7.75,7.84-.2,1.22,4.5,4.74-4.27,2.19c-10.83,5.55-21.91,6.36-31.54-2.09,4.84-4.91,9.57-10.16,15.24-14.78.98-.8,2.31-2.29,3.59-1.67Z"/>
              <path class="st40" d="M78.62,99.71c-2.26.06-4.32-.34-6.62.42-2.62.86-5.16,1.31-8.21.81,3.73-3.64,8.83-11.3,10.29-15.79l2.04-6.29c6.69,5.84,12.21,10.84,13.41,20.33-1.06.31-2.86,1.01-3.94.71-2.46-.68-4.39-.24-6.98-.18Z"/>
              <path class="st40" d="M77.61,118.99c-1.55-.75-2.71-2.08-3.64-3.5-.32.21-.63.38-.94.36-.58-.03-7.48-7.55-8.06-8.39.23-.54-.08-1.04-.93-1.48-.41-.95-.37-1.44.33-2.01,1.68.27,3.05.11,4.13-.49,2.73-.55,5.33-1.52,8.34-1.37,4.19.21,8.31-.61,12.72-.06-.55,2.35-1.16,4.7-2.45,6.64l-6.54,9.81c-.38.57-1.22,1.02-1.78,1.09-.36.04-.81-.54-1.18-.59Z"/>
              <path class="st46" d="M79.83,44.57c-3.1,1.29-6.36-.52-9.31-.85-1.98-.22-3.77-.28-5.64-.32-2.49-.06-5.05,1-7.71-.36,5.44-9.24,15.02-3.19,20.18-3.87,1.29-.17,3.68-.31,4.07,1.4.22.97-.54,3.52-1.59,4.01Z"/>
              <path class="st45" d="M52.84,53.28c.82-.44,2.14-.61,2.71.15.55-.06,1.64-.38,2.35.32.25.66-.42,2.14.52,2.92.27-1.64.57-2.73,1.35-3.65,2.69,2.08,5.72,1.27,8.08,2.18l-.42,5.14c-2.99,1.01-5.42,0-8.09-1.21l-5.34.09c-1.55.03-2.39-.46-2.78-2.11-.23-.97-.66-1.58-.21-2.33.54-.89,1.13-1.16,1.82-1.5Z"/>
              <path class="st31" d="M104,24.46c-.19.38-.6.5-1,.54.32.89-.03.92-1.05.09l-4.26-1.3c-3.68-1.13-12.99.98-13.94,7.04-.22,1.41-1.18,2.52-1.68,3.73-.83,1.95-2.44,1.98-4.15,1.05-.29-.24-1-.27-1.2-.58-.74-1.19,3.2-7.64,6.49-9.27l3.66-1.81c.93-.46,2.2-.63,2.98-1.18.25.16.67.55.88.51-.2.04,3.39-3.97,13.26,1.19Z"/>
              <path class="st25" d="M56.44,46.94c1.51-.76,4.34-.51,3.06,1.5-.02.53,0,1.45-.65,2.12-1.66-1.05-3.65.23-5.19.12-1.26-.09-2-1.04-3.42.25s-1.45,3.83-.42,5.63c.31.53-.48,1.05-.59,1.32-.74,1.83-2.57-1.41-1.5-7.35-1.08-.45-1.94-1.31-1.7-2.2.35-1.25,1.12-1.42,2.45-1.41l7.96.03Z"/>
              <path class="st12" d="M63.02,107.47c-.28-.1-.48-.42-1.13-.47.44,3.32-.31,6.21-.52,9.29l-.44,6.79c-.36,1.38-.52,1.68-1.44.41l.05-15,.41-3.3c1.1,2.15,3.23.59,3.07,2.29Z"/>
              <path class="st25" d="M78.01,57.01c-.26,1.31.2,3.12-1.11,4.4-.25.25-.26,1.19-.83,1.41-.47.18-1.09.04-1.65-.52-.31-.31.2-1.14.08-1.75-.41-2.08-.74-3.85-.46-6.27,1.67-.24,4.61.75,4.81.97.75.84-.75,1.38-.83,1.77Z"/>
              <path class="st49" d="M70.47,51.48c-2.63-.51-5.1-.63-7.78-.25-1.01-.47-.96-2.98-.4-3.73,4.43.89,8.69-.32,9.3,1.77.18.62-.22,2.39-1.12,2.21Z"/>
              <path class="st35" d="M77.61,118.99c-1.66-.22-2.99-1.56-3.73-3.53l-1.46,1.33-8.88-8.98c.44-.27.81-.21,1.47-.49-.52-.44-.77-.86-.98-1.34,1.03.03,1.66.78,2.4,1.56l6.07,6.38,5.11,5.07Z"/>
              <path class="st7" d="M63.91,63.53c-2.04,1.17-3.78-.02-5.52-.24-5.03-.65-10.05-.7-9.41-3.42,5.23,2.4,9.99.7,14.93,3.66Z"/>
              <path class="st4" d="M78.8,52.31c-1.23.08-2.63-.68-3.88-1.44,1.29-1.7,3.51-2.35,5.52-1.32-.21,1-.82,2.32-1.64,2.76Z"/>
              <path class="st43" d="M73.44,62.86c-1.21.31-2.14.26-3.26.05-.96-1.97,1.71-3.97,2.05-3.88,1.34.38-.15,2.28,1.21,3.82Z"/>
              <path class="st5" d="M69.61,59.04c-.42-1.4-.67-2.96-.24-4.94,1,.31,1.33,1.19,1.46,1.81.22,1.07-.08,2.14-1.22,3.13Z"/>
              <path class="st29" d="M59.5,48.44c-.17-1.66-1.74-1.49-3.06-1.5.86-.73,2.53-1.34,3.52-.57.62.48.65,1.19.31,1.55-.17.18-.53.37-.77.52Z"/>
              <path class="st53" d="M68.5,103.48c.45,1.23-1.73,1.47-4.13.49,1.23-.98,2.8-.22,4.13-.49Z"/>
              <path class="st51" d="M103,25c.45,2.51,3.08.77,4.99,2.57l-5.04-.56c-.02-.77-.43-1.42-1-1.93l1.05-.09Z"/>
              <path class="st44" d="M77.92,35.6c1.73.55,2.91.25,4.15-1.05-.32.78-.31,1.88-1.33,2-1.1.12-2.07-.32-2.82-.94Z"/>
              <path class="st8" d="M55.55,53.43c-.9.1-1.77.08-2.71-.15.42-.22.49-.97,1.43-.88.7.07,1.34.07,1.29,1.03Z"/>
              <path class="st39" d="M59.49,123.48l1.44-.41c-.05.78-.33,1.36.08,2.56.13.38-1.13.76-1.36.21-.29-.71-.16-1.69-.15-2.36Z"/>
              <g>
                <path class="st40" d="M62.04,95.49c-.86-2.95-1.11-6.1-.74-9.46l-.25-1.07c.01-1.94.23-4.16-1.38-6.11l-.15,17.15c.62,1.24.82,2.9.04,4.11-.54.3-1.16.11-1.81-.33l-8.97-6.03-5.33-3.28c-.58-1-2.01.06-1.31,1.01,3.41,3.46,7.19,6.29,11.44,8.9l3.22,2.68c-2.9,2.4-5.22,4.56-7.59,7.18-2.73,3.01-5.65,5.58-8,9.04-.24.36-.14,1.41-.96,1.26-2.25-.43-6.68-8.09-7.84-12.85-.76-3.14-.42-6.78-.07-9.98l1.6-4.71c1.03-3.04,2.48-5.61,5.22-7.39l1.68-2.26,6.63-4.32c2.43-1.58,5.65-2.32,8.59-2.8l10.93-.09c1.38-.01,2.82,1,4.22,1.16,4.92.56-4.2,16.39-9.33,21.52-.33-1.23.29-2.3.17-3.32Z"/>
                <g>
                  <path class="st15" d="M62.04,95.49c-.62-.11-1.07-.64-1.06-1.46l.07-9.07c.33.26.58.86.52,1.49-.33,3.25.12,6.13.48,9.04Z"/>
                  <path class="st26" d="M59.55,100.1l-.04-4.11c.65.43.89,1.15.99,1.81.16,1.01-.1,1.84-.96,2.3Z"/>
                  <path class="st10" d="M43.44,90.46c-.41-.4-.75-.42-1-.24-.48.35-.48.93-.3,1.25-.55-.56-.72-1.08-1.05-2.29.33-.26,1.17-.13,1.74.2.3.18.54.56.61,1.08Z"/>
                  <path class="st28" d="M49.43,102c-.01.69-.8,1.17-2.37,1.43-5.27-.03-12.67.6-12.49-1.09s6-1.57,10.23-1.04c1.59.2,2.96.85,4.62.7Z"/>
                  <path class="st36" d="M47.06,103.43c.51-.84,1.49-.94,2.37-1.43.51-.05,1.5-.19,1.89,0,.5.25.23.95-.08.97-.19.01-.41,0-.77-.25-1.15.93-2.27.71-3.4.7Z"/>
                </g>
              </g>
            </g>
          </g>
        </g>
      </g>
    </g>
  </g>
</svg>