<?xml version="1.0" encoding="UTF-8"?>
<svg id="Layer_1" xmlns="http://www.w3.org/2000/svg" version="1.1" viewBox="0 0 595.28 841.89">
  <!-- Generator: Adobe Illustrator 29.8.7, SVG Export Plug-In . SVG Version: 2.1.1 Build 1)  -->
  <defs>
    <style>
      .st0 {
        fill: #fbf2e5;
      }

      .st1 {
        fill: #f0b968;
      }

      .st2 {
        fill: #faebd4;
      }
    </style>
  </defs>
  <path class="st1" d="M295.23,292.96c64.38-1.99,118.36,48.48,126.58,111.18,11.23,85.69-64.92,161.29-151.01,141.73-45.33-10.3-81.75-46.58-93.89-91.2-21.53-79.08,36.25-159.18,118.33-161.71ZM293.68,296.05c-77.94,3.35-132.96,78.67-114.88,154.29,18.18,76.01,102.93,119.54,174.05,82.24,57.82-30.33,82.59-100.29,57.1-160.76-19.41-46.04-65.51-77.95-116.26-75.77Z"/>
  <path class="st1" d="M294.12,301.58c42.05-1.77,81.82,21.45,103.15,57.07,35.41,59.14,14.64,136.64-46.12,168.93-63.47,33.73-140.02-.01-163.46-66.04-26.73-75.31,26.38-156.59,106.42-159.96ZM357.34,505.82c-3.07.38-6.91-.11-10.05-.44-1.73-.19-3.59-.35-5.3-.67-.36-.07-.38.15-.34-.43,4.63-.82,8.81-3.4,13.14-4.87,5.77-1.95,6.21,0,10.86,2.18.51.24,2.96,1.27,3.33,1.31.76.1,2.87-.88,4.13-.85,2.3.05,5.01,1.87,6.92,1.96.33.01.34-.01.61-.16.58-.34,2.89-3.05,3.53-3.77,50.3-56.77,33.74-148.6-33.02-184.11-81.11-43.14-175.04,23.25-169.19,112.65,1.79,27.44,13.15,54.15,32.03,74,2.27-.26,4.54-1.24,6.79-1.82,5.99-1.55,10.88-3.02,17-1.01,4.76,1.57,9.37,4.34,14.41,5.36l-1.68.41c-3.15.06-6.26,1.23-9.36.47l.33.66c-2.43,0-4.72-1.16-7.18-1.32l.61.37c1.21.41,2.79.4,3.93.93.19.09.69.09.31.46-.19.18-4.39.96-5.08,1.11-2.52.52-5.09.87-7.59,1.49l-2.68-1.7,1.44,1.98c-.97.27-2.01.1-2.99.22-.33.04-.68.17-.33.44,1.11,0,2.36-.33,2.54,1.1l-1.44-.33c1.21,1.83,3.05.94,4.86,1.44l-.21-.78c.17-.11.42.08.66.11.26,1.7,3.16,1.95,2.43.22.77.01.92.96,1.66,1.1.46.09,4.52-.08,4.53-.33-1.04-.28-2.59-.1-3.6-.38-.86-.24-.85-1.33-2.45-1.21-.17.01-.37.33-.47.33-.2,0-.87-1.46-1.65-1.06-.07.05,1.19,1.32-.44.22-.01.15.01.3,0,.44-.14-.09-.53-.06-.68-.31l-.87-1.23c2.48-.23,4.9-1.05,7.29-1.55,9.33-1.96,18.93-2.51,28.23-4.35,1.04-.21,2.09-.28,3.15-.39l.76-20.23c1.76.87,3.53,1.6,5.42,2.12l-.23,20.63c-.56.54-4.8-1.7-5.63-1.78-1.1-.12-6.98,1.13-7.52,2-.92,1.5,2.5,2.62,3.47,2.94,6.93,2.27,18.48,2.74,25.91,3.02,13.13.49,31.68.29,44.28-3.41,2.31-.68,8.14-2.53,2.75-4.07-.88-.25-4.54-.55-4.71-.71-.07-.06.03-.4-.09-.55-.13-.17-.47-.18-.57-.43-.14-.4.01-.97-.04-1.41-1.02.65-.72.98-.88,1.88-.13.76-2.72,1.51-3.54,1.44-.17-.93.72-3.41-.77-3.52-1.57-.12-1.18,3.17-1.24,4.16-12.76,2.39-25.92,3-38.85,2.01v-20.32c8.92.38,17.92.38,26.8-.69,4.71-.57,10.12-1.45,14.55-3.12,1.6-.6,3.04-1.45,4.58-2.15l.45,21.85c6.16.79,12.32,1.69,18.46,2.63,1.12.17,2.44.11,3.48.27,4.36.69,8.65,2.08,12.94,3.07.06.38.15.42,0,.88-1.18.23-2.3.78-3.53.66,0,.4.95.24,1.21.21.69-.06,1.42-.31,2.1-.44.61-.11,3.51-.86,3.75-.66l-.22.66c.72-.02.96-.49,1.77-.44.13,0,.41.2.66.22.15.01.3-.01.44,0,.73.05,1.5.2,2.21.11-.59-.3-1.56-.49-2.21-.55-.14-.01-.3,0-.44,0s-.32-.02-.44,0l1.54-2.43-3.43,1.33c-.4-1.19-1.4.5-2.31.22h-.22c-.49-.25-.58-.13-.88-.22-2.85-.82-5.71-1.6-8.61-2.21-.12-.69.26-.36.66-.44,2.59-.51,5.28-.53,7.73-1.66,0-.38-3.46.57-3.86.54-.89-.06-1.58-1.19-2.55-1.09l1.32,1.21c-.19.4-2.09.49-2.65.56ZM338.12,507.37c-.67-.08-.51.88-.88,1.44-.89,1.32-2.72,1.1-3.76,2.09l6.41-1.33c.17-.76-.49-.26-.84-.5-.03-.02-.11-.79-.49-.39-.05.05-.14,1.43-.89.88-.09-.07.8-1.69.44-2.21ZM257.72,507.81c-.61-.67-.47,1.83-.43,2.08.23,1.46,2.05,1.38,3.08,2-1.1.74-3.02.33-3.97,1.21,3.61-.43,7.18-1.14,10.82-1.33-.15-.39-1.31-.25-1.67-.23-1.12.06-2.12.36-3.3.23-.77-.08-3.62-1.17-3.97-1.77-.18-.31-.42-2.04-.56-2.2ZM326.19,512.23c-.92-.11-.92.33,0,.22v-.22ZM325.31,512.45c-4.75.38-9.32,1.87-14.05,2.4-5,.56-13.63,1.15-18.52.69-1.95-.18-4.22-1.08-6.21-1.3-.24-.03-.8-.2-.74.19l16.12,3.76c.11-.61-.13-.37-.48-.5-1.2-.42-2.49-.61-3.71-.93-.33-.09-1.21-.23-1.32-.55,7.94.09,15.91-.42,23.63-2.32l5.3-1.44ZM339.89,522.16l-1.61-4.02-2.14-3.93c-.1,1.07.66,2.03.87,3,.26,1.22.1,3.75.56,4.74.05.1.29.28.33.22.17-1.03-.17-2-.23-2.97-.01-.24-.14-.84.23-.78l2.68,8.14c.12.07.8.06.84.02.07-.07.37-1.67.41-1.93.06-.41-.14-.78-.08-1.16.14-.85.56-1.61.79-2.42.53.15.46.77.46,1.22,0,.67-.61,3.94-.46,4.08.31,0,.65.05.95-.04.22-.07,1.07-1.31,1.15-1.52.12-.29-.14-.63-.12-.65.06-.05.45.12.68-.14.21-.23.5-1.25.86-1.74.85-1.14,2.31-1.56,3.09-2.76-2.4.78-4.08,2.88-5.52,4.86-.02-2.08-.03-4.17-.33-6.18-1.13,1.67-1.21,4.2-2.54,5.74-.39-1.96.13-3.59.38-5.47.03-.24.24-.76-.16-.71-.44,1.27-.5,2.65-.82,3.94-.06.23.03.54-.29.48ZM249.33,522.83c-.44-.23-.48.83-.88.44-.08-.08-.43-1.81-.54-2.22s-.53-.89-.56-1.22c-.04-.48.65-1.36-.22-1.21-.25,1.41-.63,2.82-.99,4.2-.05.2-.06.5-.33.43-1.03-2.8-2.43-5.48-4.09-7.95l1.87,8.28c-.45.18-1.11-1.77-1.32-.67.77.38.98,1.19,1.44,1.88.17.25-.06.57.54.44-.33-2.01-.77-4.01-1.18-6-.05-.22-.35-.67.07-.62,1.31,2.6,2.66,5.27,2.91,8.24l.32.34c2.85-.1,5.74-.16,8.58-.42,1.91-.17,4.01-.76,5.97-.88,2.65-.15,5.63-.17,8.06.99-.71.25-1.66-.04-1.66.99.48-.72,2.27,0,2.54-.22.53-.44-.74-.39-.33-.66,1.73,1.02,3.23.67,5.05.91,1.32.18,2.57.83,3.89.85.15-.13-1.02-1.87-1.19-2.13-.09-.13-.54.04-.36-.52l.44-.22c-.69.04-1.34-.24-1.88-.66-.13.16.17.53.28.66.12.14,2.18,2.11,1.06,1.97-3.89-.48-7.86-2.19-11.73-2.87l-8.27.89c-.35-.35,1.97-1.84,2.43-1.77.06-.39-.5-.22-.72-.17-.5.11-.94.45-1.49.39.32-.52.21-1.07-.29-.38-.4.55-.78,2.2-1.41,2.36-.27.07-1.16-.42-1.18-.55,0-.07.23-1.11.28-1.25.14-.35.58-.51.5-.82-1.71.46-1.33,3.03-3.42,2.87-.03-1.04,1.18-1.44,1.63-2.01s.74-1.79,1.02-2.51c-1.66-.06-2.77,1.61-3.98,2.54.05-1.97,1.17-3.6,1.98-5.3l-1.76,1.66c-.58.56-.78,1.25-1.11,1.87l.88-.55c-.28.79-.7,1.55-.98,2.33-.32.86-.24,2.19-1.22,2.42-.21-1.42.65-2.93,1.32-4.2ZM357.56,518.19c-.45-.37-3.94,3.12-4.41,3.64,2.45-1.4.81.2.32,1.2-.14.29-1.08,2.35-.98,2.44,2.4-.61,4.41-2.18,5.96-4.09-.53-.38-1.05.35-1.49.5-.23.08-.54-.11-.87,0-.43.15-1.06.83-1.61.94-.47-.53,2.71-4.01,3.09-4.64ZM335.69,521.72c.25-.32-.8-1.87-1.1-1.54-.07.27.79,1.93,1.1,1.54ZM239.51,520.94c-.14-.11-.71-.61-.78-.54-.24.25,1.13,1.52,1.32.89-.3.05-.39-.22-.54-.34ZM261.48,520.4c-1.61.44-3.57,1.31-4.64,2.65l.62.11-.07.33,4.09-3.09ZM336.8,526.14c-.71-2.69-3.9-4.78-6.4-5.74.15.24.6.67.82.82.74.51,1.82,1.04,2.64,1.46l2.94,3.46ZM333.48,525.04c-.52.57-8.48-.66-9.76-.95-1.84-.42-3.56-1.21-5.38-1.69s-3.63-.59-5.39-1.12c-.11.61.13.37.48.5.44.16,8.23,1.86,7.69,2.59-.4.3-1.71-.1-1.54.66,1.05.09,1.92-.48,2.97-.45,1.66.05,3.42.96,5.13,1.03,1.06.04,2.34-.2,3.5-.15.99.05,2.19.31,3.19.45.17-.17-.89-2.28-1.54-2.21l.66,1.32ZM241.82,524.82c.21-.22-1.32-3.55-1.76-3.09.03.54.5.88.71,1.38.06.15.46,2.34,1.05,1.71ZM241.82,521.73c-.31-.16-.59.14-.44.22.31.16.59-.14.44-.22ZM349.39,521.73c-.37.07-1.53.23-1.1.66.13.13,1.32-.57,1.1-.66ZM336.13,522.61c.07-.32-.09-.46-.33-.66-.09.22.23.87.33.66ZM352.26,521.95c-.32-.32-3.7,2.47-4.42,2.21.16,2.5,2.26-1.52,2.87-.88.29.98-.9,1.39-1.1,2.1-.13.45.15.36.47.24.6-.23.44-.64.75-1,.28-.32.98-.87,1.1-1.13.17-.39-.41-.79.55-.76l-.22-.78ZM348.06,522.39c-.17-.14-.81.27-.99.44l-1.43,1.54c.68-.25,1.47-.93,2.01-1.41.1-.08.8-.24.41-.57ZM277.38,522.61s-.47-.08-.44.11c1.38,1.41,2.49,2.83,3.31,4.64-.9.36-1.72-1.23-2.65-.89,1.13.41,2.14,2.59,2.86,2.88,1.35.54,5.57,1.27,7.25,1.58,1.32.24,2.69.3,4.02.51.11-.1-1.01-1.94-1.15-2.27-.08-.2-.39-.64.05-.6.5.84,1.49,1.27,2.21,2.1.26.3.43.97.66,1.11.44.26,1.62,0,2.21.33.44-.52-1.02-3.38-.77-4.19.68.88,1.47,1.87,2.06,2.8.78,1.22.08,1.53,1.94,1.81.54.08,1.09,0,1.63.03-.95.8-2.59.84-3.8,1.16-.39.1-1.3.26-1.5.6,5.6-.61,11.64-3.2,17.31-2.62,2.14.22,4.37,1.26,6.5,1.68,3.17.62,9.87,1.45,12.98,1.18.32-.03,1.73-.32,1.87-.45.21-.21.05-.46-.33-.44-.98.06-2.05.4-3.1.23l-7.83-.67,5.48-1.49.48-.5c-2.43.13-5.75,1.53-8.07,1.55-4.1.04-6.64-2.2-12.11-1.52-1.01.13-5.48,1.22-5.96,1.06s-.6-1.55-.81-1.75c-.69-.66-.21,1.43-.66,1.32-.16-.38-.79-2.55-.89-2.65-.64-.65-.22,1.11-.32,1.32s-.58.6-.78.45-1.6-3.84-2-4.19c-.14-.12-.53-.1-.42.31.28,1.04,1.48,2.17.98,3.45l-4.86-6.62c-.44-.07-.4.09-.22.44.87,1.63,1.8,3.2,2.1,5.08l-.99-.44c-.14.29.32.36.34.76,0,.19-.41.14-.44.11-.1-.1-.95-2.81-1.55-2.21-.13.14,1.52,2.41.55,1.98l-4.31-3.53c.6,1.69,3.22,5.46-.55,2.42-.98-.79-3.24-3.38-4.21-3.75-.42-.16-.41.37-.33.44.05.04.4-.11.67.15.15.14.26.5.53.75s1.99,1.44,1.67,1.76c-.25.24-.73-.6-1.1-.44.19.71-.29.86-.95.67-.21-.06-.97-1.58-1.59-1.55-.39.07.85,1.68,0,1.33-.33-.14-1.24-1.68-1.65-2.1-.9-.93-2.03-1.68-3-2.53-.26-.23-.3-.64-.33-.66ZM256.51,523.05v.22c.14-.07.14-.15,0-.22ZM348.06,525.7s.08-.47-.11-.44c-.6.34-.15.69.11.44ZM254.74,525.48v.22c.14-.07.14-.15,0-.22ZM281.91,526.36v.22c.14-.07.14-.15,0-.22ZM291.85,527.25v.22c.14-.07.14-.15,0-.22Z"/>
  <path class="st1" d="M228.35,511.56c.52.33.74.75,0,.66-.03-.18-.02-.47,0-.66Z"/>
  <path class="st2" d="M277.38,522.61s.06.43.33.66c.96.86,2.1,1.61,3,2.53.41.42,1.32,1.96,1.65,2.1.84.36-.39-1.26,0-1.33.62-.03,1.38,1.49,1.59,1.55.66.19,1.14.05.95-.67.37-.16.85.68,1.1.44.33-.32-1.4-1.51-1.67-1.76s-.38-.61-.53-.75c-.27-.26-.62-.11-.67-.15-.08-.06-.09-.6.33-.44.97.37,3.23,2.96,4.21,3.75,3.77,3.03,1.15-.73.55-2.42l4.31,3.53c.97.42-.69-1.85-.55-1.98.6-.6,1.45,2.11,1.55,2.21.03.03.45.08.44-.11-.01-.41-.48-.48-.34-.76l.99.44c-.3-1.88-1.23-3.45-2.1-5.08-.19-.35-.22-.51.22-.44l4.86,6.62c.5-1.28-.69-2.41-.98-3.45-.11-.4.28-.43.42-.31.4.35,1.8,4.05,2,4.19s.69-.24.78-.45-.32-1.97.32-1.32c.1.1.73,2.27.89,2.65.45.11-.04-1.98.66-1.32.21.2.33,1.59.81,1.75s4.95-.93,5.96-1.06c5.47-.68,8.01,1.56,12.11,1.52,2.32-.02,5.64-1.42,8.07-1.55l-.48.5-5.48,1.49,7.83.67c1.06.17,2.12-.17,3.1-.23.38-.02.54.23.33.44-.13.13-1.54.43-1.87.45-3.11.27-9.8-.55-12.98-1.18-2.13-.42-4.36-1.46-6.5-1.68-5.67-.58-11.71,2.02-17.31,2.62.2-.34,1.1-.49,1.5-.6,1.22-.32,2.85-.37,3.8-1.16-.54-.02-1.09.05-1.63-.03-1.87-.28-1.16-.59-1.94-1.81-.59-.93-1.38-1.92-2.06-2.8-.25.82,1.21,3.67.77,4.19-.6-.32-1.77-.06-2.21-.33-.23-.14-.39-.81-.66-1.11-.72-.83-1.71-1.26-2.21-2.1-.44-.04-.13.4-.05.6.14.34,1.26,2.17,1.15,2.27-1.33-.21-2.7-.26-4.02-.51-1.68-.31-5.9-1.04-7.25-1.58-.73-.29-1.73-2.47-2.86-2.88.93-.35,1.74,1.24,2.65.89-.82-1.81-1.93-3.23-3.31-4.64-.03-.19.41-.13.44-.11ZM288.42,530.34c.43-.4-1.39-1.73-1.66-1.98l.93,1.72c.03.35.66.33.73.27ZM283.79,529.01l-.22-.33c.07,1.45,1.07.89,2.21,1.21.07-.05-.71-1.25-1.02-1.31-.33-.05-.54.55-.96.42ZM294.39,530.12c-.24-.24-.68.2-.44.44s.68-.2.44-.44Z"/>
  <path class="st2" d="M325.31,512.45l-5.3,1.44c-7.72,1.9-15.69,2.41-23.63,2.32.12.32.99.46,1.32.55,1.23.32,2.51.51,3.71.93.36.13.59-.11.48.5l-16.12-3.76c-.05-.39.5-.22.74-.19,2,.22,4.26,1.11,6.21,1.3,4.89.46,13.52-.13,18.52-.69,4.74-.53,9.3-2.02,14.05-2.4Z"/>
  <path class="st2" d="M339.89,522.16c.32.07.23-.25.29-.48.32-1.29.38-2.67.82-3.94.4-.05.19.47.16.71-.25,1.88-.77,3.51-.38,5.47,1.33-1.54,1.41-4.07,2.54-5.74.3,2.02.31,4.1.33,6.18,1.44-1.98,3.12-4.08,5.52-4.86-.78,1.2-2.24,1.62-3.09,2.76-.36.49-.66,1.51-.86,1.74-.24.26-.63.09-.68.14-.03.02.24.36.12.65-.09.21-.93,1.45-1.15,1.52-.3.09-.64.04-.95.04-.15-.14.46-3.41.46-4.08,0-.44.07-1.07-.46-1.22-.23.81-.65,1.57-.79,2.42-.06.38.13.75.08,1.16-.03.26-.33,1.87-.41,1.93-.05.04-.72.05-.84-.02l-2.68-8.14c-.37-.06-.24.54-.23.78.06.97.4,1.95.23,2.97-.04.06-.29-.12-.33-.22-.46-.99-.31-3.52-.56-4.74-.2-.97-.97-1.93-.87-3l2.14,3.93,1.61,4.02Z"/>
  <path class="st2" d="M333.48,525.04l-.66-1.32c.66-.07,1.71,2.04,1.54,2.21-1-.14-2.2-.4-3.19-.45-1.17-.06-2.45.18-3.5.15-1.71-.06-3.47-.98-5.13-1.03-1.05-.03-1.92.53-2.97.45-.16-.76,1.15-.36,1.54-.66.54-.73-7.25-2.44-7.69-2.59-.36-.13-.59.12-.48-.5,1.76.53,3.62.66,5.39,1.12s3.54,1.27,5.38,1.69c1.28.29,9.24,1.51,9.76.95Z"/>
  <path class="st2" d="M228.35,511.56c.01-.14-.01-.3,0-.44,1.63,1.1.37-.17.44-.22.78-.4,1.45,1.07,1.65,1.06.1,0,.3-.32.47-.33,1.6-.12,1.59.97,2.45,1.21,1,.28,2.56.1,3.6.38,0,.24-4.07.41-4.53.33-.74-.14-.89-1.09-1.66-1.1.73,1.73-2.17,1.47-2.43-.22.74.09.52-.33,0-.66ZM229.89,512.01s-.54-.15-.66-.11c.28,1,.97.43.66.11ZM232.1,512.23c-.31-.16-.59.14-.44.22.31.16.59-.14.44-.22Z"/>
  <path class="st2" d="M234.09,508.25v.22c-2.39.5-4.81,1.32-7.29,1.55l.87,1.23c.15.25.54.22.68.31-.02.19-.03.49,0,.66-.24-.03-.49-.23-.66-.11l.21.78c-1.81-.49-3.65.4-4.86-1.44l1.44.33c-.18-1.43-1.44-1.1-2.54-1.1-.35-.27,0-.4.33-.44.97-.12,2.02.05,2.99-.22l-1.44-1.98,2.68,1.7c2.5-.62,5.07-.96,7.59-1.49ZM226.36,511.56c-.06-1.11-.8-1.22-1.76-1.1-.07.66,1.31.93,1.76,1.1Z"/>
  <path class="st2" d="M357.56,518.19c-.38.63-3.56,4.11-3.09,4.64.55-.11,1.17-.79,1.61-.94.33-.11.64.08.87,0,.44-.15.96-.88,1.49-.5-1.55,1.9-3.56,3.47-5.96,4.09-.1-.09.84-2.14.98-2.44.49-1,2.13-2.61-.32-1.2.48-.52,3.96-4.02,4.41-3.64ZM356.45,522.39c-.32-.07-.46.09-.66.33.22.09.87-.23.66-.33Z"/>
  <path class="st2" d="M366.39,509.13c.91.28,1.91-1.41,2.31-.22l3.43-1.33-1.54,2.43c-.1.02-.19.12-.22.22-.81-.05-1.05.42-1.77.44l.22-.66c-.24-.19-3.14.55-3.75.66.06-.15.17-.29.22-.44.15-.46.06-.5,0-.88-.02-.14.01-.3,0-.44.31.09.4-.03.88.22.08.04.09.25.22,0ZM368.71,509.13v.22c.14-.07.14-.15,0-.22ZM368.71,509.58v.22c.14-.07.14-.15,0-.22Z"/>
  <path class="st2" d="M257.72,507.81c.14.16.38,1.89.56,2.2.35.61,3.2,1.69,3.97,1.77,1.18.13,2.18-.17,3.3-.23.36-.02,1.51-.16,1.67.23-3.64.18-7.22.89-10.82,1.33.96-.89,2.88-.48,3.97-1.21-1.03-.62-2.85-.54-3.08-2-.04-.25-.18-2.75.43-2.08Z"/>
  <path class="st2" d="M338.12,507.37c.36.51-.53,2.14-.44,2.21.74.55.84-.83.89-.88.38-.41.45.36.49.39.35.24,1.01-.26.84.5l-6.41,1.33c1.04-.99,2.86-.77,3.76-2.09.37-.55.21-1.52.88-1.44Z"/>
  <path class="st2" d="M357.34,505.82c.56-.07,2.46-.15,2.65-.56l-1.32-1.21c.97-.1,1.66,1.04,2.55,1.09.39.02,3.85-.92,3.86-.54-2.45,1.13-5.15,1.15-7.73,1.66v-.44Z"/>
  <path class="st2" d="M352.26,521.95l.22.78c-.96-.03-.38.37-.55.76-.12.26-.82.81-1.1,1.13-.31.36-.15.78-.75,1-.31.12-.59.21-.47-.24.2-.72,1.39-1.12,1.1-2.1-.61-.63-2.71,3.38-2.87.88.72.26,4.1-2.53,4.42-2.21Z"/>
  <path class="st2" d="M261.48,520.4l-4.09,3.09.07-.33-.62-.11c1.07-1.34,3.03-2.21,4.64-2.65Z"/>
  <path class="st2" d="M336.8,526.14l-2.94-3.46c-.81-.42-1.9-.95-2.64-1.46-.22-.15-.67-.58-.82-.82,2.5.96,5.69,3.04,6.4,5.74Z"/>
  <path class="st2" d="M241.82,524.82c-.59.63-.99-1.55-1.05-1.71-.21-.51-.68-.85-.71-1.38.44-.46,1.97,2.87,1.76,3.09Z"/>
  <path class="st0" d="M365.29,510.24c-.05.15-.16.29-.22.44-.69.13-1.41.38-2.1.44-.26.02-1.21.18-1.21-.21,1.24.12,2.36-.43,3.53-.66Z"/>
  <path class="st2" d="M335.69,521.72c-.31.38-1.18-1.28-1.1-1.54.3-.33,1.36,1.23,1.1,1.54Z"/>
  <path class="st0" d="M371.47,510.02c.65.07,1.62.25,2.21.55-.71.09-1.48-.06-2.21-.11v-.44Z"/>
  <path class="st2" d="M348.06,522.39c.39.33-.32.49-.41.57-.54.48-1.34,1.16-2.01,1.41l1.43-1.54c.18-.17.82-.58.99-.44Z"/>
  <path class="st2" d="M249.33,522.83c.33-.62.53-1.31,1.11-1.87l1.76-1.66c-.82,1.7-1.94,3.33-1.98,5.3,1.2-.92,2.32-2.59,3.98-2.54-.28.72-.56,1.93-1.02,2.51s-1.66.97-1.63,2.01c2.1.16,1.71-2.41,3.42-2.87.08.31-.36.47-.5.82-.05.14-.29,1.18-.28,1.25.01.14.9.62,1.18.55.63-.15,1.01-1.8,1.41-2.36.5-.69.61-.14.29.38.54.06.99-.28,1.49-.39.22-.05.78-.22.72.17-.46-.08-2.78,1.42-2.43,1.77l8.27-.89c3.87.68,7.84,2.39,11.73,2.87,1.12.14-.94-1.83-1.06-1.97-.11-.13-.42-.5-.28-.66.54.42,1.19.7,1.88.66l-.44.22c-.18.56.27.38.36.52.17.26,1.33,2,1.19,2.13-1.32-.03-2.57-.68-3.89-.85-1.82-.25-3.32.1-5.05-.91-.41.28.86.23.33.66-.27.22-2.06-.5-2.54.22,0-1.03.94-.74,1.66-.99-2.43-1.16-5.41-1.15-8.06-.99-1.96.11-4.06.7-5.97.88-2.84.26-5.73.32-8.58.42l-.32-.34c-.25-2.97-1.6-5.65-2.91-8.24-.42-.05-.11.4-.07.62.41,2,.84,3.99,1.18,6-.6.13-.38-.19-.54-.44-.46-.7-.67-1.5-1.44-1.88.21-1.1.87.84,1.32.67l-1.87-8.28c1.66,2.47,3.06,5.15,4.09,7.95.27.06.28-.23.33-.43.36-1.38.74-2.8.99-4.2.87-.15.18.73.22,1.21.03.32.43.79.56,1.22s.46,2.14.54,2.22c.4.39.45-.67.88-.44-.67,1.27-1.53,2.77-1.32,4.2.98-.23.9-1.57,1.22-2.42.29-.78.71-1.54.98-2.33l-.88.55ZM247.12,525.48c.96-1.05.94-3.5.11-4.64-.73,1.49-.65,3.11-.11,4.64ZM253.31,522.83c-.43-.43-2.79,2.18-2.87,2.76,1.37-.22,2.6-1.39,2.87-2.76ZM250.1,524.82v.22c.14-.07.14-.15,0-.22Z"/>
  <path class="st0" d="M371.03,510.02v.44c-.26-.02-.53-.21-.66-.22.03-.1.12-.2.22-.22.12-.02.3,0,.44,0Z"/>
  <path class="st2" d="M349.39,521.73c.22.09-.97.79-1.1.66-.43-.43.73-.59,1.1-.66Z"/>
  <path class="st2" d="M371.47,510.02v.44c-.15-.01-.3.01-.44,0v-.44c.15,0,.3-.01.44,0Z"/>
  <path class="st2" d="M239.51,520.94c.16.12.25.4.54.34-.19.64-1.56-.63-1.32-.89.07-.07.64.44.78.54Z"/>
  <path class="st2" d="M326.19,512.23v.22c-.92.11-.92-.33,0-.22Z"/>
  <path class="st2" d="M348.06,525.7c-.26.25-.71-.09-.11-.44.19-.03.12.42.11.44Z"/>
  <path class="st2" d="M241.82,521.73c.15.08-.13.38-.44.22-.15-.08.13-.38.44-.22Z"/>
  <path class="st2" d="M336.13,522.61c-.1.21-.43-.44-.33-.66.24.2.4.33.33.66Z"/>
  <path class="st2" d="M256.51,523.05c.14.07.14.15,0,.22v-.22Z"/>
  <path class="st2" d="M254.74,525.48c.14.07.14.15,0,.22v-.22Z"/>
  <path class="st2" d="M281.91,526.36c.14.07.14.15,0,.22v-.22Z"/>
  <path class="st0" d="M366.17,509.13h.22c-.13.25-.14.04-.22,0Z"/>
  <path class="st2" d="M291.85,527.25c.14.07.14.15,0,.22v-.22Z"/>
  <path class="st1" d="M278.71,357.39c-.83-.09-1.34-.46-1.12-1.4.1-.42,1.54-.49,1.73-.63.65-.46,2.14-13.93,2.71-15.74-1.36-.3-1.07-1.19-.12-1.9.23-.17.66-.17.73-.25s.25-1.75.37-2.17c1.23-4.34,3.65-8,7.56-10.34,1.67-1,3.57-1.31,4.96-2.55.14-.12.47-.09.57-.2.9-.92-.8-1.69-.99-2.53-1.25-5.46,7.08-5.45,6.04-.27-.21,1.04-1,1.38-1.18,1.91-.44,1.31.34.77.83,1.06.2.12.26.52.6.73.44.27,1.4.38,1.99.66,4.98,2.4,7.9,5.05,9.63,10.47.19.61.5,2.78.65,2.99.26.36,2.07.37,1.39,1.6-.32.59-.87-.07-.78,1.42.23,3.83,1.58,10.24,2.64,13.94.08.28-.06.88.02.97.08.09,1.9.07,1.99,1.01.09.86-1.12,1.11-1.12,1.32v4.09c1.99-.08,9.47.41,10.71,1.78.44.49.09,1.97.11,2.76.03,1.65.22,3.41.25,5.07.01.61-.38,1.51-.22,1.96.23.66,2.09.41,2.19,2.02.15,2.32-1.4,1.49-1.94,2.15-.15.18-.1.64-.26.9-.18.28-.81.4-1.01.82-.25.55-.13,2.66-.11,3.42,1.04,31.79,1.29,63.58,2.2,95.43.02.6.51,1.65.09,2.11-1.03.59-2.01,1.24-3.11,1.69-2.11.87-5.68,1.73-7.96,2.2-11.29,2.34-23.26,2.22-34.73,1.83.42-4.71-2.77-9.35-7.85-8.85-3.57.36-4.55,4-4.52,7.08-.48.49-4.79-1.58-5.41-2.21l2.54-102.48c2.5.57,5.07,1.04,7.62,1.32,12.93,1.44,27.15,1.16,40.09,0,3.48-.31,6.98-.5,10.38-1.33,0-.38.13-.47-.31-.42-1.98.22-4.12.86-6.21,1.09-.81.09-1.84.2-2.64.23-.24.01-1.04.15-1-.23,3.28-.44,7.26-.42,10.33-1.71.27-.12.65-.12.71-.5-2.21.27-4.35.96-6.54,1.3-1.42.22-3.61.56-4.94.69-10.89,1.05-24.92.72-35.89,0-2.2-.14-5.52-.97-7.52-.86-.35.02-.63.43-1.31.44-.35,0-3.5-.47-3.66-.57-.26-.17-.38-1.11-.72-1.37-.72-.56-1.6.04-1.72-1.49-.17-2.34,2.15-2.12,2.24-2.46.3-1.63-.48-8.85.09-9.81.72-1.2,9.25-2.11,10.94-1.98v-3.98c1.34.36,2.74.48,4.11.64.26.03.94.19.75-.3-.16-.41-4.15-.48-4.86-.55ZM297.48,316.53c-.42-.46-1.74,1.35-1.32,1.76.49.49,1.66-1.4,1.32-1.76ZM287.43,338.4c-1.11.34-3.87-.25-5.19,0-.19.56.67.6,1.02.64,6.63.76,14.03-.1,20.75.26l9.82-.67c.03-.52.07-.39-.33-.44-1.17-.16-4.79.74-5.44-.09-.16-.2-.52-3.39-.7-4.15-.15-.61-1.51-4.72-1.82-4.81-.49-.16-.3.24-.24.46.31,1.21.99,2.44,1.31,3.78.39,1.66.49,3.37.81,5.04l-9.05.22-.33-2.43c-.5.57-.54,1.48-.56,2.21l-9.05.22c.48-4.3,1.52-8.7,4.42-12.03l3.2-3.2c-3.45,1.67-6.14,5.47-7.24,9.1-.53,1.75-.49,3.49-.87,5.09-.05.22-.32.77-.5.82ZM297.7,323.38v11.49c.52.03.39.08.44-.33.16-1.21-.09-2.72,0-3.99.09-1.49.86-5.59.34-6.72-.12-.26-.45-.5-.77-.44ZM302.56,325.37c.57.99,1.37,1.94,2.08,2.89.09.12.23.8.57.42.25-.29-1.67-2.82-2.1-3.1-.23-.15-.44-.14-.55-.21-.06-.11-.26-1.06-.66-.66s.55.6.66.66ZM287.32,339.95c-.14-.14-3.83-.37-3.97-.22v2.65c.78-.31,3.25-.19,3.77-.54.29-.2.27-1.82.2-1.89ZM309.19,341.49c-.05-.59.29-1.66-.55-1.77-.59.13-.34,2.25.55,1.77ZM312.5,339.72c-.84.16-2.68-.45-2.87.55-.44,2.33,1.25,1.4,2.87,1.88v-2.43ZM288.87,339.95c-.85-.18-.29,1.28-.44,1.76.85.18.29-1.28.44-1.76ZM296.82,339.94h-7.18c-.46,0-.18,1.31,0,1.55.41.55,4.23-.16,5.09-.22.69-.05,1.4.03,2.1,0v-1.32ZM306.54,339.94h-7.95c.1.69.44,1.08,1.08,1.22,1.77.39,4.02-.15,5.88.34,1.17.12,1.03-.64.99-1.56ZM307.42,339.95c-.82-.18-.31,1.08-.44,1.54.82.18.31-1.08.44-1.54ZM313.61,340.39v14.36l2.43.22c-.54-4.37-1.33-8.74-2.02-13.11-.06-.36-.08-1.34-.41-1.47ZM282.46,354.96v-13.92l-2.22,13.58v.56c.41-.22,2.14-.14,2.22-.22ZM289.64,344.14h7.4v-2.43s-7.37.47-7.37.47c-.59.18-.48,1.82-.03,1.96ZM306.51,342.18c-.4-.47-6.54-.12-7.71-.47v2.43s7.73-.22,7.73-.22c-.07-.37.12-1.57-.03-1.74ZM287.1,342.37c-.33-.04-4.02.46-3.31,1.1,1.49.08,3.7,1.53,3.31-1.1ZM288.87,342.37c-.82-.18-.31,1.08-.44,1.54.82.18.31-1.08.44-1.54ZM312.5,342.82c-.19-.19-2.71-.61-2.87-.45v1.11c.75-.03,1.52.09,2.27-.06.21-.04.96-.23.6-.6ZM283.35,343.92v6.85c.57-.15,2.51-.24,2.77-.65.15-.23.72-4.77.77-5.42.03-.47,0-.28-.33-.33-1.04-.15-2.16-.14-3.21-.44ZM312.5,343.92c-.6.04-2.67.07-2.84.58-.22.65.12,4.84.45,5.45.31.56,1.74.54,2.39.59-.18-1.04.25-2.92,0-3.83-.07-.25-.56.03-.45-.47.04-.2.39-.03.45-.26.14-.54-.1-1.46,0-2.07ZM287.76,350.1c.19-.22-.14-4.97,0-5.74-.43.09-.39.44-.44.77-.28,1.71-.4,3.48-.66,5.19.21-.09,1.07-.18,1.1-.22ZM306.32,344.36l-7.51.44v4.53c0,.45,1.24.61,1.61.17l5.9.38v-5.52ZM306.98,344.36v5.52h.66c-.11-1.61-.02-3.61-.22-5.19-.04-.32-.17-.69-.44-.33ZM308.84,345.16c-.2-.35-.19-.88-.76-.79-.18,1.32.16,2.61.24,3.86.07,1.02-.78,1.92,1.08,1.88l-.36-3.9c-.03-.28.17-.57.14-.8-.02-.15-.3-.15-.35-.24ZM288.87,344.58h-.44v5.52h.44v-5.52ZM296.82,344.8l-7.51-.22.22,5.3c1.18-.23,6.39.07,7.07-.33.88-.52.27-3.79.22-4.75ZM306.54,352.31c-.06-.54.25-1.76-.36-1.96-.7-.23-3.01,0-3.95-.02-1.67-.05-2.07-.72-2.1,1.87,0,.47-.01.28.33.33,1.94.29,4.13-.37,6.08-.22ZM295.25,350.35c-.44-.37-4.81.44-5.72.2.05.33-.08,1.7,0,1.77.21.21,5.24.21,5.97.22.1-.1-.1-2.06-.25-2.19ZM307.64,350.33c-.53-.61-1.34,2.14.11,2,.7-.07.57-.8.55-1.34l-.66.88v-1.54ZM287.76,350.55c-.81-.78-2.61,2.15,0,1.77-.05-.33.08-1.69,0-1.77ZM288.87,350.54h-.66v1.77h.66v-1.77ZM309.63,352.31c.32-.31-.19-2.46-.88-1.77-.06.06-.06,1.71,0,1.77.03.03.85.03.88,0ZM285.99,350.77c-.34.16-2.14.36-2.21.44-.58.72,1.4,1.02,2,.79l.2-1.23ZM312.28,351.65c.48-.68-1.85-.81-2.21-.88-.07.82-.09,1.38.88,1.33-.05.42-.56.14-.67.77-.3,1.6.91,1.86,2.22,1.66-.16-1.29.65-2.57-1.11-2.21,0-.44.85-.62.88-.66ZM297.48,351.43c-.03-.06-1.06.19-1.32,0v1.1c.73-.01,1.77-.19,1.32-1.1ZM299.69,352.53c.36-.36-.42-1.55-.88-1.1-.23.22.36,1.62.88,1.1ZM285.53,354.5c.06-.06.24-1.62.15-1.76l-2.34-.43v2.43c.08.08,2.11-.16,2.19-.24ZM287.29,354.49c.33-.2.58-2.15-.72-1.72-.56.19-.32,1.28-.35,1.75.3-.04.85.1,1.07-.03ZM288.87,352.76c-.87-.03-.66.93-.66,1.55h.66s0-1.55,0-1.55ZM308.53,352.75c-1.44-.16-1.7.12-1.55,1.55h1.55s0-1.55,0-1.55ZM309.84,352.76s-.84-.03-.88,0c-.07.07.05,1.25,0,1.55h1.1c-.18-.3-.17-1.49-.23-1.54ZM295.05,352.98h-5.52v1.33c.7-.04,1.41.05,2.11,0,.48-.03,2.34-.14,2.62-.22.22-.06.11-.48.25-.66.2-.25.6-.12.54-.46ZM306.32,352.98h-4.86v1.1h4.86v-1.1ZM306.54,354.74h-5.19c-.1,0-.24.33-.55.12-.46-.31,0-.84,0-1.22h-.66c-.22,1.01.32,1.71.44,2.65-.09.08-3.08-.22-2.21.44,2.74.11,5.45-.12,8.17-.22-.03-.18.04-.62,0-.66-.19-.2-4.76.56-5.52.44-.09-.08.11-1.2.25-1.29.81-.51,5.09.6,5.27.41.05-.05-.03-.48,0-.66ZM295.05,354.52c-1.61.42-3.32.15-4.98.21-.66.02-1.18.34-1.87.01.05.32-.08,1.7,0,1.77.35.33,6.13.17,7.07.22-.05-1.13-1.49-.4-2.32-.43-1.22-.04-2.41-.39-3.64-.24-.2-.61,1.07-.56,1.47-.63,1.23-.21,2.69-.07,3.72-.26.38-.07.62-.24.55-.66ZM308.52,356.29c.13-.13.17-1.43-.55-1.55-1.24-.22-1.01.88-.99,1.78.3-.18,1.49-.17,1.54-.22ZM287.54,354.96c-.47-.27-2.26.8-1.77,1.32.06.06,1.5.18,1.77.22v-1.55ZM312.94,355.41c-.43-.41-2.09-.01-2.5-.07-.29-.04-.73-.59-1.25-.38v1.32c1.11-.31,2.33-.09,3.43-.43.23-.07.7-.08.32-.45ZM285.33,355.41c-.09-.09-2.35-.18-2.43.44.62.06,1.84.9,2.33.24.12-.16.15-.62.1-.67ZM285.11,356.95c-1.24-.38-2.48.03-3.22-1.29l-3.4.74c0,.28,2.8.69,3.23.74.82.1,2.02.2,2.85.25.46.02.64.13.55-.44ZM317.8,356.07c-1.12.11-2.84-.72-3.82-.45-.2.06-.26.51-.65.72-.85.45-2.6.47-3.59.61-.38.06-.37-.12-.33.44,2.3-.29,4.86-.23,7.12-.72.42-.09,1.11-.12,1.28-.6ZM297.48,356.29c-.48.14-1.94-.41-1.76.44.48-.14,1.94.41,1.76-.44ZM297.7,357.39l-11.92-.44v.66c3.66-.17,7.98.68,11.6.22.32-.04.68-.17.33-.44ZM308.75,357.39c-.28-.76-1.06-.22-1.65-.21-1.72.03-3.38.14-5.08.22-1.12.05-2.48-.15-3.55,0-.32.04-.68.17-.33.44l10.6-.44ZM317.14,357.17c-2.36.43-5.11.39-7.4.89-.38.08-.66-.25-.55.43,2.37-.28,4.81-.26,7.16-.69.39-.07.94-.07.79-.64ZM287.98,358.06h-3.2c-.13,0-.45-.36-.77-.22,0,.23.68.66.77.66h3.2v-.44ZM270.98,376.83c12.75,2.58,33.62,2.16,46.71.88,2.55-.25,9.94-1.08,11.88-2.25,1.07-.65-.75-1.15-.91-1.03-.12.08-.13.65-.47.64v-1.1c-1.01-.21.12,1.53-.88,1.32.51-2.17-1.28-1.83-2.87-2.21v3.31s-.85.03-.88,0c-.27-.26.44-3.06-.05-3.49-.72-.1-5.46-.94-5.7-.71v2.87c1.19-.52.32-1.52.22-2.43.92.11,5.31.2,5.31,1.43,0,1.34-5.23,1.38-5.64,2.1-.15.25-.11.6-.11.88-.82.28-.22-1.11-.55-1.11-2.48.97-5.24.89-7.84,1.33v-4.64l2.43-.33-2.43-.11v-4.86l7.51-.44v4.86c0,.07-1.08.03-1.32.22.03.5,1.19.08,1.32.22.1.1.02,2.72-.1,2.89-.23.32-1.1.07-1.23.65.3.03,1.65-.12,1.74-.24.07-.09.24-1.94.26-2.28.05-.84.02-6.48-.23-6.75-1.43.04-2.88-.05-4.31-.01-9.29.27-17.86.61-27.15.22-2.32-.1-4.65-.17-6.97-.21v-4.2c-1.58.24-3.43.16-4.97.44-.78.14-.71,2.54-.52,2.84.27.43,5.08.51,5.27.69.04.04.02,1.05-.02,1.09-.07.09-.49-.04-.65,0,.12-.71-.36-.37-.77-.43-.84-.13-2.43-.71-2.1.43.57-.17,1.06-.22,1.66-.23.42,0,.9-.2.77.45-.39.07-2.24.05-2.42.23-.09,1.39.17,2.83-.23,4.18.28.24,2.74-.19,3.26-.18.32,0,.52.19.5.51-.12.6-3.07.18-3.75.56v4.2h-.66c-.02-.44.02-.88,0-1.33-.01-.38.09-2.88-.11-2.87-1.23.57-2.75.23-3.86,1,2.08.57,4.16-1.74,3.75,1.88-.82,0-1.87-.01-2.65-.22-.17-.04-.6-.67-1.1-.44.05.71-.04,1.25-.88,1.11v-2.21c-.84-.14-.94.4-.89,1.11-1.05.34-.35-.81-.99-.66-.17.04-.96.63-1,.77-.21.96,3.96,1.52,4.64,1.65ZM317.58,362.25v3.42c0,.6,2.82.16,3-.1.31-.43-.04-2.33.11-2.98-.05-.31-2.68-.41-3.11-.35ZM321.34,365.57c.14.13,3.61-.43,3.77-.54.3-.21.31-1.63.11-1.91-.34-.47-3.21-.44-3.88-.43v2.87ZM272.52,362.91c-.11-.11-2.98.56-3.06.69-.88,1.37,2.19,1.93,3.07,1.74v-2.43ZM327.74,364.24c.41-.54-1.39-1.11-1.77-.88v1.33c.15.15,1.71-.37,1.77-.45ZM327.52,364.9v4.42h.44v-3.42c0-.16.39-.63.22-.99h-.66ZM269.21,373.08l-.22-7.4c-.96-1.42-.45-.03-.43.65.04,1.23-.18,2.42-.19,3.55-.01.99.47,2.11-.04,3.2h.88ZM327.08,365.34c-1.31-.11-1.28.8-1.1,1.87.06.37.43.56.44.89,0,.15-.41-.01-.47.43s-.08,3.66,0,3.97c.06.21.88.3,1.12.36v-7.51ZM270.09,365.79v7.07c.55-.18,2.01-.07,2.18-.58.08-.23.17-3.7.03-3.84s-1.02.31-.88-.33c2.44-1.23.54-2.24-1.33-2.32ZM325.31,365.79c-1.39-.29-.78.71-.88,1.77,1.39.29.78-.71.88-1.77ZM323.77,366.01l-2.43.22c-.6.92,2.31,1.23,2.43,1.1v-1.33ZM273.19,367.55c.13.14,1.2-.35,1.1-.77l-1.1-.34v1.1ZM317.8,366.67v5.08h2.65v-4.42c0-.06-1.05.14-1.1-.44l1.1-.44-2.65.22ZM321.12,367.55v4.09c0,.34,2.65.68,2.65.22v-3.98c0-.52-2.18-.29-2.65-.33ZM325.31,367.99l-.88-.22v4.31c0,.23.63.42.88.33v-4.42ZM274.07,367.99c-1.75-.86-1.05,4.01-.87,4.18.1.09.64-.02.87.02v-4.2ZM328.18,369.98c-1.18.08-.1,2.24-.44,3.09l.44-3.09ZM324.26,436.2c-.3-.51.1-7.16-.11-8.62-.28-1.93-1.64-3.37-3.35-1.7-2.05,2.01-1.03,7.87-1.22,10.71-.04.62-.77,1.14-.1,1.88.84-.15,5.18-.79,5.38-1.47s-.5-.63-.6-.8ZM278.49,464.3c.85-.02,1.27-2.52.89-2.77-.36-.24-1.42.01-1.55-.54.87-.03,1.76-.67,1.56-1.63-.05-.25-.8-.26-1.11-.48-.24-.18-.51-1.03-.89-.76-.03.02,0,.41-.37.62-.31.18-1.14.22-1.18.26-.29.33.92,1.72.86,2.07-.07.4-1.24.94-1.31,1.58-.11,1.08,1.45,1.57,1.25,2.32-.4,1.51-1.35.39-1.57.44-.95.18.37,1.79.93,1.95.64.19,1.05-.17,1.51-.15.53.02.98.64,1.72.39.31-.1,1.22-1.78,1.03-1.96-1.49.05-1.98.58-1.77-1.33-.15,0-.46.09-.45-.12-.06-.44.3-1.36.21-1.73-.01-.06-.8-.41-.43-.8.27-.29,1.01.7,1.07,1.04.08.51-.34,1.07-.4,1.61ZM324.48,476.84c-.23-.37-.01-7.07-.32-8.63-.45-2.23-2.41-2.06-3.58-.37-1.63,2.36-.38,7.21-.77,10.05-.06.42-.46.3-.47.44,0,.13.25.98.35.99,1.28.11,3.83-1.27,5.27-1.31.61-.79-.38-1-.48-1.17ZM273.85,469.82h-.66c0,.97.08,1.94-.22,2.87h1.1c-.3-.93-.22-1.9-.22-2.87ZM275.61,472.47c-.27-.11-.18-1.31.33-1.1.66.27.24,1.34-.33,1.1.11.06.14.41.72.19s.39-.75.82-.85c-.08,1.25.32.44.82.27,1.09-.38.61.51.72.61.54.52.64-.44.67-.49.22-.29.55-.05.44-.5-.05-.22-.42-.03-.42-.21,0-.12.21-.37.18-.65-.26-2.35-1.17-.2-1.43-.14-.34.08-2-1.3-2.76-.78-.47.32.01.94-.05,1.3-.12.73-1,.6.28,1.25ZM281.14,472.47c.06.03.13.22.33.22s.28-.2.33-.22c1.4-.47.25-.86.3-1.43.02-.18.38-.4.34-.64-.08-.59-1.89-1.08-1.93.03-.02.5.33.68.33.83,0,.46-1.06.67.3,1.21Z"/>
  <path class="st1" d="M281.8,472.47s-.59.03-.66,0c-.29-.12-.11-1.11.11-1.11.59.02.69.96.55,1.11Z"/>
  <path class="st1" d="M273.19,485.5s-1.44.31-.88-.44c.04-.05,1-.17,1.21-.65.05-.11-.14-1.56-.08-2.09.17-1.6.94-3.41,2.33-4.29.23-.15,1.97-.99,2.06-.59.12.51-1.34.64-1.55,1.1-.98.82-1.4,1.75-1.66,2.97-.07.31-.32,1.69-.32,1.89v22.64c.39.05.21-.5.22-.77.1-2.5-.23-5.04.23-7.5.31-4.95-.33-10.84.21-15.69.43-3.84,4.45-5.45,6.9-2.04.43.6,1.5,2.95,1.5,3.58v9.39c-.7.19-.4-.91-1.21-.66-.61.19-.38,1.86.22,1.98.56.12.34-.89.99-.66v14.14l-11.32-1.1c-1.11-1.24,1.16-.78,1.16-.88v-20.32Z"/>
  <path class="st2" d="M316.26,379.7c1.33-.13,3.52-.47,4.94-.69,2.19-.34,4.34-1.02,6.54-1.3-.06.38-.44.38-.71.5-3.07,1.29-7.05,1.27-10.33,1.71-.04.38.76.24,1,.23.8-.04,1.82-.15,2.64-.23,2.09-.22,4.22-.87,6.21-1.09.44-.05.32.04.31.42-3.4.82-6.9,1.01-10.38,1.33l-.22-.88Z"/>
  <path class="st2" d="M278.71,357.39c.71.08,4.7.14,4.86.55.19.49-.49.33-.75.3-1.37-.16-2.78-.27-4.11-.64v-.22Z"/>
  <path class="st1" d="M283.79,529.01c.42.12.63-.48.96-.42s1.09,1.25,1.02,1.31c-1.15-.32-2.14.24-2.21-1.21l.22.33Z"/>
  <path class="st1" d="M288.42,530.34c-.07.07-.7.09-.73-.27l-.93-1.72c.27.26,2.09,1.58,1.66,1.98Z"/>
  <path class="st1" d="M294.39,530.12c.24.24-.2.68-.44.44s.2-.68.44-.44Z"/>
  <path class="st1" d="M247.12,525.48c-.54-1.53-.62-3.15.11-4.64.83,1.13.85,3.58-.11,4.64Z"/>
  <path class="st1" d="M253.31,522.83c-.26,1.38-1.5,2.54-2.87,2.76.07-.58,2.44-3.19,2.87-2.76Z"/>
  <path class="st1" d="M250.1,524.82c.14.07.14.15,0,.22v-.22Z"/>
  <path class="st1" d="M226.36,511.56c-.46-.17-1.83-.44-1.76-1.1.97-.12,1.7,0,1.76,1.1Z"/>
  <path class="st1" d="M356.45,522.39c.21.1-.44.43-.66.33.2-.24.33-.4.66-.33Z"/>
  <path class="st0" d="M368.71,509.58c.14.07.14.15,0,.22v-.22Z"/>
  <path class="st0" d="M368.71,509.13c.14.07.14.15,0,.22v-.22Z"/>
  <path class="st1" d="M229.89,512.01c.32.31-.38.89-.66-.11.12-.04.63.09.66.11Z"/>
  <path class="st1" d="M232.1,512.23c.15.08-.13.38-.44.22-.15-.08.13-.38.44-.22Z"/>
  <path class="st0" d="M277.82,367.33c.16-.05.57.08.65,0,.04-.05.06-1.06.02-1.09-.19-.19-5-.26-5.27-.69-.19-.3-.26-2.7.52-2.84,1.54-.28,3.39-.21,4.97-.44v4.2c2.32.04,4.65.12,6.97.21,9.29.38,17.86.05,27.15-.22,1.43-.04,2.88.05,4.31.01.25.26.28,5.91.23,6.75-.02.35-.18,2.19-.26,2.28-.1.12-1.44.28-1.74.24.12-.57,1-.32,1.23-.65.12-.17.2-2.78.1-2.89-.14-.14-1.29.28-1.32-.22.24-.19,1.32-.16,1.32-.22v-4.86l-7.51.44v4.86l2.43.11-2.43.33v4.64c2.6-.44,5.36-.36,7.84-1.33.34,0-.27,1.39.55,1.11,0-.29-.04-.63.11-.88.42-.72,5.64-.76,5.64-2.1,0-1.23-4.39-1.32-5.31-1.43.09.91.96,1.9-.22,2.43v-2.87c.24-.24,4.97.61,5.7.71.49.43-.22,3.24.05,3.49.03.03.88.04.88,0v-3.31c1.59.37,3.39.04,2.87,2.21,1.01.21-.13-1.53.88-1.32v1.1c.35,0,.36-.56.48-.64.16-.11,1.99.39.91,1.03-1.94,1.17-9.33,2.01-11.88,2.25-13.1,1.28-33.97,1.69-46.71-.88.03-.42-.17-1.08.22-1.33.78.21,1.83.22,2.65.22h.22c.02.44-.02.89,0,1.33h.66v-4.2c.68-.38,3.63.04,3.75-.56.03-.32-.18-.5-.5-.51-.51,0-2.97.42-3.26.18.41-1.35.14-2.79.23-4.18.17-.18,2.02-.17,2.42-.23.21-.04.34-.19.44-.22ZM281.36,371.97v-4.53c0-.52-2.18-.29-2.65-.33v4.64l2.65.22ZM289.97,367.55l-7.95-.22v4.64l7.95.44v-4.86ZM308.75,367.33l-8.28.22c-.18,0-.55.21-.55.33v4.53h4.86v.44h-4.86c.25.78-.22,4.47.21,4.76l8.63-.34c.02-1.62-.37-3.02,0-4.64l-1.55-.11c0-.29,1.55-.25,1.55-.33v-4.86ZM299.47,372.41v-4.53s-.31-.33-.33-.33h-8.5c-.3,1.6-.22,3.23-.22,4.86,3.04.02,6.02.45,9.06,0ZM281.36,375.5c.06-2.75.52-3.42-2.65-3.09.1.48-.16,1.89.03,2.18.08.12,2.52,1.01,2.62.91ZM289.97,377.49v-4.31c0-.12-.37-.34-.55-.33l-7.4-.22v4.42l7.95.44ZM299.47,372.85h-8.72c-.8,0,.08,4.03-.11,4.64,1.61.3,3.17.07,4.71.08.54,0,4.12.48,4.12-.19v-4.53ZM278.26,373.08c-.1-.12-2.97.78-3.06.91-.11.17-.08,1.74.07,1.97.31.47,5.85,1.11,6.08.87.7-.7-1.45-1.08-1.76-1.22-1.44-.62-1.44-.94-1.33-2.54Z"/>
  <path class="st2" d="M287.43,338.4c.18-.06.45-.6.5-.82.39-1.6.34-3.34.87-5.09,1.1-3.63,3.79-7.43,7.24-9.1l-3.2,3.2c-2.9,3.33-3.94,7.73-4.42,12.03l9.05-.22c.02-.72.05-1.63.56-2.21l.33,2.43,9.05-.22c-.33-1.67-.42-3.38-.81-5.04-.32-1.33-1-2.57-1.31-3.78-.06-.22-.25-.62.24-.46.31.1,1.67,4.2,1.82,4.81.19.76.55,3.95.7,4.15.65.83,4.27-.07,5.44.09.4.05.36-.08.33.44l-9.82.67c-6.72-.35-14.12.51-20.75-.26-.35-.04-1.21-.08-1.02-.64,1.32-.25,4.08.34,5.19,0Z"/>
  <path class="st0" d="M306.32,344.36v5.52l-5.9-.38c-.37.44-1.61.28-1.61-.17v-4.53l7.51-.44Z"/>
  <path class="st0" d="M296.82,344.8c.06.96.66,4.23-.22,4.75-.68.4-5.89.1-7.07.33l-.22-5.3,7.51.22Z"/>
  <path class="st2" d="M324.26,436.2c.1.18.81.12.6.8s-4.54,1.31-5.38,1.47c-.66-.74.06-1.27.1-1.88.19-2.83-.83-8.7,1.22-10.71,1.71-1.67,3.07-.24,3.35,1.7.21,1.46-.2,8.11.11,8.62ZM322.88,436.02c.7.05.63-.48.67-.98.15-1.8.19-5.55-.01-7.3-.07-.63-.24-1.27-.78-1.65-.78-.32.11,1.12.11,1.21v8.72ZM321.24,426.98c-.66.21-1.2,3.35-.92,3.75.26.36,1.74.46,1.89-.35.12-.67.15-3.77-.98-3.41ZM320.23,431.72c-.26.84.19,2.87,0,3.87,2.66.11,1.75-.77,1.75-2.55,0-.54.15-1.01.24-1.53,0-.19-1.84-.27-1.99.22Z"/>
  <path class="st2" d="M324.48,476.84c.1.17,1.1.38.48,1.17-1.44.05-3.99,1.42-5.27,1.31-.11,0-.36-.86-.35-.99,0-.15.41-.02.47-.44.38-2.84-.86-7.7.77-10.05,1.17-1.69,3.13-1.87,3.58.37.31,1.55.1,8.26.32,8.63ZM323.77,476.67v-7.84c0-.19-.55-1.13-.78-1.21-.86-.06.11.78.11.99v7.51c0,.07-.3.31-.22.55h.88ZM322.22,476c.21-.31,0-6.41,0-7.4,0-.17-.58-.98-.88-.77-.31.22-1.12,2.64-.83,3.05.22.31.57-.39-.06.93h.67c-.84.63-.89,3.42-.63,4.27.18.6,1.68,0,1.73-.08Z"/>
  <path class="st2" d="M278.49,464.3c-.21,1.9.28,1.37,1.77,1.33.19.18-.72,1.85-1.03,1.96-.74.25-1.18-.37-1.72-.39-.46-.01-.87.34-1.51.15-.56-.16-1.87-1.77-.93-1.95.22-.04,1.16,1.08,1.57-.44.2-.74-1.36-1.24-1.25-2.32.07-.65,1.24-1.18,1.31-1.58.06-.34-1.15-1.73-.86-2.07.04-.05.87-.08,1.18-.26.37-.22.34-.6.37-.62.38-.27.65.58.89.76.3.23,1.05.23,1.11.48.2.96-.69,1.6-1.56,1.63.13.56,1.19.31,1.55.54.38.25-.04,2.75-.89,2.77.06-.54.48-1.1.4-1.61-.05-.34-.79-1.33-1.07-1.04-.37.4.41.74.43.8.08.36-.27,1.29-.21,1.73-.01.2.3.12.45.12ZM278.04,466.28c-.06-.67-1.27-.69-1.55-.44-.62.56,1.39.48,1.55.44ZM276.17,466.28v.22c.14-.07.14-.15,0-.22Z"/>
  <path class="st0" d="M283.35,343.92c1.05.3,2.17.29,3.21.44.32.05.36-.14.33.33-.04.65-.62,5.19-.77,5.42-.26.42-2.2.5-2.77.65v-6.85Z"/>
  <path class="st0" d="M313.61,340.39c.33.13.35,1.11.41,1.47.69,4.37,1.48,8.73,2.02,13.11l-2.43-.22v-14.36Z"/>
  <path class="st0" d="M312.5,343.92c-.1.61.14,1.53,0,2.07-.06.23-.4.05-.45.26-.11.51.38.22.45.47.25.91-.19,2.79,0,3.83-.64-.06-2.08-.04-2.39-.59-.34-.61-.67-4.8-.45-5.45.17-.51,2.24-.55,2.84-.58Z"/>
  <path class="st0" d="M289.64,344.14c-.45-.14-.56-1.77.03-1.96l7.37-.47v2.43h-7.4Z"/>
  <path class="st0" d="M282.46,354.96c-.08.08-1.81,0-2.21.22v-.56s2.21-13.58,2.21-13.58v13.92Z"/>
  <path class="st0" d="M306.51,342.18c.15.17-.05,1.37.03,1.74l-7.73.22v-2.43c1.17.34,7.31,0,7.71.47Z"/>
  <path class="st0" d="M270.09,365.79c1.87.08,3.77,1.09,1.33,2.32-.14.64.75.19.88.33s.05,3.6-.03,3.84c-.17.51-1.63.4-2.18.58v-7.07Z"/>
  <path class="st0" d="M306.54,352.31c-1.96-.15-4.14.51-6.08.22-.34-.05-.34.13-.33-.33.03-2.58.43-1.91,2.1-1.87.95.03,3.26-.21,3.95.02.61.2.3,1.42.36,1.96Z"/>
  <path class="st2" d="M317.8,366.67l2.65-.22-1.1.44c.06.58,1.1.38,1.1.44v4.42h-2.65v-5.08Z"/>
  <path class="st0" d="M295.25,350.35c.14.12.35,2.08.25,2.19-.72,0-5.75-.01-5.97-.22-.08-.07.05-1.44,0-1.77.91.24,5.28-.57,5.72-.2Z"/>
  <path class="st2" d="M321.12,367.55c.47.04,2.65-.19,2.65.33v3.98c0,.46-2.65.12-2.65-.22v-4.09Z"/>
  <path class="st2" d="M296.82,339.94v1.32c-.69.03-1.4-.05-2.1,0-.86.07-4.68.78-5.09.22-.18-.24-.46-1.55,0-1.55h7.18Z"/>
  <path class="st0" d="M317.58,362.25c.43-.06,3.05.04,3.11.35-.15.65.2,2.55-.11,2.98-.18.25-3,.7-3,.1v-3.42Z"/>
  <path class="st2" d="M306.54,339.94c.04.92.18,1.68-.99,1.56-1.86-.48-4.11.05-5.88-.34-.65-.14-.98-.53-1.08-1.22h7.95Z"/>
  <path class="st0" d="M321.34,365.57v-2.87c.67-.01,3.54-.04,3.88.43.2.28.19,1.7-.11,1.91-.16.11-3.63.67-3.77.54Z"/>
  <path class="st2" d="M275.61,472.47c-1.29-.65-.41-.52-.28-1.25.06-.37-.42-.98.05-1.3.76-.52,2.41.86,2.76.78.27-.06,1.17-2.21,1.43.14.03.28-.18.53-.18.65,0,.18.37-.02.42.21.11.45-.21.21-.44.5-.03.05-.13,1.01-.67.49-.11-.11.36-.99-.72-.61-.51.18-.9.98-.82-.27-.43.1-.26.63-.82.85s-.61-.13-.72-.19c.57.23.99-.84.33-1.1-.51-.21-.6.99-.33,1.1Z"/>
  <path class="st2" d="M287.32,339.95c.07.07.09,1.69-.2,1.89-.51.35-2.99.23-3.77.54v-2.65c.14-.14,3.83.09,3.97.22Z"/>
  <path class="st2" d="M295.05,354.52c.07.42-.17.59-.55.66-1.03.19-2.49.05-3.72.26-.4.07-1.67.02-1.47.63,1.24-.15,2.43.2,3.64.24.83.02,2.27-.7,2.32.43-.93-.05-6.71.11-7.07-.22-.07-.07.05-1.45,0-1.77.69.33,1.21.01,1.87-.01,1.66-.06,3.36.21,4.98-.21Z"/>
  <path class="st2" d="M327.08,365.34v7.51c-.24-.06-1.06-.15-1.12-.36-.08-.31-.07-3.51,0-3.97s.48-.28.47-.43c-.02-.32-.38-.52-.44-.89-.18-1.08-.21-1.98,1.1-1.87Z"/>
  <path class="st2" d="M297.7,323.38c.32-.06.65.18.77.44.53,1.14-.25,5.24-.34,6.72-.08,1.27.16,2.77,0,3.99-.05.4.08.36-.44.33v-11.49Z"/>
  <path class="st0" d="M312.28,351.65s-.89.22-.88.66c1.75-.36.95.92,1.11,2.21-1.32.2-2.52-.06-2.22-1.66.12-.64.63-.35.67-.77-.97.06-.95-.5-.88-1.33.36.07,2.68.2,2.21.88Z"/>
  <path class="st2" d="M270.98,376.83c-.67-.14-4.84-.69-4.64-1.65.03-.15.83-.73,1-.77.64-.15-.07,1,.99.66-.05-.71.04-1.25.88-1.11v2.21c.84.14.94-.4.89-1.11.5-.22.94.4,1.1.44-.39.25-.19.91-.22,1.33Z"/>
  <path class="st2" d="M312.5,339.72v2.43c-1.62-.48-3.31.45-2.87-1.88.19-1,2.04-.4,2.87-.55Z"/>
  <path class="st2" d="M295.05,352.98c.05.34-.34.21-.54.46-.15.19-.03.6-.25.66-.28.08-2.13.19-2.62.22-.7.04-1.41-.05-2.11,0v-1.33h5.52Z"/>
  <path class="st2" d="M272.52,362.91v2.43c-.88.19-3.94-.38-3.06-1.74.08-.13,2.95-.8,3.06-.69Z"/>
  <path class="st2" d="M317.8,356.07c-.17.48-.85.51-1.28.6-2.26.49-4.81.44-7.12.72-.04-.55-.05-.38.33-.44.99-.15,2.74-.16,3.59-.61.39-.21.45-.66.65-.72.97-.27,2.7.56,3.82.45Z"/>
  <path class="st2" d="M306.54,354.74c-.03.18.05.61,0,.66-.18.2-4.46-.91-5.27-.41-.14.09-.34,1.21-.25,1.29.76.12,5.33-.64,5.52-.44.04.05-.03.48,0,.66-2.73.1-5.44.33-8.17.22-.88-.67,2.12-.36,2.21-.44-.12-.93-.66-1.64-.44-2.65h.66c0,.38-.46.92,0,1.22.31.21.46-.12.55-.12h5.19Z"/>
  <path class="st2" d="M297.7,357.39c.36.27,0,.4-.33.44-3.62.46-7.94-.39-11.6-.22v-.66s11.93.44,11.93.44Z"/>
  <path class="st2" d="M308.84,345.16c.05.09.33.09.35.24.03.23-.17.53-.14.8l.36,3.9c-1.86.04-1.02-.85-1.08-1.88-.08-1.25-.42-2.54-.24-3.86.57-.09.55.44.76.79Z"/>
  <rect class="st2" x="301.46" y="352.98" width="4.86" height="1.1"/>
  <path class="st2" d="M285.11,356.95c.09.57-.09.46-.55.44-.83-.04-2.02-.15-2.85-.25-.43-.05-3.22-.46-3.23-.74l3.4-.74c.74,1.32,1.98.92,3.22,1.29Z"/>
  <path class="st0" d="M285.53,354.5c-.07.08-2.1.33-2.19.24v-2.43s2.34.43,2.34.43c.1.13-.09,1.69-.15,1.76Z"/>
  <path class="st2" d="M308.75,357.39l-10.6.44c-.36-.27,0-.4.33-.44,1.07-.14,2.42.06,3.55,0,1.7-.08,3.36-.19,5.08-.22.59-.01,1.36-.55,1.65.21Z"/>
  <path class="st0" d="M269.21,373.08h-.88c.51-1.09.03-2.22.04-3.2.01-1.13.23-2.32.19-3.55-.02-.68-.53-2.07.43-.65l.22,7.4Z"/>
  <path class="st0" d="M274.07,367.99v4.2c-.23-.04-.77.07-.87-.02-.19-.17-.89-5.04.87-4.18Z"/>
  <path class="st2" d="M287.76,350.1s-.89.13-1.1.22c.26-1.71.38-3.48.66-5.19.05-.33.01-.68.44-.77-.14.77.19,5.53,0,5.74Z"/>
  <path class="st0" d="M325.31,367.99v4.42c-.26.09-.88-.1-.88-.33v-4.31l.88.22Z"/>
  <path class="st2" d="M317.14,357.17c.15.56-.4.56-.79.64-2.35.42-4.79.4-7.16.69-.11-.68.18-.35.55-.43,2.29-.5,5.04-.46,7.4-.89Z"/>
  <path class="st2" d="M287.1,342.37c.39,2.63-1.82,1.19-3.31,1.1-.7-.65,2.98-1.14,3.31-1.1Z"/>
  <path class="st2" d="M281.14,472.47c-1.36-.54-.29-.76-.3-1.21,0-.15-.35-.33-.33-.83.05-1.11,1.85-.61,1.93-.03.03.24-.33.46-.34.64-.05.58,1.1.96-.3,1.43.14-.14.04-1.09-.55-1.11-.22,0-.4.98-.11,1.11Z"/>
  <path class="st2" d="M281.8,472.47c-.05.02-.12.22-.33.22s-.27-.19-.33-.22c.07.03.64.02.66,0Z"/>
  <path class="st2" d="M312.94,355.41c.38.36-.09.37-.32.45-1.1.34-2.32.12-3.43.43v-1.32c.52-.21.96.33,1.25.38.41.06,2.07-.34,2.5.07Z"/>
  <path class="st2" d="M306.98,344.36c.27-.36.4,0,.44.33.2,1.58.11,3.58.22,5.2h-.66v-5.52Z"/>
  <path class="st2" d="M312.5,342.82c.36.36-.39.56-.6.6-.75.15-1.52.03-2.27.06v-1.11c.16-.16,2.69.26,2.87.45Z"/>
  <path class="st2" d="M273.85,375.73c.4-3.62-1.68-1.31-3.75-1.88,1.11-.77,2.63-.42,3.86-1,.21,0,.1,2.49.11,2.87h-.22Z"/>
  <path class="st2" d="M323.77,366.01v1.33c-.12.12-3.04-.19-2.43-1.1l2.43-.22Z"/>
  <rect class="st2" x="288.43" y="344.58" width=".44" height="5.52"/>
  <path class="st2" d="M308.52,356.29c-.06.05-1.24.04-1.54.22-.02-.9-.26-2,.99-1.78.72.13.69,1.42.55,1.55Z"/>
  <path class="st2" d="M308.53,352.75v1.55s-1.55,0-1.55,0c-.16-1.43.11-1.71,1.55-1.55Z"/>
  <path class="st2" d="M327.52,364.9h.66c.17.36-.22.83-.22.99v3.42h-.44v-4.42Z"/>
  <path class="st2" d="M287.29,354.49c-.22.14-.77-.01-1.07.03.04-.47-.21-1.56.35-1.75,1.3-.43,1.05,1.51.72,1.72Z"/>
  <path class="st2" d="M285.99,350.77l-.2,1.23c-.6.23-2.59-.07-2-.79.07-.09,1.86-.28,2.21-.44Z"/>
  <path class="st2" d="M287.76,350.55c.08.07-.05,1.44,0,1.77-2.61.38-.81-2.55,0-1.77Z"/>
  <path class="st2" d="M273.85,469.82c0,.97-.08,1.94.22,2.87h-1.1c.3-.93.22-1.9.22-2.87h.66Z"/>
  <path class="st2" d="M287.54,354.96v1.55c-.27-.05-1.71-.16-1.77-.22-.49-.52,1.29-1.59,1.77-1.32Z"/>
  <path class="st2" d="M327.74,364.24c-.06.07-1.62.59-1.77.45v-1.33c.37-.23,2.17.35,1.77.88Z"/>
  <path class="st2" d="M307.64,350.33v1.54s.66-.88.66-.88c.02.54.15,1.27-.55,1.34-1.45.14-.64-2.61-.11-2Z"/>
  <path class="st2" d="M302.56,325.37c.11.06.33.06.55.21.42.28,2.34,2.82,2.1,3.1-.34.39-.48-.3-.57-.42-.71-.95-1.51-1.9-2.08-2.89-.11-.06-1.06-.26-.66-.66s.6.55.66.66Z"/>
  <path class="st2" d="M287.98,358.06v.44h-3.2c-.09,0-.77-.43-.77-.66.32-.14.64.22.77.22h3.2Z"/>
  <path class="st2" d="M285.33,355.41c.05.05.02.51-.1.67-.49.67-1.71-.18-2.33-.24.08-.62,2.34-.53,2.43-.44Z"/>
  <path class="st2" d="M325.31,365.79c-.11,1.06.51,2.06-.88,1.77.11-1.06-.51-2.06.88-1.77Z"/>
  <path class="st2" d="M309.63,352.31s-.85.03-.88,0c-.06-.06-.06-1.7,0-1.77.7-.7,1.2,1.46.88,1.77Z"/>
  <path class="st0" d="M309.84,352.76c.06.05.05,1.24.23,1.54h-1.1c.05-.3-.07-1.48,0-1.55.03-.03.84-.03.88,0Z"/>
  <path class="st2" d="M297.48,316.53c.34.37-.83,2.25-1.32,1.76-.42-.42.9-2.22,1.32-1.76Z"/>
  <path class="st2" d="M309.19,341.49c-.89.48-1.13-1.64-.55-1.77.84.11.5,1.18.55,1.77Z"/>
  <path class="st2" d="M297.48,351.43c.45.91-.59,1.09-1.32,1.1v-1.1c.26.19,1.29-.06,1.32,0Z"/>
  <path class="st2" d="M277.38,367.55c.13-.64-.35-.45-.77-.45-.6,0-1.09.06-1.66.23-.33-1.15,1.26-.56,2.1-.43.41.06.9-.28.77.43-.1.03-.23.18-.44.22Z"/>
  <rect class="st2" x="288.21" y="350.54" width=".66" height="1.77"/>
  <path class="st2" d="M273.19,367.55v-1.1s1.1.34,1.1.34c.1.42-.97.91-1.1.77Z"/>
  <path class="st2" d="M288.87,352.76v1.55s-.66,0-.66,0c0-.61-.21-1.58.66-1.55Z"/>
  <path class="st2" d="M328.18,369.98l-.44,3.09c.33-.85-.74-3.01.44-3.09Z"/>
  <path class="st2" d="M299.69,352.53c-.52.52-1.11-.88-.88-1.1.46-.45,1.24.74.88,1.1Z"/>
  <path class="st2" d="M288.87,339.95c-.14.48.41,1.94-.44,1.76.14-.48-.41-1.94.44-1.76Z"/>
  <path class="st2" d="M297.48,356.29c.18.85-1.28.29-1.76.44-.18-.85,1.28-.29,1.76-.44Z"/>
  <path class="st0" d="M288.87,342.37c-.12.47.38,1.73-.44,1.54.12-.47-.38-1.73.44-1.54Z"/>
  <path class="st2" d="M307.42,339.95c-.12.47.38,1.73-.44,1.54.12-.47-.38-1.73.44-1.54Z"/>
  <path class="st1" d="M308.75,367.33v4.86c0,.08-1.55.04-1.55.33l1.55.11c-.37,1.62.02,3.02,0,4.64l-8.63.34c-.43-.3.04-3.98-.21-4.76h4.86v-.44h-4.86v-4.53c0-.12.37-.34.55-.33l8.28-.22Z"/>
  <path class="st1" d="M299.47,372.41c-3.03.45-6.02.02-9.06,0,0-1.63-.08-3.26.22-4.86h8.5s.33.31.33.33v4.53Z"/>
  <path class="st1" d="M299.47,372.85v4.53c0,.67-3.58.2-4.12.19-1.54-.01-3.1.22-4.71-.08.19-.61-.69-4.64.11-4.64h8.72Z"/>
  <polygon class="st1" points="289.97 367.55 289.97 372.41 282.02 371.97 282.02 367.33 289.97 367.55"/>
  <path class="st1" d="M289.97,377.49l-7.95-.44v-4.42l7.4.22c.18,0,.55.21.55.33v4.31Z"/>
  <path class="st1" d="M281.36,371.97l-2.65-.22v-4.64c.47.04,2.65-.19,2.65.33v4.53Z"/>
  <path class="st1" d="M278.26,373.08c-.11,1.6-.11,1.92,1.33,2.54.32.14,2.46.52,1.76,1.22-.23.23-5.77-.41-6.08-.87-.15-.23-.19-1.79-.07-1.97.09-.13,2.96-1.03,3.06-.91Z"/>
  <path class="st1" d="M281.36,375.5c-.1.1-2.54-.8-2.62-.91-.19-.29.07-1.69-.03-2.18,3.17-.33,2.71.34,2.65,3.09Z"/>
  <path class="st1" d="M320.23,431.72c.15-.49,1.98-.41,1.99-.22-.09.52-.24.99-.24,1.53,0,1.78.91,2.66-1.75,2.55.19-1-.26-3.03,0-3.87Z"/>
  <path class="st1" d="M321.24,426.98c1.13-.36,1.1,2.74.98,3.41-.15.81-1.64.7-1.89.35-.29-.4.25-3.55.92-3.75Z"/>
  <path class="st1" d="M322.88,436.02v-8.72c0-.1-.9-1.53-.11-1.21.54.39.7,1.03.78,1.65.2,1.75.16,5.51.01,7.3-.04.5.03,1.03-.67.98Z"/>
  <path class="st1" d="M322.22,476c-.05.08-1.55.67-1.73.08-.26-.86-.21-3.64.63-4.27h-.67c.63-1.32.29-.62.06-.93-.29-.41.51-2.83.83-3.05.3-.21.88.6.88.77,0,.99.21,7.09,0,7.4ZM321.78,471.59c-.31-.16-.59.14-.44.22.31.16.59-.14.44-.22Z"/>
  <path class="st1" d="M323.77,476.67h-.88c-.08-.24.22-.48.22-.55v-7.51c0-.21-.98-1.05-.11-.99.23.08.78,1.02.78,1.21v7.84Z"/>
  <path class="st1" d="M278.04,466.28c-.16.04-2.17.12-1.55-.44.28-.25,1.49-.23,1.55.44Z"/>
  <path class="st1" d="M276.17,466.28c.14.07.14.15,0,.22v-.22Z"/>
  <path class="st2" d="M321.78,471.59c.15.08-.13.38-.44.22-.15-.08.13-.38.44-.22Z"/>
</svg>