<?xml version="1.0" encoding="UTF-8"?>
<svg id="Layer_1" xmlns="http://www.w3.org/2000/svg" version="1.1" viewBox="0 0 595.28 841.89">
  <!-- Generator: Adobe Illustrator 30.4.0, SVG Export Plug-In . SVG Version: 2.1.4 Build 226)  -->
  <defs>
    <style>
      .st0 {
        fill: #d9a854;
      }

      .st1 {
        fill: #fff;
      }
    </style>
  </defs>
  <g id="wfhmGV.tif">
    <g>
      <path class="st0" d="M80.8,474.66l140.77.72c11.35,2.49,19.9,12.08,21.48,23.52-2.95,43.84,3.91,92.81.03,136.05-2.3,25.73-31.34,28.5-51.5,24.42-36.18-2.6-77.53,3.6-113.09.09-11.22-1.11-21.25-12.46-22.46-23.54l.09-137.92c2.72-12.6,11.92-21.26,24.67-23.33h0ZM230.73,489.72c-3.17-3.75-10.18-6.91-15.14-7.35-42-3.76-89.5,2.93-132.08,0-10.53,1.16-18.53,7.57-19.5,18.5-3.78,42.32,2.94,90.17,0,133.08.63,9.46,9.23,17.42,18.54,18.46,42.98-2.43,89.48,3.23,132.05.04,11.39-.85,19.47-7.95,20.5-19.5,3.72-41.68-2.89-88.81,0-131.07-.19-3.79-1.93-9.29-4.35-12.16h-.02Z"/>
      <path class="st0" d="M328.78,474.65c44.35,2.18,92.93-3.73,136.8-.28,13.18,1.04,24.15,9.14,26.47,22.53-1.61,44.57,1.67,89.61,1.07,134.01-.18,13.45-10.16,26.37-23.57,28.49l-141.06.05c-10.47-1.05-21.69-11.96-22.49-22.51l.11-140.98c3.13-11.28,11.27-18.77,22.68-21.32h-.01ZM329.78,482.64c-10.03,2.52-15.8,10.15-16.72,20.28-3.71,40.71,2.77,86.75-.05,128.02.73,12.11,8.28,20.4,20.49,21.51,41.61,3.78,88.87-2.95,131.08,0,12.15-1.24,19.46-9.5,20.5-21.5-2.72-41.06,3.5-86.53,0-127.07-.96-11.13-7.03-19.77-18.53-21.47l-136.77.24h0Z"/>
      <path class="st1" d="M126.04,556.41v15h14v39h16v-39l12.89-.11,2.11-14.89-15.01-1c-1.34-14.19,1.08-16.7,14.87-18.15l.14-12.86c-6.44-.29-11.63-1.39-18.05.46-13.36,3.87-14.68,18.63-13.95,30.55l-13,.99h0Z"/>
      <path class="st0" d="M126.04,556.41l13-.99c-.73-11.92.59-26.68,13.95-30.55,6.41-1.86,11.6-.76,18.05-.46l-.14,12.86c-13.79,1.45-16.21,3.95-14.87,18.15l15.01,1-2.11,14.89-12.89.11v39h-16v-39h-14v-15h0Z"/>
      <path class="st0" d="M381.84,523.7c11.12-1.21,31.45-.89,42.47.94,21.7,3.61,19.69,39.01,18.78,55.3-.6,10.68-1.35,20.72-11.7,26.3-12.58,6.79-39.59,5.82-53.83,4.14-11.69-1.37-18.68-8.49-21.23-19.77s-2.91-38.76-.04-49.49,15.06-16.3,25.56-17.44v.02h0ZM369.39,535.75c-2.93,2.63-5.44,9.5-6.11,13.39-1.11,6.46-.3,12.72-.24,18.77.12,12.2-2.31,32.14,14.59,34.4,12.01,1.6,34.08,2.28,45.4-1.42,5.02-1.64,10.38-5.46,11.03-10.97,1.16-9.8.99-34.07.03-44.07-.69-7.17-4.95-10.29-11.5-12.5-9.57-3.23-37.48-2.78-47.62-.53-1.61.36-4.34,1.81-5.58,2.92h0Z"/>
      <path class="st0" d="M415.7,582.06c-18.97,21.39-53.2-7.67-33.18-29.68,19.67-21.62,52.33,8.09,33.18,29.68ZM394.75,553.62c-15.76,3.58-11.58,30.44,6.55,27.55,18.29-2.92,14.36-32.3-6.55-27.55Z"/>
    </g>
  </g>
</svg>